G04*
G04 #@! TF.GenerationSoftware,Altium Limited,Altium Designer,24.0.1 (36)*
G04*
G04 Layer_Color=8388736*
%FSLAX44Y44*%
%MOMM*%
G71*
G04*
G04 #@! TF.SameCoordinates,8FF7991A-89D8-4168-8CAE-93076DC636D7*
G04*
G04*
G04 #@! TF.FilePolarity,Negative*
G04*
G01*
G75*
%ADD26R,2.3032X1.6032*%
%ADD27R,1.5032X1.7032*%
%ADD28R,1.2232X1.2432*%
%ADD29R,1.2432X1.2232*%
%ADD30R,1.4032X1.4032*%
%ADD31R,1.8032X1.7032*%
%ADD32R,1.7032X1.5032*%
G04:AMPARAMS|DCode=33|XSize=2.1732mm|YSize=0.8032mm|CornerRadius=0.1766mm|HoleSize=0mm|Usage=FLASHONLY|Rotation=180.000|XOffset=0mm|YOffset=0mm|HoleType=Round|Shape=RoundedRectangle|*
%AMROUNDEDRECTD33*
21,1,2.1732,0.4500,0,0,180.0*
21,1,1.8200,0.8032,0,0,180.0*
1,1,0.3532,-0.9100,0.2250*
1,1,0.3532,0.9100,0.2250*
1,1,0.3532,0.9100,-0.2250*
1,1,0.3532,-0.9100,-0.2250*
%
%ADD33ROUNDEDRECTD33*%
G04:AMPARAMS|DCode=34|XSize=2.1732mm|YSize=0.8032mm|CornerRadius=0.1766mm|HoleSize=0mm|Usage=FLASHONLY|Rotation=90.000|XOffset=0mm|YOffset=0mm|HoleType=Round|Shape=RoundedRectangle|*
%AMROUNDEDRECTD34*
21,1,2.1732,0.4500,0,0,90.0*
21,1,1.8200,0.8032,0,0,90.0*
1,1,0.3532,0.2250,0.9100*
1,1,0.3532,0.2250,-0.9100*
1,1,0.3532,-0.2250,-0.9100*
1,1,0.3532,-0.2250,0.9100*
%
%ADD34ROUNDEDRECTD34*%
%ADD35C,2.0532*%
%ADD36C,2.8432*%
%ADD37R,2.8432X2.8432*%
%ADD38C,2.2352*%
%ADD39C,1.4412*%
%ADD40R,1.4412X1.4412*%
%ADD41C,2.0532*%
%ADD42R,2.0532X2.0532*%
%ADD43C,1.5240*%
%ADD44C,1.7272*%
%ADD45R,1.7932X1.7932*%
%ADD46C,1.7932*%
%ADD47C,1.7112*%
%ADD48R,1.7112X1.7112*%
%ADD49C,2.3532*%
%ADD50C,2.7432*%
%ADD51R,1.4412X1.4412*%
%ADD52C,0.8532*%
G36*
X291202Y166726D02*
Y147726D01*
X287702Y144226D01*
X259702D01*
X258602Y145226D01*
X252702D01*
Y155226D01*
X258702D01*
Y159226D01*
X252702D01*
Y169226D01*
X258602D01*
X259702Y170226D01*
X287702D01*
X291202Y166726D01*
D02*
G37*
G36*
X306802Y169226D02*
X312702D01*
Y159226D01*
X306702D01*
Y155226D01*
X312702D01*
Y145226D01*
X306802D01*
X305702Y144226D01*
X297702D01*
X294202Y147726D01*
Y166726D01*
X297702Y170226D01*
X305702D01*
X306802Y169226D01*
D02*
G37*
G36*
X474788Y163576D02*
Y157676D01*
X464788D01*
Y163676D01*
X460788D01*
Y157676D01*
X450788D01*
Y163576D01*
X449788Y164676D01*
Y172676D01*
X453288Y176176D01*
X472288D01*
X475788Y172676D01*
Y164676D01*
X474788Y163576D01*
D02*
G37*
G36*
X472288Y179176D02*
X453288D01*
X449788Y182676D01*
Y210676D01*
X450788Y211776D01*
Y217676D01*
X460788D01*
Y211676D01*
X464788D01*
Y217676D01*
X474788D01*
Y211776D01*
X475788Y210676D01*
Y182676D01*
X472288Y179176D01*
D02*
G37*
D26*
X386554Y51668D02*
D03*
Y96668D02*
D03*
X477554D02*
D03*
Y51668D02*
D03*
X634966Y115718D02*
D03*
Y70718D02*
D03*
X725966D02*
D03*
Y115718D02*
D03*
D27*
X384404Y121678D02*
D03*
X365404D02*
D03*
X297790Y202438D02*
D03*
X278790D02*
D03*
X346354Y266700D02*
D03*
X365354D02*
D03*
X431038Y150887D02*
D03*
X412038D02*
D03*
X574700Y355092D02*
D03*
X593700D02*
D03*
X582320Y271780D02*
D03*
X601320D02*
D03*
X573938Y243332D02*
D03*
X592938D02*
D03*
X549910Y234696D02*
D03*
X530910D02*
D03*
D28*
X343916Y144808D02*
D03*
Y159508D02*
D03*
X235966Y258302D02*
D03*
Y243602D02*
D03*
X457454Y257318D02*
D03*
Y272018D02*
D03*
X345694Y231156D02*
D03*
Y245856D02*
D03*
X511048Y308878D02*
D03*
Y294178D02*
D03*
X535432Y347726D02*
D03*
Y362426D02*
D03*
X553974Y362172D02*
D03*
Y347472D02*
D03*
X584962Y328406D02*
D03*
Y313706D02*
D03*
X603758Y328406D02*
D03*
Y313706D02*
D03*
X524002Y134382D02*
D03*
Y149082D02*
D03*
D29*
X328946Y178573D02*
D03*
X343646D02*
D03*
X403876Y310642D02*
D03*
X418576D02*
D03*
X404400Y292100D02*
D03*
X419100D02*
D03*
Y218694D02*
D03*
X404400D02*
D03*
X403892Y199898D02*
D03*
X418592D02*
D03*
X404146Y181102D02*
D03*
X418846D02*
D03*
X410386Y129911D02*
D03*
X425086D02*
D03*
X501666Y369824D02*
D03*
X516366D02*
D03*
Y388112D02*
D03*
X501666D02*
D03*
X586264Y295148D02*
D03*
X600964D02*
D03*
X573564Y222758D02*
D03*
X588264D02*
D03*
X504682Y145542D02*
D03*
X489982D02*
D03*
D30*
X384904Y145820D02*
D03*
X364904D02*
D03*
X504604Y203944D02*
D03*
X524604D02*
D03*
D31*
X374904Y178319D02*
D03*
X514604Y171444D02*
D03*
D32*
X214376Y258674D02*
D03*
Y239674D02*
D03*
X439928Y312522D02*
D03*
Y293522D02*
D03*
X514858Y348996D02*
D03*
Y329996D02*
D03*
X617982Y164592D02*
D03*
Y145592D02*
D03*
D33*
X314068Y224282D02*
D03*
Y236982D02*
D03*
Y249682D02*
D03*
Y262382D02*
D03*
X264668D02*
D03*
Y249682D02*
D03*
Y236982D02*
D03*
Y224282D02*
D03*
X386718Y272796D02*
D03*
Y260096D02*
D03*
Y247396D02*
D03*
Y234696D02*
D03*
X436118D02*
D03*
Y247396D02*
D03*
Y260096D02*
D03*
Y272796D02*
D03*
D34*
X548878Y150042D02*
D03*
X561578D02*
D03*
X574278D02*
D03*
X586978D02*
D03*
Y199442D02*
D03*
X574278D02*
D03*
X561578D02*
D03*
X548878D02*
D03*
X567690Y278068D02*
D03*
X554990D02*
D03*
X542290D02*
D03*
X529590D02*
D03*
Y327468D02*
D03*
X542290D02*
D03*
X554990D02*
D03*
X567690D02*
D03*
D35*
X225298Y355346D02*
D03*
X326898D02*
D03*
X715772Y148844D02*
D03*
Y250444D02*
D03*
X370332Y388874D02*
D03*
X395732D02*
D03*
X225044Y386588D02*
D03*
X326644D02*
D03*
X282956Y716026D02*
D03*
X724662Y286512D02*
D03*
Y311912D02*
D03*
X630428Y390906D02*
D03*
X655828D02*
D03*
X626110Y309372D02*
D03*
Y207772D02*
D03*
X679704Y309372D02*
D03*
Y207772D02*
D03*
X735584Y721868D02*
D03*
D36*
X549656Y576470D02*
D03*
Y521970D02*
D03*
X456184D02*
D03*
Y576470D02*
D03*
D37*
X549656Y467470D02*
D03*
X456184D02*
D03*
D38*
X325628Y46736D02*
D03*
X198628D02*
D03*
D39*
X446117Y336042D02*
D03*
X652272Y304639D02*
D03*
D40*
X370747Y336042D02*
D03*
D41*
X40894Y244094D02*
D03*
X117094D02*
D03*
X40894Y563372D02*
D03*
X117094D02*
D03*
X40894Y83566D02*
D03*
X117094D02*
D03*
X40894Y403860D02*
D03*
X117094D02*
D03*
X958088Y78232D02*
D03*
X881888D02*
D03*
X958088Y552450D02*
D03*
X881888D02*
D03*
X958088Y394716D02*
D03*
X881888D02*
D03*
X958088Y236474D02*
D03*
X881888D02*
D03*
D42*
X308356Y716026D02*
D03*
X710184Y721868D02*
D03*
D43*
X442722Y364998D02*
D03*
X423672Y377698D02*
D03*
X442722Y390398D02*
D03*
X648970Y324612D02*
D03*
X668020Y337312D02*
D03*
X648970Y350012D02*
D03*
D44*
X182626Y466598D02*
D03*
X385826D02*
D03*
X182024Y523588D02*
D03*
X385224D02*
D03*
X181864Y580136D02*
D03*
X385064D02*
D03*
X822198Y571500D02*
D03*
X618998D02*
D03*
X821944Y458978D02*
D03*
X618744D02*
D03*
X821944Y515366D02*
D03*
X618744D02*
D03*
D45*
X745744Y251444D02*
D03*
D46*
Y147844D02*
D03*
D47*
X667258Y181610D02*
D03*
D48*
Y156210D02*
D03*
D49*
X557022Y42164D02*
D03*
X506222Y92964D02*
D03*
X582422D02*
D03*
X607822D02*
D03*
D50*
X797560Y35052D02*
D03*
Y390652D02*
D03*
D51*
X652272Y229269D02*
D03*
D52*
X538988Y251968D02*
D03*
X276606Y130556D02*
D03*
X487680Y213106D02*
D03*
X565824Y215118D02*
D03*
X549910Y169672D02*
D03*
X386080Y284226D02*
D03*
X319786Y208534D02*
D03*
X409623Y189575D02*
D03*
X579628Y341122D02*
D03*
X390906Y222758D02*
D03*
X617982Y178562D02*
D03*
X584705Y255788D02*
D03*
X532638Y301752D02*
D03*
X397510Y136652D02*
D03*
X521369Y268379D02*
D03*
X434340Y218948D02*
D03*
X363728Y225806D02*
D03*
X266954Y214630D02*
D03*
X435864Y201676D02*
D03*
X487680Y355938D02*
D03*
X498094Y353314D02*
D03*
X497332Y311912D02*
D03*
X498348Y333502D02*
D03*
M02*
