G04*
G04 #@! TF.GenerationSoftware,Altium Limited,Altium Designer,24.0.1 (36)*
G04*
G04 Layer_Physical_Order=1*
G04 Layer_Color=255*
%FSLAX44Y44*%
%MOMM*%
G71*
G04*
G04 #@! TF.SameCoordinates,8FF7991A-89D8-4168-8CAE-93076DC636D7*
G04*
G04*
G04 #@! TF.FilePolarity,Positive*
G04*
G01*
G75*
%ADD17R,2.1000X1.4000*%
%ADD18R,1.3000X1.5000*%
%ADD19R,1.0200X1.0400*%
%ADD20R,1.0400X1.0200*%
%ADD21R,1.2000X1.2000*%
%ADD22R,1.6000X1.5000*%
%ADD23R,1.5000X1.3000*%
G04:AMPARAMS|DCode=24|XSize=1.97mm|YSize=0.6mm|CornerRadius=0.075mm|HoleSize=0mm|Usage=FLASHONLY|Rotation=180.000|XOffset=0mm|YOffset=0mm|HoleType=Round|Shape=RoundedRectangle|*
%AMROUNDEDRECTD24*
21,1,1.9700,0.4500,0,0,180.0*
21,1,1.8200,0.6000,0,0,180.0*
1,1,0.1500,-0.9100,0.2250*
1,1,0.1500,0.9100,0.2250*
1,1,0.1500,0.9100,-0.2250*
1,1,0.1500,-0.9100,-0.2250*
%
%ADD24ROUNDEDRECTD24*%
G04:AMPARAMS|DCode=25|XSize=1.97mm|YSize=0.6mm|CornerRadius=0.075mm|HoleSize=0mm|Usage=FLASHONLY|Rotation=90.000|XOffset=0mm|YOffset=0mm|HoleType=Round|Shape=RoundedRectangle|*
%AMROUNDEDRECTD25*
21,1,1.9700,0.4500,0,0,90.0*
21,1,1.8200,0.6000,0,0,90.0*
1,1,0.1500,0.2250,0.9100*
1,1,0.1500,0.2250,-0.9100*
1,1,0.1500,-0.2250,-0.9100*
1,1,0.1500,-0.2250,0.9100*
%
%ADD25ROUNDEDRECTD25*%
%ADD43C,1.5240*%
%ADD53C,0.4000*%
%ADD54C,0.1600*%
%ADD55R,0.5000X0.5000*%
%ADD56R,0.5000X0.5000*%
%ADD57C,0.3000*%
%ADD58C,1.8500*%
%ADD59C,2.6400*%
%ADD60R,2.6400X2.6400*%
%ADD61C,2.0320*%
%ADD62C,1.2380*%
%ADD63R,1.2380X1.2380*%
%ADD64C,1.8500*%
%ADD65R,1.8500X1.8500*%
%ADD66C,1.3208*%
%ADD67R,1.5900X1.5900*%
%ADD68C,1.5900*%
%ADD69C,1.5080*%
%ADD70R,1.5080X1.5080*%
%ADD71C,2.1500*%
%ADD72C,2.5400*%
%ADD73R,1.2380X1.2380*%
%ADD74C,0.6500*%
G36*
X988367Y843192D02*
X989985Y842522D01*
X991441Y841549D01*
X992679Y840311D01*
X993652Y838855D01*
X994322Y837237D01*
X994664Y835520D01*
Y834644D01*
Y17018D01*
Y16142D01*
X994322Y14425D01*
X993652Y12807D01*
X992679Y11351D01*
X991441Y10113D01*
X989985Y9140D01*
X988367Y8470D01*
X986650Y8128D01*
X983895D01*
X983708Y8205D01*
X983565Y8348D01*
X983488Y8535D01*
Y8636D01*
X6858Y9398D01*
X6808D01*
X6714Y9437D01*
X6643Y9508D01*
X6604Y9601D01*
Y9652D01*
Y835724D01*
Y836493D01*
X6904Y838002D01*
X7493Y839423D01*
X8348Y840702D01*
X9436Y841790D01*
X10715Y842645D01*
X12136Y843234D01*
X13645Y843534D01*
X986650D01*
X988367Y843192D01*
D02*
G37*
%LPC*%
G36*
X737065Y733118D02*
X734103D01*
X731242Y732351D01*
X728676Y730870D01*
X726582Y728776D01*
X725101Y726210D01*
X724334Y723349D01*
Y720387D01*
X725101Y717526D01*
X726582Y714960D01*
X728676Y712866D01*
X731242Y711385D01*
X734103Y710618D01*
X737065D01*
X739926Y711385D01*
X742492Y712866D01*
X744586Y714960D01*
X746067Y717526D01*
X746834Y720387D01*
Y723349D01*
X746067Y726210D01*
X744586Y728776D01*
X742492Y730870D01*
X739926Y732351D01*
X737065Y733118D01*
D02*
G37*
G36*
X721434D02*
X698934D01*
Y710618D01*
X721434D01*
Y733118D01*
D02*
G37*
G36*
X319606Y727276D02*
X297106D01*
Y704776D01*
X319606D01*
Y727276D01*
D02*
G37*
G36*
X284437D02*
X281475D01*
X278614Y726509D01*
X276048Y725028D01*
X273954Y722934D01*
X272473Y720368D01*
X271706Y717507D01*
Y714545D01*
X272473Y711684D01*
X273954Y709118D01*
X276048Y707024D01*
X278614Y705543D01*
X281475Y704776D01*
X284437D01*
X287298Y705543D01*
X289864Y707024D01*
X291958Y709118D01*
X293439Y711684D01*
X294206Y714545D01*
Y717507D01*
X293439Y720368D01*
X291958Y722934D01*
X289864Y725028D01*
X287298Y726509D01*
X284437Y727276D01*
D02*
G37*
G36*
X183202Y590296D02*
X183134D01*
Y581406D01*
X192024D01*
Y581474D01*
X191332Y584058D01*
X189994Y586374D01*
X188102Y588266D01*
X185786Y589604D01*
X183202Y590296D01*
D02*
G37*
G36*
X180594D02*
X180526D01*
X177942Y589604D01*
X175626Y588266D01*
X173734Y586374D01*
X172396Y584058D01*
X171704Y581474D01*
Y581406D01*
X180594D01*
Y590296D01*
D02*
G37*
G36*
X551206Y592210D02*
X550926D01*
Y577740D01*
X565396D01*
Y578020D01*
X564791Y581061D01*
X563605Y583926D01*
X561882Y586504D01*
X559690Y588696D01*
X557112Y590419D01*
X554247Y591605D01*
X551206Y592210D01*
D02*
G37*
G36*
X457734D02*
X457454D01*
Y577740D01*
X471924D01*
Y578020D01*
X471319Y581061D01*
X470133Y583926D01*
X468410Y586504D01*
X466218Y588696D01*
X463640Y590419D01*
X460775Y591605D01*
X457734Y592210D01*
D02*
G37*
G36*
X548386D02*
X548106D01*
X545065Y591605D01*
X542200Y590419D01*
X539622Y588696D01*
X537430Y586504D01*
X535707Y583926D01*
X534521Y581061D01*
X533916Y578020D01*
Y577740D01*
X548386D01*
Y592210D01*
D02*
G37*
G36*
X454914D02*
X454634D01*
X451593Y591605D01*
X448728Y590419D01*
X446150Y588696D01*
X443958Y586504D01*
X442235Y583926D01*
X441049Y581061D01*
X440444Y578020D01*
Y577740D01*
X454914D01*
Y592210D01*
D02*
G37*
G36*
X823536Y581660D02*
X823468D01*
Y572770D01*
X832358D01*
Y572838D01*
X831666Y575422D01*
X830328Y577738D01*
X828436Y579630D01*
X826120Y580968D01*
X823536Y581660D01*
D02*
G37*
G36*
X820928D02*
X820860D01*
X818276Y580968D01*
X815960Y579630D01*
X814068Y577738D01*
X812730Y575422D01*
X812038Y572838D01*
Y572770D01*
X820928D01*
Y581660D01*
D02*
G37*
G36*
X386330Y589756D02*
X383797D01*
X381351Y589100D01*
X379157Y587834D01*
X377366Y586043D01*
X376100Y583849D01*
X375444Y581403D01*
Y578870D01*
X376100Y576423D01*
X377366Y574229D01*
X379157Y572438D01*
X381351Y571172D01*
X383797Y570516D01*
X386330D01*
X388777Y571172D01*
X390971Y572438D01*
X392762Y574229D01*
X394028Y576423D01*
X394684Y578870D01*
Y581403D01*
X394028Y583849D01*
X392762Y586043D01*
X390971Y587834D01*
X388777Y589100D01*
X386330Y589756D01*
D02*
G37*
G36*
X192024Y578866D02*
X183134D01*
Y569976D01*
X183202D01*
X185786Y570668D01*
X188102Y572006D01*
X189994Y573898D01*
X191332Y576214D01*
X192024Y578798D01*
Y578866D01*
D02*
G37*
G36*
X180594D02*
X171704D01*
Y578798D01*
X172396Y576214D01*
X173734Y573898D01*
X175626Y572006D01*
X177942Y570668D01*
X180526Y569976D01*
X180594D01*
Y578866D01*
D02*
G37*
G36*
X42446Y575162D02*
X42164D01*
Y564642D01*
X52684D01*
Y564924D01*
X51881Y567923D01*
X50328Y570611D01*
X48133Y572806D01*
X45445Y574359D01*
X42446Y575162D01*
D02*
G37*
G36*
X39624D02*
X39342D01*
X36343Y574359D01*
X33655Y572806D01*
X31460Y570611D01*
X29907Y567923D01*
X29104Y564924D01*
Y564642D01*
X39624D01*
Y575162D01*
D02*
G37*
G36*
X620265Y581120D02*
X617732D01*
X615285Y580464D01*
X613091Y579198D01*
X611300Y577407D01*
X610034Y575213D01*
X609378Y572766D01*
Y570233D01*
X610034Y567787D01*
X611300Y565593D01*
X613091Y563802D01*
X615285Y562536D01*
X617732Y561880D01*
X620265D01*
X622711Y562536D01*
X624905Y563802D01*
X626696Y565593D01*
X627962Y567787D01*
X628618Y570233D01*
Y572766D01*
X627962Y575213D01*
X626696Y577407D01*
X624905Y579198D01*
X622711Y580464D01*
X620265Y581120D01*
D02*
G37*
G36*
X832358Y570230D02*
X823468D01*
Y561340D01*
X823536D01*
X826120Y562032D01*
X828436Y563370D01*
X830328Y565262D01*
X831666Y567578D01*
X832358Y570162D01*
Y570230D01*
D02*
G37*
G36*
X820928D02*
X812038D01*
Y570162D01*
X812730Y567578D01*
X814068Y565262D01*
X815960Y563370D01*
X818276Y562032D01*
X820860Y561340D01*
X820928D01*
Y570230D01*
D02*
G37*
G36*
X565396Y575200D02*
X550926D01*
Y560730D01*
X551206D01*
X554247Y561335D01*
X557112Y562521D01*
X559690Y564244D01*
X561882Y566436D01*
X563605Y569014D01*
X564791Y571879D01*
X565396Y574920D01*
Y575200D01*
D02*
G37*
G36*
X548386D02*
X533916D01*
Y574920D01*
X534521Y571879D01*
X535707Y569014D01*
X537430Y566436D01*
X539622Y564244D01*
X542200Y562521D01*
X545065Y561335D01*
X548106Y560730D01*
X548386D01*
Y575200D01*
D02*
G37*
G36*
X471924D02*
X457454D01*
Y560730D01*
X457734D01*
X460775Y561335D01*
X463640Y562521D01*
X466218Y564244D01*
X468410Y566436D01*
X470133Y569014D01*
X471319Y571879D01*
X471924Y574920D01*
Y575200D01*
D02*
G37*
G36*
X454914D02*
X440444D01*
Y574920D01*
X441049Y571879D01*
X442235Y569014D01*
X443958Y566436D01*
X446150Y564244D01*
X448728Y562521D01*
X451593Y561335D01*
X454634Y560730D01*
X454914D01*
Y575200D01*
D02*
G37*
G36*
X959640Y564240D02*
X959358D01*
Y553720D01*
X969878D01*
Y554002D01*
X969075Y557001D01*
X967522Y559689D01*
X965327Y561884D01*
X962639Y563437D01*
X959640Y564240D01*
D02*
G37*
G36*
X956818D02*
X956536D01*
X953537Y563437D01*
X950849Y561884D01*
X948654Y559689D01*
X947101Y557001D01*
X946298Y554002D01*
Y553720D01*
X956818D01*
Y564240D01*
D02*
G37*
G36*
X118575Y574622D02*
X115613D01*
X112752Y573855D01*
X110186Y572374D01*
X108092Y570280D01*
X106611Y567714D01*
X105844Y564853D01*
Y561891D01*
X106611Y559030D01*
X108092Y556464D01*
X110186Y554370D01*
X112752Y552889D01*
X115613Y552122D01*
X118575D01*
X121436Y552889D01*
X124002Y554370D01*
X126096Y556464D01*
X127577Y559030D01*
X128344Y561891D01*
Y564853D01*
X127577Y567714D01*
X126096Y570280D01*
X124002Y572374D01*
X121436Y573855D01*
X118575Y574622D01*
D02*
G37*
G36*
X52684Y562102D02*
X42164D01*
Y551582D01*
X42446D01*
X45445Y552385D01*
X48133Y553938D01*
X50328Y556133D01*
X51881Y558821D01*
X52684Y561820D01*
Y562102D01*
D02*
G37*
G36*
X39624D02*
X29104D01*
Y561820D01*
X29907Y558821D01*
X31460Y556133D01*
X33655Y553938D01*
X36343Y552385D01*
X39342Y551582D01*
X39624D01*
Y562102D01*
D02*
G37*
G36*
X883369Y563700D02*
X880407D01*
X877546Y562933D01*
X874980Y561452D01*
X872886Y559358D01*
X871405Y556792D01*
X870638Y553931D01*
Y550969D01*
X871405Y548108D01*
X872886Y545542D01*
X874980Y543448D01*
X877546Y541967D01*
X880407Y541200D01*
X883369D01*
X886230Y541967D01*
X888796Y543448D01*
X890890Y545542D01*
X892371Y548108D01*
X893138Y550969D01*
Y553931D01*
X892371Y556792D01*
X890890Y559358D01*
X888796Y561452D01*
X886230Y562933D01*
X883369Y563700D01*
D02*
G37*
G36*
X969878Y551180D02*
X959358D01*
Y540660D01*
X959640D01*
X962639Y541463D01*
X965327Y543016D01*
X967522Y545211D01*
X969075Y547899D01*
X969878Y550898D01*
Y551180D01*
D02*
G37*
G36*
X956818D02*
X946298D01*
Y550898D01*
X947101Y547899D01*
X948654Y545211D01*
X950849Y543016D01*
X953537Y541463D01*
X956536Y540660D01*
X956818D01*
Y551180D01*
D02*
G37*
G36*
X183362Y533748D02*
X183294D01*
Y524858D01*
X192184D01*
Y524926D01*
X191492Y527510D01*
X190154Y529826D01*
X188262Y531718D01*
X185946Y533056D01*
X183362Y533748D01*
D02*
G37*
G36*
X180754D02*
X180686D01*
X178102Y533056D01*
X175786Y531718D01*
X173894Y529826D01*
X172556Y527510D01*
X171864Y524926D01*
Y524858D01*
X180754D01*
Y533748D01*
D02*
G37*
G36*
X823282Y525526D02*
X823214D01*
Y516636D01*
X832104D01*
Y516704D01*
X831412Y519288D01*
X830074Y521604D01*
X828182Y523496D01*
X825866Y524834D01*
X823282Y525526D01*
D02*
G37*
G36*
X820674D02*
X820606D01*
X818022Y524834D01*
X815706Y523496D01*
X813814Y521604D01*
X812476Y519288D01*
X811784Y516704D01*
Y516636D01*
X820674D01*
Y525526D01*
D02*
G37*
G36*
X386491Y533208D02*
X383957D01*
X381511Y532552D01*
X379317Y531286D01*
X377526Y529495D01*
X376260Y527301D01*
X375604Y524855D01*
Y522322D01*
X376260Y519875D01*
X377526Y517681D01*
X379317Y515890D01*
X381511Y514624D01*
X383957Y513968D01*
X386491D01*
X388937Y514624D01*
X391131Y515890D01*
X392922Y517681D01*
X394188Y519875D01*
X394844Y522322D01*
Y524855D01*
X394188Y527301D01*
X392922Y529495D01*
X391131Y531286D01*
X388937Y532552D01*
X386491Y533208D01*
D02*
G37*
G36*
X192184Y522318D02*
X183294D01*
Y513428D01*
X183362D01*
X185946Y514120D01*
X188262Y515458D01*
X190154Y517350D01*
X191492Y519666D01*
X192184Y522250D01*
Y522318D01*
D02*
G37*
G36*
X180754D02*
X171864D01*
Y522250D01*
X172556Y519666D01*
X173894Y517350D01*
X175786Y515458D01*
X178102Y514120D01*
X180686Y513428D01*
X180754D01*
Y522318D01*
D02*
G37*
G36*
X551153Y537170D02*
X548159D01*
X545222Y536586D01*
X542456Y535440D01*
X539967Y533777D01*
X537849Y531659D01*
X536186Y529170D01*
X535040Y526404D01*
X534456Y523467D01*
Y520473D01*
X535040Y517536D01*
X536186Y514770D01*
X537849Y512281D01*
X539967Y510163D01*
X542456Y508500D01*
X545222Y507354D01*
X548159Y506770D01*
X551153D01*
X554090Y507354D01*
X556856Y508500D01*
X559345Y510163D01*
X561463Y512281D01*
X563126Y514770D01*
X564272Y517536D01*
X564856Y520473D01*
Y523467D01*
X564272Y526404D01*
X563126Y529170D01*
X561463Y531659D01*
X559345Y533777D01*
X556856Y535440D01*
X554090Y536586D01*
X551153Y537170D01*
D02*
G37*
G36*
X457681D02*
X454687D01*
X451750Y536586D01*
X448984Y535440D01*
X446495Y533777D01*
X444377Y531659D01*
X442714Y529170D01*
X441568Y526404D01*
X440984Y523467D01*
Y520473D01*
X441568Y517536D01*
X442714Y514770D01*
X444377Y512281D01*
X446495Y510163D01*
X448984Y508500D01*
X451750Y507354D01*
X454687Y506770D01*
X457681D01*
X460618Y507354D01*
X463384Y508500D01*
X465873Y510163D01*
X467991Y512281D01*
X469654Y514770D01*
X470800Y517536D01*
X471384Y520473D01*
Y523467D01*
X470800Y526404D01*
X469654Y529170D01*
X467991Y531659D01*
X465873Y533777D01*
X463384Y535440D01*
X460618Y536586D01*
X457681Y537170D01*
D02*
G37*
G36*
X620010Y524986D02*
X617477D01*
X615031Y524330D01*
X612837Y523064D01*
X611046Y521273D01*
X609780Y519079D01*
X609124Y516632D01*
Y514100D01*
X609780Y511653D01*
X611046Y509459D01*
X612837Y507668D01*
X615031Y506402D01*
X617477Y505746D01*
X620010D01*
X622457Y506402D01*
X624651Y507668D01*
X626442Y509459D01*
X627708Y511653D01*
X628364Y514100D01*
Y516632D01*
X627708Y519079D01*
X626442Y521273D01*
X624651Y523064D01*
X622457Y524330D01*
X620010Y524986D01*
D02*
G37*
G36*
X832104Y514096D02*
X823214D01*
Y505206D01*
X823282D01*
X825866Y505898D01*
X828182Y507236D01*
X830074Y509128D01*
X831412Y511444D01*
X832104Y514028D01*
Y514096D01*
D02*
G37*
G36*
X820674D02*
X811784D01*
Y514028D01*
X812476Y511444D01*
X813814Y509128D01*
X815706Y507236D01*
X818022Y505898D01*
X820606Y505206D01*
X820674D01*
Y514096D01*
D02*
G37*
G36*
X183964Y476758D02*
X183896D01*
Y467868D01*
X192786D01*
Y467936D01*
X192094Y470520D01*
X190756Y472836D01*
X188864Y474728D01*
X186548Y476066D01*
X183964Y476758D01*
D02*
G37*
G36*
X181356D02*
X181288D01*
X178704Y476066D01*
X176388Y474728D01*
X174496Y472836D01*
X173158Y470520D01*
X172466Y467936D01*
Y467868D01*
X181356D01*
Y476758D01*
D02*
G37*
G36*
X823282Y469138D02*
X823214D01*
Y460248D01*
X832104D01*
Y460316D01*
X831412Y462900D01*
X830074Y465216D01*
X828182Y467108D01*
X825866Y468446D01*
X823282Y469138D01*
D02*
G37*
G36*
X820674D02*
X820606D01*
X818022Y468446D01*
X815706Y467108D01*
X813814Y465216D01*
X812476Y462900D01*
X811784Y460316D01*
Y460248D01*
X820674D01*
Y469138D01*
D02*
G37*
G36*
X387093Y476218D02*
X384560D01*
X382113Y475562D01*
X379919Y474296D01*
X378128Y472505D01*
X376862Y470311D01*
X376206Y467864D01*
Y465331D01*
X376862Y462885D01*
X378128Y460691D01*
X379919Y458900D01*
X382113Y457634D01*
X384560Y456978D01*
X387093D01*
X389539Y457634D01*
X391733Y458900D01*
X393524Y460691D01*
X394790Y462885D01*
X395446Y465331D01*
Y467864D01*
X394790Y470311D01*
X393524Y472505D01*
X391733Y474296D01*
X389539Y475562D01*
X387093Y476218D01*
D02*
G37*
G36*
X192786Y465328D02*
X183896D01*
Y456438D01*
X183964D01*
X186548Y457130D01*
X188864Y458468D01*
X190756Y460360D01*
X192094Y462676D01*
X192786Y465260D01*
Y465328D01*
D02*
G37*
G36*
X181356D02*
X172466D01*
Y465260D01*
X173158Y462676D01*
X174496Y460360D01*
X176388Y458468D01*
X178704Y457130D01*
X181288Y456438D01*
X181356D01*
Y465328D01*
D02*
G37*
G36*
X564856Y482670D02*
X534456D01*
Y452270D01*
X564856D01*
Y482670D01*
D02*
G37*
G36*
X620010Y468598D02*
X617477D01*
X615031Y467942D01*
X612837Y466676D01*
X611046Y464885D01*
X609780Y462691D01*
X609124Y460244D01*
Y457711D01*
X609780Y455265D01*
X611046Y453071D01*
X612837Y451280D01*
X615031Y450014D01*
X617477Y449358D01*
X620010D01*
X622457Y450014D01*
X624651Y451280D01*
X626442Y453071D01*
X627708Y455265D01*
X628364Y457711D01*
Y460244D01*
X627708Y462691D01*
X626442Y464885D01*
X624651Y466676D01*
X622457Y467942D01*
X620010Y468598D01*
D02*
G37*
G36*
X832104Y457708D02*
X823214D01*
Y448818D01*
X823282D01*
X825866Y449510D01*
X828182Y450848D01*
X830074Y452740D01*
X831412Y455056D01*
X832104Y457640D01*
Y457708D01*
D02*
G37*
G36*
X820674D02*
X811784D01*
Y457640D01*
X812476Y455056D01*
X813814Y452740D01*
X815706Y450848D01*
X818022Y449510D01*
X820606Y448818D01*
X820674D01*
Y457708D01*
D02*
G37*
G36*
X42446Y415650D02*
X42164D01*
Y405130D01*
X52684D01*
Y405412D01*
X51881Y408411D01*
X50328Y411099D01*
X48133Y413294D01*
X45445Y414847D01*
X42446Y415650D01*
D02*
G37*
G36*
X39624D02*
X39342D01*
X36343Y414847D01*
X33655Y413294D01*
X31460Y411099D01*
X29907Y408411D01*
X29104Y405412D01*
Y405130D01*
X39624D01*
Y415650D01*
D02*
G37*
G36*
X959640Y406506D02*
X959358D01*
Y395986D01*
X969878D01*
Y396268D01*
X969075Y399267D01*
X967522Y401955D01*
X965327Y404150D01*
X962639Y405703D01*
X959640Y406506D01*
D02*
G37*
G36*
X956818D02*
X956536D01*
X953537Y405703D01*
X950849Y404150D01*
X948654Y401955D01*
X947101Y399267D01*
X946298Y396268D01*
Y395986D01*
X956818D01*
Y406506D01*
D02*
G37*
G36*
X631909Y402156D02*
X628947D01*
X626086Y401389D01*
X623520Y399908D01*
X621426Y397814D01*
X619945Y395248D01*
X619874Y394984D01*
X590857D01*
X590857Y394984D01*
X589296Y394674D01*
X587973Y393790D01*
X587973Y393790D01*
X563385Y369201D01*
X561074D01*
Y369372D01*
X552642D01*
X547504Y374510D01*
X546181Y375394D01*
X544620Y375704D01*
X544620Y375704D01*
X528675D01*
X527114Y375394D01*
X525791Y374510D01*
X525791Y374510D01*
X525184Y373902D01*
X523566D01*
Y376924D01*
X520444D01*
Y381012D01*
X523566D01*
Y395212D01*
X509406D01*
Y395752D01*
X502936D01*
Y388112D01*
Y380472D01*
X509406D01*
Y381012D01*
X512288D01*
Y376924D01*
X509166D01*
Y376924D01*
X508866D01*
Y376924D01*
X494466D01*
Y368492D01*
X487162Y361188D01*
X486636D01*
X484706Y360389D01*
X483229Y358912D01*
X482430Y356982D01*
Y354894D01*
X483229Y352964D01*
X483602Y352592D01*
Y327660D01*
X483602Y327660D01*
X483912Y326099D01*
X484796Y324776D01*
X488860Y320712D01*
X488860Y320712D01*
X490183Y319828D01*
X491744Y319518D01*
X507458D01*
X507458Y319518D01*
X509019Y319828D01*
X509256Y319986D01*
X510526Y319307D01*
Y316078D01*
X503948D01*
Y311742D01*
X502678Y311187D01*
X502582Y311276D01*
Y312956D01*
X501783Y314886D01*
X500306Y316363D01*
X498376Y317162D01*
X496288D01*
X494358Y316363D01*
X492881Y314886D01*
X492082Y312956D01*
Y310868D01*
X492881Y308938D01*
X494358Y307461D01*
X496288Y306662D01*
X497894D01*
X498147Y306409D01*
Y304324D01*
X498364Y303232D01*
X498983Y302305D01*
X503948Y297341D01*
Y286978D01*
X518148D01*
X518301Y285771D01*
Y276849D01*
X517319Y276043D01*
X517053Y276096D01*
X517053Y276096D01*
X464554D01*
Y279218D01*
X450354D01*
Y276485D01*
X447564D01*
X447201Y277029D01*
X446291Y277636D01*
X445218Y277850D01*
X440196D01*
Y285022D01*
X449428D01*
Y302022D01*
X430428D01*
Y296178D01*
X426300D01*
Y299200D01*
X422916D01*
Y303542D01*
X425776D01*
Y317742D01*
X412346D01*
X411376Y317742D01*
X410106Y317742D01*
X407954D01*
Y376806D01*
X407644Y378367D01*
X406760Y379690D01*
X406760Y379690D01*
X404609Y381841D01*
X404734Y381966D01*
X406215Y384532D01*
X406982Y387393D01*
Y390355D01*
X406215Y393216D01*
X404734Y395782D01*
X402640Y397876D01*
X400074Y399357D01*
X397213Y400124D01*
X394251D01*
X391390Y399357D01*
X388824Y397876D01*
X386730Y395782D01*
X385249Y393216D01*
X384482Y390355D01*
Y387393D01*
X385249Y384532D01*
X386730Y381966D01*
X388824Y379872D01*
X391390Y378391D01*
X394251Y377624D01*
X397213D01*
X397274Y377640D01*
X399798Y375117D01*
Y317742D01*
X396676D01*
Y303542D01*
X410106D01*
X411076Y303542D01*
X412346Y303542D01*
X414760D01*
Y300098D01*
X413862Y299200D01*
X411900Y299200D01*
X410630Y299200D01*
X397200D01*
Y296178D01*
X375655D01*
X375654Y296178D01*
X374094Y295868D01*
X372771Y294984D01*
X372771Y294984D01*
X365858Y288071D01*
X365832Y288032D01*
X364789Y287825D01*
X363863Y287206D01*
X354035Y277379D01*
X353416Y276452D01*
X353366Y276200D01*
X337854D01*
Y257200D01*
X341616D01*
Y253056D01*
X338594D01*
Y244426D01*
X337421Y243940D01*
X334506Y246855D01*
Y252872D01*
X334196Y254433D01*
X333311Y255756D01*
X333311Y255756D01*
X325972Y263096D01*
Y264632D01*
X325758Y265705D01*
X325151Y266615D01*
X324241Y267222D01*
X323168Y267436D01*
X304968D01*
X303895Y267222D01*
X302985Y266615D01*
X302378Y265705D01*
X302164Y264632D01*
Y262163D01*
X300991Y261677D01*
X290402Y272266D01*
X229376Y333291D01*
Y344792D01*
X229640Y344863D01*
X232206Y346344D01*
X234300Y348438D01*
X235781Y351004D01*
X236548Y353865D01*
Y356827D01*
X235781Y359688D01*
X234300Y362254D01*
X232206Y364348D01*
X229640Y365829D01*
X226779Y366596D01*
X223817D01*
X220956Y365829D01*
X218390Y364348D01*
X216296Y362254D01*
X214815Y359688D01*
X214048Y356827D01*
Y353865D01*
X214815Y351004D01*
X216296Y348438D01*
X218390Y346344D01*
X220956Y344863D01*
X221220Y344792D01*
Y331602D01*
X221220Y331602D01*
X221530Y330041D01*
X222414Y328718D01*
X276499Y274634D01*
X276013Y273460D01*
X205427D01*
X205427Y273460D01*
X203866Y273150D01*
X202543Y272266D01*
X202543Y272266D01*
X199992Y269715D01*
X199108Y268392D01*
X198798Y266831D01*
X198798Y266831D01*
Y231517D01*
X198798Y231517D01*
X199108Y229956D01*
X199992Y228633D01*
X240571Y188054D01*
X240571Y188054D01*
X241894Y187170D01*
X243455Y186860D01*
X321544D01*
X321746Y185674D01*
X321746D01*
Y177241D01*
X314472Y169967D01*
X313144Y169668D01*
X312482Y170110D01*
X311702Y170265D01*
X307190D01*
X306674Y170735D01*
X306374Y170915D01*
X306082Y171110D01*
X306034Y171120D01*
X305992Y171145D01*
X305645Y171197D01*
X305302Y171265D01*
X298102D01*
X297322Y171110D01*
X296660Y170668D01*
X293760Y167768D01*
X293367Y167179D01*
X292803Y167106D01*
X292601D01*
X292038Y167179D01*
X291644Y167768D01*
X288744Y170668D01*
X288744Y170668D01*
X288082Y171110D01*
X287302Y171265D01*
X260102D01*
X259759Y171197D01*
X259412Y171145D01*
X259370Y171120D01*
X259322Y171110D01*
X259030Y170915D01*
X258730Y170735D01*
X258214Y170265D01*
X253702D01*
X252922Y170110D01*
X252260Y169668D01*
X251818Y169006D01*
X251663Y168226D01*
Y160226D01*
X251818Y159446D01*
X252260Y158784D01*
X252922Y158342D01*
X253702Y158187D01*
X257663D01*
Y156265D01*
X253702D01*
X252922Y156110D01*
X252260Y155668D01*
X251818Y155006D01*
X251663Y154226D01*
Y146226D01*
X251818Y145446D01*
X252260Y144784D01*
X252922Y144342D01*
X253702Y144187D01*
X258214D01*
X258730Y143717D01*
X259030Y143537D01*
X259322Y143342D01*
X259370Y143332D01*
X259412Y143307D01*
X259759Y143255D01*
X260102Y143187D01*
X270874D01*
Y132887D01*
X270874Y132886D01*
X271013Y132184D01*
X270865Y131826D01*
X282347D01*
X281514Y133836D01*
X279886Y135464D01*
X279030Y135819D01*
Y143187D01*
X287302D01*
X287302Y143187D01*
X288082Y143342D01*
X288744Y143784D01*
X288744Y143784D01*
X291644Y146684D01*
X291644Y146684D01*
X292038Y147273D01*
X292601Y147346D01*
X292803D01*
X293366Y147273D01*
X293760Y146684D01*
X296660Y143784D01*
X297322Y143342D01*
X298102Y143187D01*
X305302D01*
X305645Y143255D01*
X305992Y143307D01*
X306034Y143332D01*
X306082Y143342D01*
X306374Y143537D01*
X306674Y143717D01*
X307190Y144187D01*
X311702D01*
X312482Y144342D01*
X313144Y144784D01*
X313586Y145446D01*
X313741Y146226D01*
Y154226D01*
X313586Y155006D01*
X313144Y155668D01*
X313259Y157119D01*
X319556Y163416D01*
X319556Y163416D01*
X319757Y163717D01*
X327514Y171474D01*
X336146D01*
X336146Y171474D01*
X336446D01*
Y171474D01*
X337416Y171474D01*
X339703D01*
Y166707D01*
X336816D01*
Y152308D01*
X336816D01*
Y152007D01*
X336816D01*
Y137607D01*
X351016D01*
Y140729D01*
X356904D01*
Y137819D01*
X372904D01*
Y148052D01*
X375731Y150878D01*
X376904Y150393D01*
Y137819D01*
X380326D01*
Y131178D01*
X375904D01*
Y112177D01*
X392904D01*
Y131178D01*
X388482D01*
Y137819D01*
X392178D01*
X392260Y137696D01*
Y135608D01*
X393059Y133678D01*
X394536Y132201D01*
X396466Y131402D01*
X398554D01*
X400484Y132201D01*
X401916Y133633D01*
X402153Y133622D01*
X403186Y133317D01*
Y122811D01*
X411818D01*
X411890Y122739D01*
X412118Y121593D01*
X413002Y120270D01*
X471431Y61841D01*
X470945Y60668D01*
X465054D01*
Y42668D01*
X490054D01*
Y58590D01*
X534829D01*
X545577Y47841D01*
X545141Y47085D01*
X544272Y43843D01*
Y40485D01*
X545141Y37243D01*
X546819Y34335D01*
X549193Y31962D01*
X552101Y30283D01*
X555343Y29414D01*
X558701D01*
X561943Y30283D01*
X564851Y31962D01*
X567225Y34335D01*
X568903Y37243D01*
X569129Y38086D01*
X602912D01*
X602912Y38086D01*
X604473Y38396D01*
X605796Y39280D01*
X628234Y61718D01*
X647466D01*
Y79718D01*
X622466D01*
Y67486D01*
X601223Y46242D01*
X569129D01*
X568903Y47085D01*
X567225Y49993D01*
X564851Y52366D01*
X561943Y54045D01*
X558701Y54914D01*
X555343D01*
X552101Y54045D01*
X551345Y53609D01*
X539402Y65552D01*
X538079Y66436D01*
X536518Y66746D01*
X536518Y66746D01*
X487186D01*
Y87668D01*
X490054D01*
Y102467D01*
X491227Y102953D01*
X495056Y99124D01*
X494341Y97885D01*
X493472Y94643D01*
Y91285D01*
X494341Y88043D01*
X496020Y85135D01*
X498393Y82761D01*
X501301Y81083D01*
X504543Y80214D01*
X507901D01*
X511143Y81083D01*
X514051Y82761D01*
X516424Y85135D01*
X518103Y88043D01*
X518972Y91285D01*
Y94643D01*
X518103Y97885D01*
X516424Y100793D01*
X514051Y103167D01*
X511143Y104845D01*
X507901Y105714D01*
X504543D01*
X501301Y104845D01*
X501028Y104688D01*
X474077Y131638D01*
Y132588D01*
X474077Y132588D01*
X473767Y134148D01*
X472883Y135472D01*
X472883Y135472D01*
X452988Y155367D01*
X453514Y156637D01*
X459788D01*
X460568Y156792D01*
X461230Y157234D01*
X461672Y157896D01*
X461827Y158676D01*
Y162637D01*
X463749D01*
Y158676D01*
X463904Y157896D01*
X464346Y157234D01*
X465008Y156792D01*
X465788Y156637D01*
X473019D01*
X482782Y146874D01*
Y138442D01*
X496212D01*
X497182Y138442D01*
X498452Y138442D01*
X507388D01*
X507782Y138364D01*
X507782Y138364D01*
X512996D01*
X514361Y136998D01*
X514361Y136998D01*
X515684Y136114D01*
X516830Y135886D01*
X516902Y135814D01*
Y127182D01*
X531102D01*
Y131304D01*
X565468D01*
X565468Y131304D01*
X567029Y131614D01*
X568352Y132498D01*
X571629Y135775D01*
X572394Y135700D01*
X578386Y129708D01*
X578386Y129708D01*
X579709Y128824D01*
X581269Y128514D01*
X581269Y128514D01*
X624639D01*
X624639Y128514D01*
X626200Y128824D01*
X627523Y129708D01*
X632366Y134551D01*
X632366Y134551D01*
X633250Y135874D01*
X633560Y137435D01*
Y198179D01*
X633560Y198179D01*
X633372Y199124D01*
X635112Y200864D01*
X635908Y202242D01*
X637594Y202622D01*
X637780Y202494D01*
Y131983D01*
X637780Y131983D01*
X638090Y130422D01*
X638974Y129099D01*
X642182Y125891D01*
X641696Y124718D01*
X622466D01*
Y106718D01*
X641215D01*
X641601Y105448D01*
X641317Y105259D01*
X641317Y105259D01*
X638974Y102915D01*
X638090Y101592D01*
X638055Y101418D01*
X633680Y97042D01*
X619929D01*
X619703Y97885D01*
X618024Y100793D01*
X615651Y103167D01*
X612743Y104845D01*
X609501Y105714D01*
X606143D01*
X602901Y104845D01*
X599993Y103167D01*
X597620Y100793D01*
X595941Y97885D01*
X595757Y97199D01*
X594487D01*
X594303Y97885D01*
X592625Y100793D01*
X590251Y103167D01*
X587343Y104845D01*
X584101Y105714D01*
X580743D01*
X577501Y104845D01*
X574593Y103167D01*
X572220Y100793D01*
X570541Y97885D01*
X569672Y94643D01*
Y91285D01*
X570541Y88043D01*
X572220Y85135D01*
X574593Y82761D01*
X577501Y81083D01*
X580743Y80214D01*
X584101D01*
X587343Y81083D01*
X590251Y82761D01*
X592625Y85135D01*
X594303Y88043D01*
X594487Y88729D01*
X595757D01*
X595941Y88043D01*
X597620Y85135D01*
X599993Y82761D01*
X602901Y81083D01*
X606143Y80214D01*
X609501D01*
X612743Y81083D01*
X615651Y82761D01*
X618024Y85135D01*
X619703Y88043D01*
X619929Y88886D01*
X635369D01*
X635369Y88886D01*
X636930Y89196D01*
X638253Y90080D01*
X644742Y96569D01*
X645626Y97892D01*
X645661Y98067D01*
X645891Y98296D01*
X647123D01*
X647123Y98296D01*
X648684Y98607D01*
X650007Y99491D01*
X652350Y101834D01*
X652350Y101834D01*
X653234Y103157D01*
X653544Y104718D01*
Y124375D01*
X653234Y125936D01*
X652350Y127259D01*
X652350Y127259D01*
X645936Y133672D01*
Y220539D01*
X651002D01*
Y229269D01*
Y237999D01*
X643542D01*
Y234607D01*
X642369Y234121D01*
X621898Y254592D01*
Y286877D01*
X621898Y286877D01*
X621588Y288438D01*
X620704Y289761D01*
X620704Y289761D01*
X616938Y293527D01*
Y300838D01*
X618208Y301364D01*
X619202Y300370D01*
X621768Y298889D01*
X624629Y298122D01*
X627591D01*
X630452Y298889D01*
X633018Y300370D01*
X635112Y302464D01*
X636593Y305030D01*
X637360Y307891D01*
Y310853D01*
X636593Y313714D01*
X635112Y316280D01*
X633018Y318374D01*
X630452Y319855D01*
X627591Y320622D01*
X624629D01*
X621768Y319855D01*
X619202Y318374D01*
X618208Y317380D01*
X616938Y317906D01*
Y371649D01*
X625849Y380559D01*
X626086Y380423D01*
X628947Y379656D01*
X631909D01*
X634770Y380423D01*
X637336Y381904D01*
X639430Y383998D01*
X640911Y386564D01*
X641678Y389425D01*
Y392387D01*
X640911Y395248D01*
X639430Y397814D01*
X637336Y399908D01*
X634770Y401389D01*
X631909Y402156D01*
D02*
G37*
G36*
X118575Y415110D02*
X115613D01*
X112752Y414343D01*
X110186Y412862D01*
X108092Y410768D01*
X106611Y408202D01*
X105844Y405341D01*
Y402379D01*
X106611Y399518D01*
X108092Y396952D01*
X110186Y394858D01*
X112752Y393377D01*
X115613Y392610D01*
X118575D01*
X121436Y393377D01*
X124002Y394858D01*
X126096Y396952D01*
X127577Y399518D01*
X128344Y402379D01*
Y405341D01*
X127577Y408202D01*
X126096Y410768D01*
X124002Y412862D01*
X121436Y414343D01*
X118575Y415110D01*
D02*
G37*
G36*
X657380Y402696D02*
X657098D01*
Y392176D01*
X667618D01*
Y392458D01*
X666814Y395457D01*
X665262Y398145D01*
X663067Y400340D01*
X660379Y401893D01*
X657380Y402696D01*
D02*
G37*
G36*
X654558D02*
X654276D01*
X651277Y401893D01*
X648589Y400340D01*
X646394Y398145D01*
X644842Y395457D01*
X644038Y392458D01*
Y392176D01*
X654558D01*
Y402696D01*
D02*
G37*
G36*
X52684Y402590D02*
X42164D01*
Y392070D01*
X42446D01*
X45445Y392873D01*
X48133Y394426D01*
X50328Y396621D01*
X51881Y399309D01*
X52684Y402308D01*
Y402590D01*
D02*
G37*
G36*
X39624D02*
X29104D01*
Y402308D01*
X29907Y399309D01*
X31460Y396621D01*
X33655Y394426D01*
X36343Y392873D01*
X39342Y392070D01*
X39624D01*
Y402590D01*
D02*
G37*
G36*
X371884Y400664D02*
X371602D01*
Y390144D01*
X382122D01*
Y390426D01*
X381319Y393425D01*
X379766Y396113D01*
X377571Y398308D01*
X374883Y399860D01*
X371884Y400664D01*
D02*
G37*
G36*
X369062D02*
X368780D01*
X365781Y399860D01*
X363093Y398308D01*
X360898Y396113D01*
X359346Y393425D01*
X358542Y390426D01*
Y390144D01*
X369062D01*
Y400664D01*
D02*
G37*
G36*
X500396Y395752D02*
X493926D01*
Y389382D01*
X500396D01*
Y395752D01*
D02*
G37*
G36*
X883369Y405966D02*
X880407D01*
X877546Y405199D01*
X874980Y403718D01*
X872886Y401624D01*
X871405Y399058D01*
X870638Y396197D01*
Y393235D01*
X871405Y390374D01*
X872886Y387808D01*
X874980Y385714D01*
X877546Y384233D01*
X880407Y383466D01*
X883369D01*
X886230Y384233D01*
X888796Y385714D01*
X890890Y387808D01*
X892371Y390374D01*
X893138Y393235D01*
Y396197D01*
X892371Y399058D01*
X890890Y401624D01*
X888796Y403718D01*
X886230Y405199D01*
X883369Y405966D01*
D02*
G37*
G36*
X969878Y393446D02*
X959358D01*
Y382926D01*
X959640D01*
X962639Y383729D01*
X965327Y385282D01*
X967522Y387477D01*
X969075Y390165D01*
X969878Y393164D01*
Y393446D01*
D02*
G37*
G36*
X956818D02*
X946298D01*
Y393164D01*
X947101Y390165D01*
X948654Y387477D01*
X950849Y385282D01*
X953537Y383729D01*
X956536Y382926D01*
X956818D01*
Y393446D01*
D02*
G37*
G36*
X500396Y386842D02*
X493926D01*
Y380472D01*
X500396D01*
Y386842D01*
D02*
G37*
G36*
X667618Y389636D02*
X657098D01*
Y379116D01*
X657380D01*
X660379Y379920D01*
X663067Y381472D01*
X665262Y383667D01*
X666814Y386355D01*
X667618Y389354D01*
Y389636D01*
D02*
G37*
G36*
X654558D02*
X644038D01*
Y389354D01*
X644842Y386355D01*
X646394Y383667D01*
X648589Y381472D01*
X651277Y379920D01*
X654276Y379116D01*
X654558D01*
Y389636D01*
D02*
G37*
G36*
X382122Y387604D02*
X371602D01*
Y377084D01*
X371884D01*
X374883Y377887D01*
X377571Y379440D01*
X379766Y381635D01*
X381319Y384323D01*
X382122Y387322D01*
Y387604D01*
D02*
G37*
G36*
X369062D02*
X358542D01*
Y387322D01*
X359346Y384323D01*
X360898Y381635D01*
X363093Y379440D01*
X365781Y377887D01*
X368780Y377084D01*
X369062D01*
Y387604D01*
D02*
G37*
G36*
X799495Y405352D02*
X795625D01*
X791886Y404350D01*
X788534Y402415D01*
X785797Y399678D01*
X783862Y396326D01*
X782860Y392587D01*
Y388717D01*
X783862Y384978D01*
X785797Y381626D01*
X788534Y378889D01*
X791886Y376954D01*
X795625Y375952D01*
X799495D01*
X803234Y376954D01*
X806586Y378889D01*
X809323Y381626D01*
X811258Y384978D01*
X812260Y388717D01*
Y392587D01*
X811258Y396326D01*
X809323Y399678D01*
X806586Y402415D01*
X803234Y404350D01*
X799495Y405352D01*
D02*
G37*
G36*
X328125Y397838D02*
X325163D01*
X322302Y397071D01*
X319736Y395590D01*
X317642Y393496D01*
X316161Y390930D01*
X315394Y388069D01*
Y385107D01*
X316161Y382246D01*
X317642Y379680D01*
X319736Y377586D01*
X322302Y376105D01*
X325163Y375338D01*
X328125D01*
X330986Y376105D01*
X333552Y377586D01*
X335646Y379680D01*
X337127Y382246D01*
X337894Y385107D01*
Y388069D01*
X337127Y390930D01*
X335646Y393496D01*
X333552Y395590D01*
X330986Y397071D01*
X328125Y397838D01*
D02*
G37*
G36*
X226525D02*
X223563D01*
X220702Y397071D01*
X218136Y395590D01*
X216042Y393496D01*
X214561Y390930D01*
X213794Y388069D01*
Y385107D01*
X214561Y382246D01*
X216042Y379680D01*
X218136Y377586D01*
X220702Y376105D01*
X223563Y375338D01*
X226525D01*
X229386Y376105D01*
X231952Y377586D01*
X234046Y379680D01*
X235527Y382246D01*
X236294Y385107D01*
Y388069D01*
X235527Y390930D01*
X234046Y393496D01*
X231952Y395590D01*
X229386Y397071D01*
X226525Y397838D01*
D02*
G37*
G36*
X471384Y482670D02*
X440984D01*
Y458038D01*
X439838Y456892D01*
X438954Y455569D01*
X438644Y454008D01*
X438644Y454008D01*
Y397978D01*
X437439Y397283D01*
X435837Y395681D01*
X434704Y393719D01*
X434118Y391531D01*
Y389265D01*
X434704Y387077D01*
X435837Y385115D01*
X437439Y383513D01*
X439401Y382380D01*
X441589Y381794D01*
X443855D01*
X445198Y382154D01*
X449248Y378105D01*
Y373055D01*
X447978Y372522D01*
X446251Y373519D01*
X443992Y374124D01*
Y364998D01*
Y355872D01*
X444248Y355940D01*
X444906Y354802D01*
X443233Y353129D01*
X442349Y351806D01*
X442039Y350246D01*
X442039Y350245D01*
Y343144D01*
X441088Y342596D01*
X439563Y341071D01*
X438485Y339203D01*
X437927Y337120D01*
Y334964D01*
X438485Y332881D01*
X439563Y331013D01*
X441088Y329488D01*
X442956Y328410D01*
X445039Y327852D01*
X447195D01*
X449278Y328410D01*
X451146Y329488D01*
X452671Y331013D01*
X453749Y332881D01*
X454307Y334964D01*
Y337120D01*
X453749Y339203D01*
X452671Y341071D01*
X451146Y342596D01*
X450195Y343144D01*
Y348556D01*
X456210Y354571D01*
X456210Y354571D01*
X457094Y355894D01*
X457404Y357454D01*
X457404Y357455D01*
Y379794D01*
X457404Y379794D01*
X457094Y381355D01*
X456210Y382678D01*
X450966Y387922D01*
X451326Y389265D01*
Y391531D01*
X450740Y393719D01*
X449607Y395681D01*
X448005Y397283D01*
X446800Y397978D01*
Y452270D01*
X471384D01*
Y482670D01*
D02*
G37*
G36*
X424805Y386302D02*
X422539D01*
X420351Y385716D01*
X418389Y384583D01*
X416787Y382981D01*
X415654Y381019D01*
X415068Y378831D01*
Y376565D01*
X415654Y374377D01*
X416787Y372415D01*
X418389Y370813D01*
X420351Y369680D01*
X422539Y369094D01*
X424805D01*
X426993Y369680D01*
X428955Y370813D01*
X430557Y372415D01*
X431690Y374377D01*
X432276Y376565D01*
Y378831D01*
X431690Y381019D01*
X430557Y382981D01*
X428955Y384583D01*
X426993Y385716D01*
X424805Y386302D01*
D02*
G37*
G36*
X441452Y374124D02*
X439193Y373519D01*
X437108Y372315D01*
X435405Y370612D01*
X434201Y368527D01*
X433596Y366268D01*
X441452D01*
Y374124D01*
D02*
G37*
G36*
Y363728D02*
X433596D01*
X434201Y361469D01*
X435405Y359384D01*
X437108Y357681D01*
X439193Y356477D01*
X441452Y355872D01*
Y363728D01*
D02*
G37*
G36*
X650240Y359138D02*
Y351282D01*
X658096D01*
X657491Y353541D01*
X656287Y355626D01*
X654585Y357329D01*
X652499Y358533D01*
X650240Y359138D01*
D02*
G37*
G36*
X647700D02*
X645441Y358533D01*
X643355Y357329D01*
X641653Y355626D01*
X640449Y353541D01*
X639844Y351282D01*
X647700D01*
Y359138D01*
D02*
G37*
G36*
X328379Y366596D02*
X325417D01*
X322556Y365829D01*
X319990Y364348D01*
X317896Y362254D01*
X316415Y359688D01*
X315648Y356827D01*
Y353865D01*
X316415Y351004D01*
X317896Y348438D01*
X319990Y346344D01*
X322556Y344863D01*
X325417Y344096D01*
X328379D01*
X331240Y344863D01*
X333806Y346344D01*
X335900Y348438D01*
X337381Y351004D01*
X338148Y353865D01*
Y356827D01*
X337381Y359688D01*
X335900Y362254D01*
X333806Y364348D01*
X331240Y365829D01*
X328379Y366596D01*
D02*
G37*
G36*
X658096Y348742D02*
X650240D01*
Y340886D01*
X652499Y341491D01*
X654585Y342695D01*
X656287Y344398D01*
X657491Y346483D01*
X658096Y348742D01*
D02*
G37*
G36*
X647700D02*
X639844D01*
X640449Y346483D01*
X641653Y344398D01*
X643355Y342695D01*
X645441Y341491D01*
X647700Y340886D01*
Y348742D01*
D02*
G37*
G36*
X379477Y344772D02*
X372017D01*
Y337312D01*
X379477D01*
Y344772D01*
D02*
G37*
G36*
X369477D02*
X362017D01*
Y337312D01*
X369477D01*
Y344772D01*
D02*
G37*
G36*
X669153Y345916D02*
X666887D01*
X664699Y345330D01*
X662737Y344197D01*
X661135Y342595D01*
X660002Y340633D01*
X659416Y338445D01*
Y336179D01*
X660002Y333991D01*
X661135Y332029D01*
X662737Y330427D01*
X664699Y329294D01*
X666887Y328708D01*
X669153D01*
X671341Y329294D01*
X673303Y330427D01*
X674905Y332029D01*
X676038Y333991D01*
X676624Y336179D01*
Y338445D01*
X676038Y340633D01*
X674905Y342595D01*
X673303Y344197D01*
X671341Y345330D01*
X669153Y345916D01*
D02*
G37*
G36*
X379477Y334772D02*
X372017D01*
Y327312D01*
X379477D01*
Y334772D01*
D02*
G37*
G36*
X369477D02*
X362017D01*
Y327312D01*
X369477D01*
Y334772D01*
D02*
G37*
G36*
X650103Y333216D02*
X647837D01*
X645649Y332630D01*
X643687Y331497D01*
X642085Y329895D01*
X640952Y327933D01*
X640366Y325745D01*
Y323479D01*
X640952Y321291D01*
X642085Y319329D01*
X643687Y317727D01*
X645649Y316594D01*
X647837Y316008D01*
X650103D01*
X652291Y316594D01*
X654253Y317727D01*
X655855Y319329D01*
X656988Y321291D01*
X657574Y323479D01*
Y325745D01*
X656988Y327933D01*
X655855Y329895D01*
X654253Y331497D01*
X652291Y332630D01*
X650103Y333216D01*
D02*
G37*
G36*
X449968Y321562D02*
X441198D01*
Y313792D01*
X449968D01*
Y321562D01*
D02*
G37*
G36*
X438658D02*
X429888D01*
Y313792D01*
X438658D01*
Y321562D01*
D02*
G37*
G36*
X726214Y323702D02*
X725932D01*
Y313182D01*
X736452D01*
Y313464D01*
X735648Y316463D01*
X734096Y319151D01*
X731901Y321346D01*
X729213Y322898D01*
X726214Y323702D01*
D02*
G37*
G36*
X723392D02*
X723110D01*
X720111Y322898D01*
X717423Y321346D01*
X715228Y319151D01*
X713676Y316463D01*
X712872Y313464D01*
Y313182D01*
X723392D01*
Y323702D01*
D02*
G37*
G36*
X449968Y311252D02*
X441198D01*
Y303482D01*
X449968D01*
Y311252D01*
D02*
G37*
G36*
X438658D02*
X429888D01*
Y303482D01*
X438658D01*
Y311252D01*
D02*
G37*
G36*
X736452Y310642D02*
X725932D01*
Y300122D01*
X726214D01*
X729213Y300926D01*
X731901Y302478D01*
X734096Y304673D01*
X735648Y307361D01*
X736452Y310360D01*
Y310642D01*
D02*
G37*
G36*
X723392D02*
X712872D01*
Y310360D01*
X713676Y307361D01*
X715228Y304673D01*
X717423Y302478D01*
X720111Y300926D01*
X723110Y300122D01*
X723392D01*
Y310642D01*
D02*
G37*
G36*
X681185Y320622D02*
X678223D01*
X675362Y319855D01*
X672796Y318374D01*
X670702Y316280D01*
X669221Y313714D01*
X668454Y310853D01*
Y307891D01*
X669221Y305030D01*
X670702Y302464D01*
X672796Y300370D01*
X675362Y298889D01*
X678223Y298122D01*
X681185D01*
X684046Y298889D01*
X686612Y300370D01*
X688706Y302464D01*
X690187Y305030D01*
X690954Y307891D01*
Y310853D01*
X690187Y313714D01*
X688706Y316280D01*
X686612Y318374D01*
X684046Y319855D01*
X681185Y320622D01*
D02*
G37*
G36*
X653350Y312829D02*
X651194D01*
X649111Y312271D01*
X647243Y311193D01*
X645718Y309668D01*
X644640Y307800D01*
X644082Y305717D01*
Y303561D01*
X644640Y301478D01*
X645718Y299610D01*
X647243Y298085D01*
X649111Y297007D01*
X651194Y296449D01*
X653350D01*
X655433Y297007D01*
X657301Y298085D01*
X658826Y299610D01*
X659904Y301478D01*
X660462Y303561D01*
Y305717D01*
X659904Y307800D01*
X658826Y309668D01*
X657301Y311193D01*
X655433Y312271D01*
X653350Y312829D01*
D02*
G37*
G36*
X726143Y297762D02*
X723181D01*
X720320Y296995D01*
X717754Y295514D01*
X715660Y293420D01*
X714179Y290854D01*
X713412Y287993D01*
Y285031D01*
X714179Y282170D01*
X715660Y279604D01*
X717754Y277510D01*
X720320Y276029D01*
X723181Y275262D01*
X726143D01*
X729004Y276029D01*
X731570Y277510D01*
X733664Y279604D01*
X735145Y282170D01*
X735912Y285031D01*
Y287993D01*
X735145Y290854D01*
X733664Y293420D01*
X731570Y295514D01*
X729004Y296995D01*
X726143Y297762D01*
D02*
G37*
G36*
X42446Y255884D02*
X42164D01*
Y245364D01*
X52684D01*
Y245646D01*
X51881Y248645D01*
X50328Y251333D01*
X48133Y253528D01*
X45445Y255081D01*
X42446Y255884D01*
D02*
G37*
G36*
X39624D02*
X39342D01*
X36343Y255081D01*
X33655Y253528D01*
X31460Y251333D01*
X29907Y248645D01*
X29104Y245646D01*
Y245364D01*
X39624D01*
Y255884D01*
D02*
G37*
G36*
X755694Y261394D02*
X735794D01*
Y241494D01*
X755694D01*
Y261394D01*
D02*
G37*
G36*
X717253Y261694D02*
X714291D01*
X711430Y260927D01*
X708864Y259446D01*
X706770Y257352D01*
X705289Y254786D01*
X704522Y251925D01*
Y248963D01*
X705289Y246102D01*
X706770Y243536D01*
X708864Y241442D01*
X711430Y239961D01*
X714291Y239194D01*
X717253D01*
X720114Y239961D01*
X722680Y241442D01*
X724774Y243536D01*
X726255Y246102D01*
X727022Y248963D01*
Y251925D01*
X726255Y254786D01*
X724774Y257352D01*
X722680Y259446D01*
X720114Y260927D01*
X717253Y261694D01*
D02*
G37*
G36*
X959640Y248264D02*
X959358D01*
Y237744D01*
X969878D01*
Y238026D01*
X969075Y241025D01*
X967522Y243713D01*
X965327Y245908D01*
X962639Y247461D01*
X959640Y248264D01*
D02*
G37*
G36*
X956818D02*
X956536D01*
X953537Y247461D01*
X950849Y245908D01*
X948654Y243713D01*
X947101Y241025D01*
X946298Y238026D01*
Y237744D01*
X956818D01*
Y248264D01*
D02*
G37*
G36*
X118575Y255344D02*
X115613D01*
X112752Y254577D01*
X110186Y253096D01*
X108092Y251002D01*
X106611Y248436D01*
X105844Y245575D01*
Y242613D01*
X106611Y239752D01*
X108092Y237186D01*
X110186Y235092D01*
X112752Y233611D01*
X115613Y232844D01*
X118575D01*
X121436Y233611D01*
X124002Y235092D01*
X126096Y237186D01*
X127577Y239752D01*
X128344Y242613D01*
Y245575D01*
X127577Y248436D01*
X126096Y251002D01*
X124002Y253096D01*
X121436Y254577D01*
X118575Y255344D01*
D02*
G37*
G36*
X52684Y242824D02*
X42164D01*
Y232304D01*
X42446D01*
X45445Y233107D01*
X48133Y234660D01*
X50328Y236855D01*
X51881Y239543D01*
X52684Y242542D01*
Y242824D01*
D02*
G37*
G36*
X39624D02*
X29104D01*
Y242542D01*
X29907Y239543D01*
X31460Y236855D01*
X33655Y234660D01*
X36343Y233107D01*
X39342Y232304D01*
X39624D01*
Y242824D01*
D02*
G37*
G36*
X661002Y237999D02*
X653542D01*
Y230539D01*
X661002D01*
Y237999D01*
D02*
G37*
G36*
X883369Y247724D02*
X880407D01*
X877546Y246957D01*
X874980Y245476D01*
X872886Y243382D01*
X871405Y240816D01*
X870638Y237955D01*
Y234993D01*
X871405Y232132D01*
X872886Y229566D01*
X874980Y227472D01*
X877546Y225991D01*
X880407Y225224D01*
X883369D01*
X886230Y225991D01*
X888796Y227472D01*
X890890Y229566D01*
X892371Y232132D01*
X893138Y234993D01*
Y237955D01*
X892371Y240816D01*
X890890Y243382D01*
X888796Y245476D01*
X886230Y246957D01*
X883369Y247724D01*
D02*
G37*
G36*
X969878Y235204D02*
X959358D01*
Y224684D01*
X959640D01*
X962639Y225487D01*
X965327Y227040D01*
X967522Y229235D01*
X969075Y231923D01*
X969878Y234922D01*
Y235204D01*
D02*
G37*
G36*
X956818D02*
X946298D01*
Y234922D01*
X947101Y231923D01*
X948654Y229235D01*
X950849Y227040D01*
X953537Y225487D01*
X956536Y224684D01*
X956818D01*
Y235204D01*
D02*
G37*
G36*
X661002Y227999D02*
X653542D01*
Y220539D01*
X661002D01*
Y227999D01*
D02*
G37*
G36*
X681185Y219022D02*
X678223D01*
X675362Y218255D01*
X672796Y216774D01*
X670702Y214680D01*
X669221Y212114D01*
X668454Y209253D01*
Y206291D01*
X669221Y203430D01*
X670702Y200864D01*
X672796Y198770D01*
X675362Y197289D01*
X678223Y196522D01*
X681185D01*
X684046Y197289D01*
X686612Y198770D01*
X688706Y200864D01*
X690187Y203430D01*
X690954Y206291D01*
Y209253D01*
X690187Y212114D01*
X688706Y214680D01*
X686612Y216774D01*
X684046Y218255D01*
X681185Y219022D01*
D02*
G37*
G36*
X668514Y191150D02*
X666002D01*
X663576Y190500D01*
X661400Y189244D01*
X659624Y187468D01*
X658368Y185292D01*
X657718Y182866D01*
Y180354D01*
X658368Y177928D01*
X659624Y175752D01*
X661400Y173976D01*
X663576Y172720D01*
X666002Y172070D01*
X668514D01*
X670940Y172720D01*
X673116Y173976D01*
X674892Y175752D01*
X676148Y177928D01*
X676798Y180354D01*
Y182866D01*
X676148Y185292D01*
X674892Y187468D01*
X673116Y189244D01*
X670940Y190500D01*
X668514Y191150D01*
D02*
G37*
G36*
X677338Y166290D02*
X668528D01*
Y157480D01*
X677338D01*
Y166290D01*
D02*
G37*
G36*
X665988D02*
X657178D01*
Y157480D01*
X665988D01*
Y166290D01*
D02*
G37*
G36*
X747125Y158334D02*
X747014D01*
Y149114D01*
X756234D01*
Y149225D01*
X755519Y151893D01*
X754138Y154285D01*
X752185Y156238D01*
X749793Y157619D01*
X747125Y158334D01*
D02*
G37*
G36*
X744474D02*
X744363D01*
X741695Y157619D01*
X739303Y156238D01*
X737350Y154285D01*
X735969Y151893D01*
X735254Y149225D01*
Y149114D01*
X744474D01*
Y158334D01*
D02*
G37*
G36*
X677338Y154940D02*
X668528D01*
Y146130D01*
X677338D01*
Y154940D01*
D02*
G37*
G36*
X665988D02*
X657178D01*
Y146130D01*
X665988D01*
Y154940D01*
D02*
G37*
G36*
X717253Y160094D02*
X714291D01*
X711430Y159327D01*
X708864Y157846D01*
X706770Y155752D01*
X705289Y153186D01*
X704522Y150325D01*
Y147363D01*
X705289Y144502D01*
X706770Y141936D01*
X708864Y139842D01*
X711430Y138361D01*
X714291Y137594D01*
X717253D01*
X720114Y138361D01*
X722680Y139842D01*
X724774Y141936D01*
X726255Y144502D01*
X727022Y147363D01*
Y150325D01*
X726255Y153186D01*
X724774Y155752D01*
X722680Y157846D01*
X720114Y159327D01*
X717253Y160094D01*
D02*
G37*
G36*
X756234Y146574D02*
X747014D01*
Y137354D01*
X747125D01*
X749793Y138069D01*
X752185Y139450D01*
X754138Y141403D01*
X755519Y143795D01*
X756234Y146463D01*
Y146574D01*
D02*
G37*
G36*
X744474D02*
X735254D01*
Y146463D01*
X735969Y143795D01*
X737350Y141403D01*
X739303Y139450D01*
X741695Y138069D01*
X744363Y137354D01*
X744474D01*
Y146574D01*
D02*
G37*
G36*
X282347Y129286D02*
X277876D01*
Y124815D01*
X279886Y125647D01*
X281514Y127276D01*
X282347Y129286D01*
D02*
G37*
G36*
X275336D02*
X270865D01*
X271698Y127276D01*
X273326Y125647D01*
X275336Y124815D01*
Y129286D01*
D02*
G37*
G36*
X374444Y131718D02*
X366674D01*
Y122948D01*
X374444D01*
Y131718D01*
D02*
G37*
G36*
X364134D02*
X356364D01*
Y122948D01*
X364134D01*
Y131718D01*
D02*
G37*
G36*
X739006Y125258D02*
X727236D01*
Y116988D01*
X739006D01*
Y125258D01*
D02*
G37*
G36*
X724696D02*
X712926D01*
Y116988D01*
X724696D01*
Y125258D01*
D02*
G37*
G36*
X374444Y120407D02*
X366674D01*
Y111637D01*
X374444D01*
Y120407D01*
D02*
G37*
G36*
X364134D02*
X356364D01*
Y111637D01*
X364134D01*
Y120407D01*
D02*
G37*
G36*
X739006Y114448D02*
X727236D01*
Y106178D01*
X739006D01*
Y114448D01*
D02*
G37*
G36*
X724696D02*
X712926D01*
Y106178D01*
X724696D01*
Y114448D01*
D02*
G37*
G36*
X399054Y105668D02*
X374054D01*
Y87668D01*
X399054D01*
Y105668D01*
D02*
G37*
G36*
X42446Y95356D02*
X42164D01*
Y84836D01*
X52684D01*
Y85118D01*
X51881Y88117D01*
X50328Y90805D01*
X48133Y93000D01*
X45445Y94553D01*
X42446Y95356D01*
D02*
G37*
G36*
X39624D02*
X39342D01*
X36343Y94553D01*
X33655Y93000D01*
X31460Y90805D01*
X29907Y88117D01*
X29104Y85118D01*
Y84836D01*
X39624D01*
Y95356D01*
D02*
G37*
G36*
X959640Y90022D02*
X959358D01*
Y79502D01*
X969878D01*
Y79784D01*
X969075Y82783D01*
X967522Y85471D01*
X965327Y87666D01*
X962639Y89219D01*
X959640Y90022D01*
D02*
G37*
G36*
X956818D02*
X956536D01*
X953537Y89219D01*
X950849Y87666D01*
X948654Y85471D01*
X947101Y82783D01*
X946298Y79784D01*
Y79502D01*
X956818D01*
Y90022D01*
D02*
G37*
G36*
X118575Y94816D02*
X115613D01*
X112752Y94049D01*
X110186Y92568D01*
X108092Y90474D01*
X106611Y87908D01*
X105844Y85047D01*
Y82085D01*
X106611Y79224D01*
X108092Y76658D01*
X110186Y74564D01*
X112752Y73083D01*
X115613Y72316D01*
X118575D01*
X121436Y73083D01*
X124002Y74564D01*
X126096Y76658D01*
X127577Y79224D01*
X128344Y82085D01*
Y85047D01*
X127577Y87908D01*
X126096Y90474D01*
X124002Y92568D01*
X121436Y94049D01*
X118575Y94816D01*
D02*
G37*
G36*
X52684Y82296D02*
X42164D01*
Y71776D01*
X42446D01*
X45445Y72579D01*
X48133Y74132D01*
X50328Y76327D01*
X51881Y79015D01*
X52684Y82014D01*
Y82296D01*
D02*
G37*
G36*
X39624D02*
X29104D01*
Y82014D01*
X29907Y79015D01*
X31460Y76327D01*
X33655Y74132D01*
X36343Y72579D01*
X39342Y71776D01*
X39624D01*
Y82296D01*
D02*
G37*
G36*
X883369Y89482D02*
X880407D01*
X877546Y88715D01*
X874980Y87234D01*
X872886Y85140D01*
X871405Y82574D01*
X870638Y79713D01*
Y76751D01*
X871405Y73890D01*
X872886Y71324D01*
X874980Y69230D01*
X877546Y67749D01*
X880407Y66982D01*
X883369D01*
X886230Y67749D01*
X888796Y69230D01*
X890890Y71324D01*
X892371Y73890D01*
X893138Y76751D01*
Y79713D01*
X892371Y82574D01*
X890890Y85140D01*
X888796Y87234D01*
X886230Y88715D01*
X883369Y89482D01*
D02*
G37*
G36*
X969878Y76962D02*
X959358D01*
Y66442D01*
X959640D01*
X962639Y67245D01*
X965327Y68798D01*
X967522Y70993D01*
X969075Y73681D01*
X969878Y76680D01*
Y76962D01*
D02*
G37*
G36*
X956818D02*
X946298D01*
Y76680D01*
X947101Y73681D01*
X948654Y70993D01*
X950849Y68798D01*
X953537Y67245D01*
X956536Y66442D01*
X956818D01*
Y76962D01*
D02*
G37*
G36*
X738466Y79718D02*
X713466D01*
Y61718D01*
X738466D01*
Y79718D01*
D02*
G37*
G36*
X399594Y61208D02*
X387824D01*
Y52938D01*
X399594D01*
Y61208D01*
D02*
G37*
G36*
X385284D02*
X373514D01*
Y52938D01*
X385284D01*
Y61208D01*
D02*
G37*
G36*
X327300Y59436D02*
X326898D01*
Y48006D01*
X338328D01*
Y48408D01*
X337463Y51638D01*
X335790Y54534D01*
X333426Y56898D01*
X330530Y58570D01*
X327300Y59436D01*
D02*
G37*
G36*
X324358D02*
X323956D01*
X320726Y58570D01*
X317830Y56898D01*
X315466Y54534D01*
X313794Y51638D01*
X312928Y48408D01*
Y48006D01*
X324358D01*
Y59436D01*
D02*
G37*
G36*
X399594Y50398D02*
X387824D01*
Y42128D01*
X399594D01*
Y50398D01*
D02*
G37*
G36*
X385284D02*
X373514D01*
Y42128D01*
X385284D01*
Y50398D01*
D02*
G37*
G36*
X200229Y58896D02*
X197027D01*
X193934Y58067D01*
X191162Y56466D01*
X188898Y54202D01*
X187297Y51430D01*
X186468Y48337D01*
Y45135D01*
X187297Y42042D01*
X188898Y39270D01*
X191162Y37006D01*
X193934Y35405D01*
X197027Y34576D01*
X200229D01*
X203322Y35405D01*
X206094Y37006D01*
X208358Y39270D01*
X209959Y42042D01*
X210788Y45135D01*
Y48337D01*
X209959Y51430D01*
X208358Y54202D01*
X206094Y56466D01*
X203322Y58067D01*
X200229Y58896D01*
D02*
G37*
G36*
X338328Y45466D02*
X326898D01*
Y34036D01*
X327300D01*
X330530Y34901D01*
X333426Y36574D01*
X335790Y38938D01*
X337463Y41834D01*
X338328Y45064D01*
Y45466D01*
D02*
G37*
G36*
X324358D02*
X312928D01*
Y45064D01*
X313794Y41834D01*
X315466Y38938D01*
X317830Y36574D01*
X320726Y34901D01*
X323956Y34036D01*
X324358D01*
Y45466D01*
D02*
G37*
G36*
X799495Y49752D02*
X795625D01*
X791886Y48750D01*
X788534Y46815D01*
X785797Y44078D01*
X783862Y40726D01*
X782860Y36987D01*
Y33117D01*
X783862Y29378D01*
X785797Y26026D01*
X788534Y23289D01*
X791886Y21354D01*
X795625Y20352D01*
X799495D01*
X803234Y21354D01*
X806586Y23289D01*
X809323Y26026D01*
X811258Y29378D01*
X812260Y33117D01*
Y36987D01*
X811258Y40726D01*
X809323Y44078D01*
X806586Y46815D01*
X803234Y48750D01*
X799495Y49752D01*
D02*
G37*
%LPD*%
G36*
X619312Y385558D02*
X609976Y376222D01*
X609092Y374899D01*
X608782Y373338D01*
X608782Y373338D01*
Y345792D01*
X607526Y345595D01*
X606642Y346918D01*
X602200Y351360D01*
Y364592D01*
X585200D01*
Y345592D01*
X596432D01*
X599680Y342345D01*
Y335606D01*
X596658D01*
Y321206D01*
X596658D01*
Y320906D01*
X596658D01*
Y317784D01*
X592062D01*
Y320906D01*
X592062Y320906D01*
Y321206D01*
X592062D01*
X592062Y322176D01*
Y335606D01*
X584096D01*
X583570Y336876D01*
X584537Y337842D01*
X585369Y339852D01*
X579628D01*
Y342392D01*
X585369D01*
X584537Y344402D01*
X583200Y345738D01*
Y364592D01*
X571970D01*
X571484Y365765D01*
X592546Y386828D01*
X618786D01*
X619312Y385558D01*
D02*
G37*
G36*
X546874Y363604D02*
Y354972D01*
X546874D01*
Y354672D01*
X546874D01*
Y340272D01*
X550404D01*
Y338021D01*
X550150Y337641D01*
X549936Y336568D01*
Y318368D01*
X550150Y317295D01*
X550757Y316385D01*
X551667Y315778D01*
X552740Y315564D01*
X555759D01*
X560589Y310734D01*
X560589Y310734D01*
X561912Y309850D01*
X563473Y309540D01*
X563473Y309540D01*
X571907D01*
X571908Y309540D01*
X573468Y309850D01*
X574791Y310734D01*
X576689Y312631D01*
X577862Y312146D01*
Y308528D01*
X574522D01*
X574522Y308528D01*
X572961Y308218D01*
X571638Y307334D01*
X554276Y289972D01*
X552740D01*
X551667Y289758D01*
X550757Y289151D01*
X550150Y288241D01*
X549936Y287168D01*
Y268968D01*
X549377Y268287D01*
X547903D01*
X547344Y268968D01*
Y287168D01*
X547130Y288241D01*
X546523Y289151D01*
X545613Y289758D01*
X544540Y289972D01*
X540040D01*
X538967Y289758D01*
X538057Y289151D01*
X537450Y288241D01*
X537236Y287168D01*
Y282146D01*
X534644D01*
Y287168D01*
X534430Y288241D01*
X533823Y289151D01*
X532913Y289758D01*
X531840Y289972D01*
X527340D01*
X526708Y289846D01*
X525438Y290616D01*
Y299663D01*
X526203Y300456D01*
X526616Y300662D01*
X526848Y300600D01*
X527729Y298472D01*
X529358Y296843D01*
X531368Y296011D01*
Y301752D01*
X532638D01*
Y303022D01*
X538379D01*
X537547Y305032D01*
X535918Y306660D01*
X533790Y307542D01*
X533668D01*
Y315633D01*
X534212Y315996D01*
X534939Y317084D01*
X535195Y318368D01*
Y326198D01*
X529590D01*
Y328738D01*
X535195D01*
Y336568D01*
X534939Y337852D01*
X534212Y338940D01*
X533739Y339256D01*
X534124Y340526D01*
X536764D01*
X537212Y340079D01*
Y328468D01*
X537212Y328468D01*
X537236Y328345D01*
Y318368D01*
X537450Y317295D01*
X538057Y316385D01*
X538967Y315778D01*
X540040Y315564D01*
X544540D01*
X545613Y315778D01*
X546523Y316385D01*
X547130Y317295D01*
X547344Y318368D01*
Y336568D01*
X547130Y337641D01*
X546523Y338551D01*
X545613Y339158D01*
X545368Y339207D01*
Y341768D01*
X545368Y341768D01*
X545058Y343329D01*
X544174Y344652D01*
X542532Y346294D01*
Y354926D01*
X542532D01*
Y355226D01*
X542532D01*
Y366150D01*
X543802Y366676D01*
X546874Y363604D01*
D02*
G37*
G36*
X607354Y283090D02*
X606828Y281820D01*
X602590D01*
Y271780D01*
Y261740D01*
X607742D01*
Y184289D01*
X606964Y183126D01*
X606845Y182527D01*
X586264Y161946D01*
X584728D01*
X583655Y161732D01*
X583119Y161374D01*
X582647Y162081D01*
X580017Y164711D01*
X579091Y165329D01*
X577998Y165547D01*
X567378D01*
X566286Y165329D01*
X565703Y164940D01*
X564433Y165436D01*
Y178709D01*
X573261Y187538D01*
X576528D01*
X577601Y187752D01*
X578511Y188359D01*
X579118Y189269D01*
X579332Y190342D01*
Y208542D01*
X579118Y209615D01*
X578511Y210525D01*
X577601Y211132D01*
X576528Y211346D01*
X572028D01*
X571868Y211314D01*
X570979Y212432D01*
X571614Y213966D01*
Y215118D01*
X572294D01*
Y222758D01*
X574834D01*
Y215118D01*
X581304D01*
Y215658D01*
X584186D01*
Y212810D01*
X583900Y211372D01*
X583655Y211132D01*
X582745Y210525D01*
X582138Y209615D01*
X581924Y208542D01*
Y190342D01*
X582138Y189269D01*
X582745Y188359D01*
X583655Y187752D01*
X584728Y187538D01*
X589228D01*
X590301Y187752D01*
X591211Y188359D01*
X591818Y189269D01*
X592032Y190342D01*
Y200319D01*
X592056Y200442D01*
X592056Y200442D01*
Y210220D01*
X592342Y211658D01*
X592342Y211658D01*
Y215658D01*
X595464D01*
Y229858D01*
X592342D01*
Y233832D01*
X601438D01*
Y252832D01*
X590890D01*
X590185Y253888D01*
X590446Y254518D01*
X584705D01*
Y257058D01*
X590446D01*
X589613Y259067D01*
X587984Y260696D01*
X587227Y261010D01*
X587479Y262280D01*
X590820D01*
Y281280D01*
X590342D01*
Y288048D01*
X593464D01*
X593464Y288048D01*
X593764D01*
Y288048D01*
X594734Y288048D01*
X602396D01*
X607354Y283090D01*
D02*
G37*
G36*
X430428Y285022D02*
X432040D01*
Y277850D01*
X427018D01*
X425945Y277636D01*
X425035Y277029D01*
X424428Y276119D01*
X424214Y275046D01*
Y270546D01*
X424428Y269473D01*
X425035Y268563D01*
X425945Y267956D01*
X427018Y267742D01*
X445218D01*
X446291Y267956D01*
X446849Y268329D01*
X449456D01*
X450354Y267431D01*
X450354Y264818D01*
Y264072D01*
X449456Y263174D01*
X447857D01*
X447808Y263419D01*
X447201Y264329D01*
X446291Y264936D01*
X445218Y265150D01*
X427018D01*
X425945Y264936D01*
X425035Y264329D01*
X424428Y263419D01*
X424214Y262346D01*
Y257846D01*
X424428Y256773D01*
X425035Y255863D01*
X425945Y255256D01*
X427018Y255042D01*
X436995D01*
X437118Y255018D01*
X437118Y255018D01*
X450354D01*
Y250118D01*
X453376D01*
Y239654D01*
X449195Y235473D01*
X448022Y235959D01*
Y236946D01*
X447808Y238019D01*
X447201Y238929D01*
X446291Y239536D01*
X445218Y239750D01*
X440196D01*
Y242342D01*
X445218D01*
X446291Y242556D01*
X447201Y243163D01*
X447808Y244073D01*
X448022Y245146D01*
Y249646D01*
X447808Y250719D01*
X447201Y251629D01*
X446291Y252236D01*
X445218Y252450D01*
X427018D01*
X425945Y252236D01*
X425035Y251629D01*
X424428Y250719D01*
X424214Y249646D01*
Y245146D01*
X424428Y244073D01*
X425035Y243163D01*
X425945Y242556D01*
X427018Y242342D01*
X432040D01*
Y239750D01*
X427018D01*
X425945Y239536D01*
X425035Y238929D01*
X424428Y238019D01*
X424214Y236946D01*
Y232446D01*
X424428Y231373D01*
X425035Y230463D01*
X425945Y229856D01*
X427018Y229642D01*
X441705D01*
X442191Y228469D01*
X437177Y223455D01*
X435384Y224198D01*
X433296D01*
X431366Y223399D01*
X430740Y222772D01*
X426300D01*
Y225794D01*
X412870D01*
X411900Y225794D01*
X410630Y225794D01*
X408478D01*
Y249264D01*
X408478Y249264D01*
X408168Y250825D01*
X407284Y252148D01*
X398622Y260810D01*
Y262346D01*
X398408Y263419D01*
X397801Y264329D01*
X396891Y264936D01*
X395818Y265150D01*
X377618D01*
X376545Y264936D01*
X375635Y264329D01*
X375532Y264174D01*
X373854D01*
Y267971D01*
X375124Y268357D01*
X375246Y268174D01*
X376334Y267447D01*
X377618Y267192D01*
X385448D01*
Y272796D01*
X386718D01*
Y274066D01*
X399173D01*
Y275046D01*
X398917Y276330D01*
X398190Y277418D01*
X397102Y278145D01*
X395818Y278400D01*
X390158D01*
Y280116D01*
X390989Y280946D01*
X391821Y282956D01*
X386080D01*
Y285496D01*
X391821D01*
X391301Y286752D01*
X392132Y288022D01*
X397200D01*
Y285000D01*
X410630D01*
X411600Y285000D01*
X412870Y285000D01*
X426300D01*
Y288022D01*
X430428D01*
Y285022D01*
D02*
G37*
G36*
X296587Y254545D02*
X296424Y254194D01*
X295839Y253498D01*
X294518Y253760D01*
X294518Y253760D01*
X275854D01*
X275751Y253915D01*
X274841Y254522D01*
X273768Y254736D01*
X255568D01*
X254495Y254522D01*
X253585Y253915D01*
X252978Y253005D01*
X252764Y251932D01*
Y247432D01*
X252978Y246359D01*
X253585Y245449D01*
X254495Y244842D01*
X255568Y244628D01*
X273768D01*
X274841Y244842D01*
X275751Y245449D01*
X275854Y245604D01*
X292829D01*
X302164Y236268D01*
Y234732D01*
X302378Y233659D01*
X302985Y232749D01*
X303895Y232142D01*
X304968Y231928D01*
X320204D01*
X321073Y231060D01*
X320587Y229886D01*
X315338D01*
Y224282D01*
Y218678D01*
X315962D01*
Y212898D01*
X314877Y211814D01*
X314045Y209804D01*
X325527D01*
X324695Y211814D01*
X324118Y212390D01*
Y218867D01*
X324452Y218933D01*
X325540Y219660D01*
X326267Y220748D01*
X326522Y222032D01*
Y223951D01*
X327696Y224437D01*
X343287Y208845D01*
X343287Y208845D01*
X344610Y207961D01*
X346171Y207651D01*
X346171Y207651D01*
X360962D01*
X379620Y188993D01*
X379134Y187819D01*
X364904D01*
Y168820D01*
X370826D01*
Y157509D01*
X367136Y153820D01*
X356904D01*
Y148886D01*
X351016D01*
Y152007D01*
X351016D01*
Y152308D01*
X351016D01*
Y166707D01*
X347859D01*
Y171474D01*
X350846D01*
Y185674D01*
X343491D01*
X343330Y185914D01*
X343330Y185914D01*
X335422Y193822D01*
X334099Y194706D01*
X332538Y195016D01*
X332538Y195016D01*
X306830D01*
Y201168D01*
X297790D01*
X288750D01*
Y195016D01*
X287290D01*
Y211938D01*
X275058D01*
X272204Y214792D01*
Y215674D01*
X271405Y217604D01*
X271050Y217958D01*
X271576Y219228D01*
X273768D01*
X274841Y219442D01*
X275751Y220049D01*
X276358Y220959D01*
X276572Y222032D01*
Y226532D01*
X276358Y227605D01*
X275751Y228515D01*
X274841Y229122D01*
X273768Y229336D01*
X255568D01*
X254495Y229122D01*
X253585Y228515D01*
X252978Y227605D01*
X252764Y226532D01*
Y222032D01*
X252978Y220959D01*
X253585Y220049D01*
X254495Y219442D01*
X255568Y219228D01*
X260590D01*
Y216560D01*
X260900Y214999D01*
X261704Y213796D01*
Y213586D01*
X262503Y211656D01*
X263980Y210179D01*
X265910Y209380D01*
X266080D01*
X270290Y205170D01*
Y195016D01*
X245144D01*
X210700Y229461D01*
X211186Y230634D01*
X213106D01*
Y239674D01*
Y248714D01*
X206954D01*
Y250174D01*
X223876D01*
Y254224D01*
X228866D01*
Y251342D01*
X228326D01*
Y244872D01*
X235966D01*
X243606D01*
Y251342D01*
X243066D01*
Y258304D01*
X253482D01*
X253585Y258149D01*
X254495Y257542D01*
X255568Y257328D01*
X273768D01*
X274841Y257542D01*
X275751Y258149D01*
X276358Y259059D01*
X276572Y260132D01*
Y264632D01*
X277123Y265304D01*
X285829D01*
X296587Y254545D01*
D02*
G37*
G36*
X516225Y267079D02*
X516918Y265405D01*
X518395Y263928D01*
X520325Y263129D01*
X522122D01*
X523056Y262195D01*
X524214Y261421D01*
X525580Y261149D01*
X561190D01*
X562556Y261421D01*
X563713Y262195D01*
X567683Y266164D01*
X569940D01*
X570190Y266214D01*
X570816Y265044D01*
X564410Y258638D01*
X564220Y258600D01*
X562897Y257716D01*
X562897Y257716D01*
X560135Y254953D01*
X559251Y253630D01*
X558941Y252070D01*
X558941Y252070D01*
Y245246D01*
X558410Y244196D01*
X548576D01*
X547624Y245466D01*
X547769Y246196D01*
X547458Y247757D01*
X547257Y248058D01*
X547085Y248473D01*
X546503Y249232D01*
X546278Y249640D01*
X545388Y250698D01*
X533247D01*
X534080Y248688D01*
X534910Y247858D01*
Y244736D01*
X532180D01*
Y234696D01*
Y224656D01*
X535803D01*
X536422Y223162D01*
X537016Y222387D01*
X537438Y221822D01*
X537737Y221420D01*
X537761Y221367D01*
X537781Y221320D01*
X537784Y221319D01*
X537800Y221312D01*
X537800Y220198D01*
Y212405D01*
X536626Y211919D01*
X533783Y214763D01*
X532856Y215382D01*
X531764Y215599D01*
X513404D01*
X512312Y215382D01*
X511385Y214763D01*
X508567Y211944D01*
X496604D01*
Y195944D01*
X512604D01*
Y207907D01*
X514586Y209889D01*
X516604D01*
Y195944D01*
X520526D01*
Y182633D01*
X518836Y180944D01*
X504604D01*
Y161944D01*
X518836D01*
X519924Y160857D01*
Y156282D01*
X516902D01*
Y147183D01*
X516621Y146900D01*
X515632Y146332D01*
X514685Y146520D01*
X514685Y146520D01*
X511882D01*
Y152642D01*
X498452D01*
X497482Y152642D01*
X496212Y152642D01*
X488550D01*
X476720Y164472D01*
X476759Y164733D01*
X476827Y165076D01*
Y172276D01*
X476672Y173056D01*
X476230Y173718D01*
X473330Y176618D01*
X472741Y177012D01*
X472668Y177575D01*
Y177777D01*
X472741Y178340D01*
X473330Y178734D01*
X476230Y181634D01*
X476230Y181634D01*
X476672Y182296D01*
X476827Y183076D01*
Y196486D01*
X487658Y207316D01*
X488832D01*
X490960Y208197D01*
X492589Y209826D01*
X493421Y211836D01*
X487680D01*
Y213106D01*
X486410D01*
Y218847D01*
X484400Y218015D01*
X482771Y216386D01*
X481890Y214258D01*
Y213084D01*
X478000Y209194D01*
X476827Y209680D01*
Y210276D01*
X476759Y210619D01*
X476707Y210966D01*
X476682Y211008D01*
X476672Y211056D01*
X476477Y211348D01*
X476297Y211648D01*
X475827Y212164D01*
Y216676D01*
X475672Y217456D01*
X475230Y218118D01*
X474568Y218560D01*
X473788Y218715D01*
X465788D01*
X465008Y218560D01*
X464346Y218118D01*
X463904Y217456D01*
X463749Y216676D01*
Y212715D01*
X461827D01*
Y216676D01*
X461672Y217456D01*
X461230Y218118D01*
X460568Y218560D01*
X459788Y218715D01*
X451788D01*
X451008Y218560D01*
X450346Y218118D01*
X449904Y217456D01*
X449749Y216676D01*
Y212164D01*
X449279Y211648D01*
X449099Y211348D01*
X448904Y211056D01*
X448894Y211008D01*
X448869Y210966D01*
X448817Y210619D01*
X448749Y210276D01*
Y183076D01*
X448749Y183076D01*
X448904Y182296D01*
X449346Y181634D01*
X449346Y181634D01*
X452246Y178734D01*
X452246Y178734D01*
X452835Y178340D01*
X452908Y177777D01*
Y177575D01*
X452835Y177012D01*
X452246Y176618D01*
X449346Y173718D01*
X448904Y173056D01*
X448749Y172276D01*
Y165076D01*
X448817Y164733D01*
X448869Y164386D01*
X448894Y164344D01*
X448904Y164296D01*
X449099Y164004D01*
X449279Y163704D01*
X449749Y163188D01*
Y160402D01*
X448479Y159876D01*
X427469Y180886D01*
X426146Y181770D01*
X426046Y181790D01*
Y188202D01*
X422797D01*
Y192798D01*
X425792D01*
Y195820D01*
X433409D01*
X433410Y195820D01*
X434970Y196130D01*
X435413Y196426D01*
X436908D01*
X438838Y197225D01*
X440315Y198702D01*
X441114Y200632D01*
Y202720D01*
X440315Y204650D01*
X438838Y206127D01*
X436908Y206926D01*
X434820D01*
X432890Y206127D01*
X431413Y204650D01*
X431134Y203976D01*
X425792D01*
Y206998D01*
X411392D01*
X411392Y206998D01*
X411092D01*
Y206998D01*
X410122Y206998D01*
X408224D01*
Y210696D01*
X409122Y211594D01*
X411600Y211594D01*
X412870Y211594D01*
X426300D01*
Y214616D01*
X431248D01*
X431366Y214497D01*
X433296Y213698D01*
X435384D01*
X437314Y214497D01*
X437557Y214740D01*
X438184Y214616D01*
X439744Y214926D01*
X441067Y215810D01*
X460338Y235081D01*
X461222Y236404D01*
X461532Y237964D01*
X461532Y237965D01*
Y250118D01*
X464554D01*
Y263548D01*
X464554Y264518D01*
X464554Y265788D01*
Y267940D01*
X515364D01*
X516225Y267079D01*
D02*
G37*
G36*
X353416Y256948D02*
X354035Y256021D01*
X357071Y252985D01*
X357998Y252367D01*
X358028Y252360D01*
X358386Y252002D01*
X358380Y251968D01*
X358690Y250407D01*
X359574Y249084D01*
X360897Y248200D01*
X362458Y247890D01*
X367384D01*
X370091Y245183D01*
X370185Y243481D01*
X369984Y243280D01*
X369100Y241957D01*
X368790Y240396D01*
X368790Y240396D01*
Y229965D01*
X367520Y229439D01*
X366702Y230257D01*
X364772Y231056D01*
X362684D01*
X360754Y230257D01*
X360382Y229884D01*
X352794D01*
Y237386D01*
X352794Y238356D01*
X352794D01*
Y238656D01*
X352794D01*
Y253056D01*
X349772D01*
Y257200D01*
X353366D01*
X353416Y256948D01*
D02*
G37*
G36*
X637780Y227175D02*
Y213050D01*
X637594Y212922D01*
X635908Y213302D01*
X635112Y214680D01*
X633018Y216774D01*
X630452Y218255D01*
X627591Y219022D01*
X624629D01*
X621768Y218255D01*
X619202Y216774D01*
X617168Y214740D01*
X616785Y214766D01*
X615898Y215004D01*
Y247397D01*
X617072Y247883D01*
X637780Y227175D01*
D02*
G37*
G36*
X473788Y211376D02*
X474788Y210276D01*
Y183076D01*
X471888Y180176D01*
X453688D01*
X450788Y183076D01*
Y210276D01*
X451788Y211376D01*
Y216676D01*
X459788D01*
Y210676D01*
X465788D01*
Y216676D01*
X473788D01*
Y211376D01*
D02*
G37*
G36*
X382640Y226946D02*
X382640Y226946D01*
X382950Y225385D01*
X383834Y224062D01*
X385116Y222780D01*
Y221606D01*
X385998Y219478D01*
X387626Y217850D01*
X389636Y217017D01*
Y222758D01*
X392176D01*
Y217017D01*
X394186Y217850D01*
X395815Y219478D01*
X395930Y219757D01*
X397200Y219504D01*
Y211594D01*
X400068D01*
Y206998D01*
X396692D01*
Y201399D01*
X395422Y200882D01*
X376946Y219358D01*
Y228540D01*
X377618Y229091D01*
X382640D01*
Y226946D01*
D02*
G37*
G36*
X348160Y222922D02*
X349483Y222038D01*
X351044Y221728D01*
X360382D01*
X360754Y221355D01*
X362684Y220556D01*
X364772D01*
X366702Y221355D01*
X367520Y222173D01*
X368790Y221647D01*
Y217668D01*
X368790Y217668D01*
X369100Y216108D01*
X369984Y214785D01*
X388826Y195943D01*
Y192982D01*
X387652Y192496D01*
X365535Y214613D01*
X364212Y215497D01*
X362651Y215807D01*
X362651Y215807D01*
X347860D01*
X340885Y222783D01*
X341371Y223956D01*
X347126D01*
X348160Y222922D01*
D02*
G37*
G36*
X474788Y172276D02*
Y165076D01*
X473788Y163976D01*
Y158676D01*
X465788D01*
Y164676D01*
X459788D01*
Y158676D01*
X451788D01*
Y163976D01*
X450788Y165076D01*
Y172276D01*
X453688Y175176D01*
X471888D01*
X474788Y172276D01*
D02*
G37*
G36*
X306402Y168226D02*
X311702D01*
Y160226D01*
X305702D01*
Y154226D01*
X311702D01*
Y146226D01*
X306402D01*
X305302Y145226D01*
X298102D01*
X295202Y148126D01*
Y166326D01*
X298102Y169226D01*
X305302D01*
X306402Y168226D01*
D02*
G37*
G36*
X290202Y166326D02*
Y148126D01*
X287302Y145226D01*
X260102D01*
X259002Y146226D01*
X253702D01*
Y154226D01*
X259702D01*
Y160226D01*
X253702D01*
Y168226D01*
X259002D01*
X260102Y169226D01*
X287302D01*
X290202Y166326D01*
D02*
G37*
G36*
X607942Y170429D02*
Y165862D01*
X617982D01*
Y164592D01*
X619252D01*
Y155552D01*
X625404D01*
Y154092D01*
X608482D01*
Y148447D01*
X601370D01*
X600277Y148230D01*
X599351Y147611D01*
X593302Y141561D01*
X592032Y142087D01*
Y156178D01*
X606769Y170915D01*
X607942Y170429D01*
D02*
G37*
G36*
X397020Y166504D02*
X397020Y166504D01*
X398343Y165619D01*
X399904Y165309D01*
X411849D01*
X415597Y161561D01*
X415111Y160387D01*
X403538D01*
Y147155D01*
X398285Y141902D01*
X396466D01*
X394536Y141103D01*
X394174Y140741D01*
X392904Y141267D01*
Y153820D01*
X389555D01*
Y166046D01*
X389788Y166279D01*
X389788Y166279D01*
X390672Y167602D01*
X390982Y169163D01*
Y170882D01*
X392156Y171368D01*
X397020Y166504D01*
D02*
G37*
G36*
X534220Y205502D02*
X534223Y190391D01*
X534172Y190340D01*
X534172D01*
X534596Y187118D01*
X535840Y184114D01*
X537820Y181534D01*
X540400Y179554D01*
X543404Y178310D01*
X546628Y177885D01*
Y177937D01*
X551128D01*
Y177885D01*
X554352Y178310D01*
X557356Y179554D01*
X557453Y179629D01*
X558723Y179002D01*
Y161826D01*
X558255Y161732D01*
X557345Y161125D01*
X556738Y160215D01*
X556524Y159142D01*
Y140942D01*
X555509Y140472D01*
X555454Y140497D01*
X554482Y141574D01*
Y148772D01*
X548878D01*
X543274D01*
Y140942D01*
X543316Y140730D01*
X542273Y139460D01*
X531388D01*
X531102Y140730D01*
X531102Y141582D01*
X531102D01*
Y141882D01*
X531102D01*
Y156282D01*
X528080D01*
Y162546D01*
X527770Y164107D01*
X526886Y165430D01*
X526886Y165430D01*
X524604Y167712D01*
Y175176D01*
X527488Y178060D01*
X527488Y178060D01*
X528372Y179383D01*
X528682Y180944D01*
Y195944D01*
X532604D01*
Y205094D01*
X533874Y205748D01*
X534220Y205502D01*
D02*
G37*
G36*
X465921Y130898D02*
Y129949D01*
X465921Y129949D01*
X466231Y128388D01*
X467115Y127065D01*
X487339Y106841D01*
X486853Y105668D01*
X465054D01*
Y87668D01*
X479030D01*
Y67475D01*
X477760Y67048D01*
X423170Y121638D01*
X423656Y122811D01*
X432286D01*
Y137011D01*
X429164D01*
Y141388D01*
X439538D01*
Y155622D01*
X440711Y156108D01*
X465921Y130898D01*
D02*
G37*
%LPC*%
G36*
X538379Y300482D02*
X533908D01*
Y296011D01*
X535918Y296843D01*
X537547Y298472D01*
X538379Y300482D01*
D02*
G37*
G36*
X600050Y281820D02*
X592280D01*
Y273050D01*
X600050D01*
Y281820D01*
D02*
G37*
G36*
Y270510D02*
X592280D01*
Y261740D01*
X600050D01*
Y270510D01*
D02*
G37*
G36*
X399173Y271526D02*
X387988D01*
Y267192D01*
X395818D01*
X397102Y267447D01*
X398190Y268174D01*
X398917Y269262D01*
X399173Y270546D01*
Y271526D01*
D02*
G37*
G36*
X224416Y248714D02*
X215646D01*
Y240944D01*
X224416D01*
Y248714D01*
D02*
G37*
G36*
X273768Y242586D02*
X265938D01*
Y238252D01*
X277122D01*
Y239232D01*
X276867Y240516D01*
X276140Y241604D01*
X275052Y242331D01*
X273768Y242586D01*
D02*
G37*
G36*
X263398D02*
X255568D01*
X254284Y242331D01*
X253196Y241604D01*
X252469Y240516D01*
X252213Y239232D01*
Y238252D01*
X263398D01*
Y242586D01*
D02*
G37*
G36*
X243606Y242332D02*
X237236D01*
Y235862D01*
X243606D01*
Y242332D01*
D02*
G37*
G36*
X234696D02*
X228326D01*
Y235862D01*
X234696D01*
Y242332D01*
D02*
G37*
G36*
X277122Y235712D02*
X265938D01*
Y231378D01*
X273768D01*
X275052Y231633D01*
X276140Y232360D01*
X276867Y233448D01*
X277122Y234732D01*
Y235712D01*
D02*
G37*
G36*
X263398D02*
X252213D01*
Y234732D01*
X252469Y233448D01*
X253196Y232360D01*
X254284Y231633D01*
X255568Y231378D01*
X263398D01*
Y235712D01*
D02*
G37*
G36*
X224416Y238404D02*
X215646D01*
Y230634D01*
X224416D01*
Y238404D01*
D02*
G37*
G36*
X312798Y229886D02*
X304968D01*
X303684Y229631D01*
X302596Y228904D01*
X301869Y227816D01*
X301614Y226532D01*
Y225552D01*
X312798D01*
Y229886D01*
D02*
G37*
G36*
Y223012D02*
X301614D01*
Y222032D01*
X301869Y220748D01*
X302596Y219660D01*
X303684Y218933D01*
X304968Y218678D01*
X312798D01*
Y223012D01*
D02*
G37*
G36*
X306830Y212478D02*
X299060D01*
Y203708D01*
X306830D01*
Y212478D01*
D02*
G37*
G36*
X296520D02*
X288750D01*
Y203708D01*
X296520D01*
Y212478D01*
D02*
G37*
G36*
X325527Y207264D02*
X321056D01*
Y202793D01*
X323066Y203626D01*
X324695Y205254D01*
X325527Y207264D01*
D02*
G37*
G36*
X318516D02*
X314045D01*
X314877Y205254D01*
X316506Y203626D01*
X318516Y202793D01*
Y207264D01*
D02*
G37*
G36*
X540258Y257709D02*
Y253238D01*
X544729D01*
X543896Y255248D01*
X542268Y256877D01*
X540258Y257709D01*
D02*
G37*
G36*
X537718D02*
X535708Y256877D01*
X534080Y255248D01*
X533247Y253238D01*
X537718D01*
Y257709D01*
D02*
G37*
G36*
X529640Y244736D02*
X521870D01*
Y235966D01*
X529640D01*
Y244736D01*
D02*
G37*
G36*
Y233426D02*
X521870D01*
Y224656D01*
X529640D01*
Y233426D01*
D02*
G37*
G36*
X488950Y218847D02*
Y214376D01*
X493421D01*
X492589Y216386D01*
X490960Y218015D01*
X488950Y218847D01*
D02*
G37*
G36*
X616712Y163322D02*
X607942D01*
Y155552D01*
X616712D01*
Y163322D01*
D02*
G37*
G36*
X551180Y175413D02*
Y170942D01*
X555651D01*
X554818Y172952D01*
X553190Y174580D01*
X551180Y175413D01*
D02*
G37*
G36*
X548640D02*
X546630Y174580D01*
X545001Y172952D01*
X544169Y170942D01*
X548640D01*
Y175413D01*
D02*
G37*
G36*
X555651Y168402D02*
X544169D01*
X544800Y166880D01*
Y161877D01*
X544256Y161514D01*
X543529Y160426D01*
X543274Y159142D01*
Y151312D01*
X548878D01*
X554482D01*
Y159142D01*
X554227Y160426D01*
X553500Y161514D01*
X552956Y161877D01*
Y164667D01*
X553190Y164764D01*
X554818Y166392D01*
X555651Y168402D01*
D02*
G37*
%LPD*%
D17*
X386554Y51668D02*
D03*
Y96668D02*
D03*
X477554D02*
D03*
Y51668D02*
D03*
X634966Y115718D02*
D03*
Y70718D02*
D03*
X725966D02*
D03*
Y115718D02*
D03*
D18*
X384404Y121678D02*
D03*
X365404D02*
D03*
X297790Y202438D02*
D03*
X278790D02*
D03*
X346354Y266700D02*
D03*
X365354D02*
D03*
X431038Y150887D02*
D03*
X412038D02*
D03*
X574700Y355092D02*
D03*
X593700D02*
D03*
X582320Y271780D02*
D03*
X601320D02*
D03*
X573938Y243332D02*
D03*
X592938D02*
D03*
X549910Y234696D02*
D03*
X530910D02*
D03*
D19*
X343916Y144808D02*
D03*
Y159508D02*
D03*
X235966Y258302D02*
D03*
Y243602D02*
D03*
X457454Y257318D02*
D03*
Y272018D02*
D03*
X345694Y231156D02*
D03*
Y245856D02*
D03*
X511048Y308878D02*
D03*
Y294178D02*
D03*
X535432Y347726D02*
D03*
Y362426D02*
D03*
X553974Y362172D02*
D03*
Y347472D02*
D03*
X584962Y328406D02*
D03*
Y313706D02*
D03*
X603758Y328406D02*
D03*
Y313706D02*
D03*
X524002Y134382D02*
D03*
Y149082D02*
D03*
D20*
X328946Y178573D02*
D03*
X343646D02*
D03*
X403876Y310642D02*
D03*
X418576D02*
D03*
X404400Y292100D02*
D03*
X419100D02*
D03*
Y218694D02*
D03*
X404400D02*
D03*
X403892Y199898D02*
D03*
X418592D02*
D03*
X404146Y181102D02*
D03*
X418846D02*
D03*
X410386Y129911D02*
D03*
X425086D02*
D03*
X501666Y369824D02*
D03*
X516366D02*
D03*
Y388112D02*
D03*
X501666D02*
D03*
X586264Y295148D02*
D03*
X600964D02*
D03*
X573564Y222758D02*
D03*
X588264D02*
D03*
X504682Y145542D02*
D03*
X489982D02*
D03*
D21*
X384904Y145820D02*
D03*
X364904D02*
D03*
X504604Y203944D02*
D03*
X524604D02*
D03*
D22*
X374904Y178319D02*
D03*
X514604Y171444D02*
D03*
D23*
X214376Y258674D02*
D03*
Y239674D02*
D03*
X439928Y312522D02*
D03*
Y293522D02*
D03*
X514858Y348996D02*
D03*
Y329996D02*
D03*
X617982Y164592D02*
D03*
Y145592D02*
D03*
D24*
X314068Y224282D02*
D03*
Y236982D02*
D03*
Y249682D02*
D03*
Y262382D02*
D03*
X264668D02*
D03*
Y249682D02*
D03*
Y236982D02*
D03*
Y224282D02*
D03*
X386718Y272796D02*
D03*
Y260096D02*
D03*
Y247396D02*
D03*
Y234696D02*
D03*
X436118D02*
D03*
Y247396D02*
D03*
Y260096D02*
D03*
Y272796D02*
D03*
D25*
X548878Y150042D02*
D03*
X561578D02*
D03*
X574278D02*
D03*
X586978D02*
D03*
Y199442D02*
D03*
X574278D02*
D03*
X561578D02*
D03*
X548878D02*
D03*
X567690Y278068D02*
D03*
X554990D02*
D03*
X542290D02*
D03*
X529590D02*
D03*
Y327468D02*
D03*
X542290D02*
D03*
X554990D02*
D03*
X567690D02*
D03*
D43*
X182626Y466598D02*
D03*
X385826D02*
D03*
X182024Y523588D02*
D03*
X385224D02*
D03*
X181864Y580136D02*
D03*
X385064D02*
D03*
X822198Y571500D02*
D03*
X618998D02*
D03*
X821944Y458978D02*
D03*
X618744D02*
D03*
X821944Y515366D02*
D03*
X618744D02*
D03*
D53*
X543690Y246196D02*
G03*
X543158Y247014I-3593J-1758D01*
G01*
X543410Y246196D02*
G03*
X539410Y242196I0J-4000D01*
G01*
X556915Y221799D02*
G03*
X555878Y219112I2963J-2687D01*
G01*
X539410Y227196D02*
G03*
X540650Y224301I4000J0D01*
G01*
X551128Y185592D02*
G03*
X555878Y190342I0J4750D01*
G01*
X541878D02*
G03*
X546628Y185592I4750J0D01*
G01*
X541878Y221417D02*
G03*
X540650Y224301I-4000J0D01*
G01*
X567456Y233420D02*
G03*
X568733Y235630I-4437J4038D01*
G01*
X530910Y234696D02*
G03*
X538988Y242774I0J8078D01*
G01*
X529590Y304800D02*
G03*
X532638Y301752I3048J0D01*
G01*
X543410Y246196D02*
X543690D01*
X543690D01*
X538988Y242774D02*
Y251968D01*
X539410Y227196D02*
Y242196D01*
X538988Y251968D02*
X543158Y247014D01*
X276606Y130556D02*
Y131233D01*
X274952Y132886D02*
Y157226D01*
Y132886D02*
X276606Y131233D01*
X470000Y195426D02*
X487680Y213106D01*
X462788Y195426D02*
X470000D01*
X565346Y214640D02*
X565824Y215118D01*
X561578Y199442D02*
Y206292D01*
X565346Y210060D01*
Y214640D01*
X548878Y150042D02*
Y167964D01*
X549910Y168995D01*
Y169672D01*
X386080Y273434D02*
Y284226D01*
Y273434D02*
X386718Y272796D01*
X320040Y208788D02*
Y223282D01*
X319786Y208534D02*
X320040Y208788D01*
X319040Y224282D02*
X320040Y223282D01*
X314068Y224282D02*
X319040D01*
X404246Y181102D02*
X409144Y186000D01*
Y189097D02*
X409623Y189575D01*
X404146Y181102D02*
X404246D01*
X409144Y186000D02*
Y189097D01*
X574016Y340644D02*
X579150D01*
X579628Y341122D01*
X567690Y327468D02*
Y334318D01*
X574016Y340644D01*
X386718Y226946D02*
X390906Y222758D01*
X386718Y226946D02*
Y234696D01*
X611820Y182653D02*
Y284392D01*
X610732Y180646D02*
Y181565D01*
X617982Y164592D02*
Y178562D01*
X586978Y156892D02*
X610732Y180646D01*
Y181565D02*
X611820Y182653D01*
X573938Y243332D02*
Y244332D01*
X584226Y254620D02*
Y255309D01*
X584705Y255788D01*
X573938Y244332D02*
X584226Y254620D01*
X541878Y190342D02*
Y221417D01*
X555878Y190342D02*
Y219112D01*
X546628Y185592D02*
X551128D01*
X556915Y221799D02*
X567456Y233420D01*
X569438Y237832D02*
X573938Y243332D01*
X568733Y235630D02*
X569438Y237832D01*
X529590Y304800D02*
Y327468D01*
X397510Y136652D02*
X397988Y137130D01*
X399281D01*
X412038Y149888D01*
Y150887D01*
X442722Y454008D02*
X456184Y467470D01*
X442722Y390398D02*
Y454008D01*
X418838Y292362D02*
Y310380D01*
Y292362D02*
X419100Y292100D01*
X418576Y310642D02*
X418838Y310380D01*
X446117Y350246D02*
X453326Y357454D01*
Y379794D01*
X446117Y336042D02*
Y350246D01*
X442722Y390398D02*
X453326Y379794D01*
X403876Y310642D02*
Y376806D01*
X395732Y384950D02*
X403876Y376806D01*
X395732Y384950D02*
Y388874D01*
X457454Y272018D02*
X517053D01*
X520692Y268379D01*
X521369D01*
X419100Y218694D02*
X434340D01*
X372868Y217668D02*
X392904Y197632D01*
X372868Y217668D02*
Y240396D01*
X348794Y227956D02*
X348894D01*
X351044Y225806D01*
X345694Y231056D02*
Y231156D01*
Y231056D02*
X348794Y227956D01*
X351044Y225806D02*
X363728D01*
X346171Y211729D02*
X362651D01*
X386904Y169163D02*
Y187476D01*
X362651Y211729D02*
X386904Y187476D01*
X320918Y236982D02*
X346171Y211729D01*
X392904Y176387D02*
Y197632D01*
X266776Y214452D02*
X273290Y207938D01*
X225298Y331602D02*
X287518Y269382D01*
X343546Y178573D02*
X343646D01*
X340446Y181674D02*
Y183030D01*
X332538Y190938D02*
X340446Y183030D01*
X243455Y190938D02*
X332538D01*
X202876Y231517D02*
Y266831D01*
X205427Y269382D01*
X287518D01*
X340446Y181674D02*
X343546Y178573D01*
X287518Y269382D02*
X307218Y249682D01*
X314068D01*
X202876Y231517D02*
X243455Y190938D01*
X316672Y166400D02*
X328846Y178573D01*
X307598Y157226D02*
X316672Y166300D01*
Y166400D01*
X307218Y236982D02*
X314068D01*
X294518Y249682D02*
X307218Y236982D01*
X264668Y249682D02*
X294518D01*
X314068Y236982D02*
X320918D01*
X330428Y245166D02*
Y252872D01*
Y245166D02*
X338937Y236656D01*
X340294D01*
X320918Y262382D02*
X330428Y252872D01*
X314068Y262382D02*
X320918D01*
X340294Y236656D02*
X345694Y231256D01*
X385477Y146392D02*
Y167735D01*
X386904Y169163D01*
X384904Y145820D02*
X385477Y146392D01*
X392904Y176387D02*
X399904Y169387D01*
X363892Y144808D02*
X364904Y145820D01*
X374904Y155820D01*
Y178319D01*
X214376Y258674D02*
X214748Y258302D01*
X235966D01*
Y258402D01*
X239946Y262382D02*
X264668D01*
X235966Y258402D02*
X239946Y262382D01*
X278790Y202438D02*
Y203438D01*
X264668Y216560D02*
Y224282D01*
X273290Y207938D02*
X274290D01*
X278790Y203438D01*
X225298Y331602D02*
Y355346D01*
X345694Y231156D02*
Y231256D01*
X368742Y285187D02*
X375654Y292100D01*
X372868Y240396D02*
X379868Y247396D01*
X362458Y251968D02*
X369073D01*
X345694Y266040D02*
X346354Y266700D01*
X345694Y245856D02*
Y266040D01*
X399904Y169387D02*
X413538D01*
X431038Y150887D02*
Y151888D01*
X413538Y169387D02*
X431038Y151888D01*
X393568Y260096D02*
X404400Y249264D01*
Y218694D02*
Y249264D01*
X404146Y218440D02*
X404400Y218694D01*
X403892Y199898D02*
X404146Y200152D01*
Y218440D01*
X438184Y218694D02*
X457454Y237964D01*
Y257318D01*
X373646Y247396D02*
X379868D01*
X431038Y149888D02*
Y150887D01*
X379868Y247396D02*
X386718D01*
X418592Y199898D02*
X433410D01*
X435187Y201676D01*
X435864D01*
X418592Y199898D02*
X418719Y199771D01*
Y181229D02*
X418846Y181102D01*
X418719Y181229D02*
Y199771D01*
X469999Y129949D02*
X506222Y93726D01*
X421946Y178002D02*
X424585D01*
X506222Y92964D02*
Y93726D01*
X469999Y129949D02*
Y132588D01*
X424585Y178002D02*
X469999Y132588D01*
X418846Y181102D02*
X421946Y178002D01*
X375654Y292100D02*
X404500D01*
X365354Y265700D02*
X370958Y260096D01*
X365354Y265700D02*
Y266700D01*
X370958Y260096D02*
X386718D01*
X369073Y251968D02*
X373646Y247396D01*
X483108Y62668D02*
X536518D01*
X476372D02*
X483108D01*
X477554Y96668D02*
X478108D01*
X483108Y91668D01*
Y62668D02*
Y91668D01*
X536518Y62668D02*
X557022Y42164D01*
X415886Y123154D02*
X476372Y62668D01*
X410486Y129911D02*
X415886Y124511D01*
Y123154D02*
Y124511D01*
X410386Y129911D02*
X410486D01*
X386718Y260096D02*
X393568D01*
X436118D02*
X437118Y259096D01*
X455676D01*
X457454Y257318D01*
X436118Y234696D02*
Y247396D01*
Y289712D02*
X438506Y292100D01*
X419100D02*
X438506D01*
X439928Y293522D01*
X436507Y272407D02*
X457065D01*
X457454Y272018D01*
X436118Y272796D02*
X436507Y272407D01*
X436118Y272796D02*
Y289712D01*
X300452Y157226D02*
X307598D01*
X328846Y178573D02*
X328946D01*
X343646D02*
X343781Y178438D01*
Y159642D02*
X343916Y159508D01*
X343781Y159642D02*
Y178438D01*
X343916Y144808D02*
X363892D01*
X425086Y129911D02*
Y143935D01*
X431038Y149888D01*
X384404Y145319D02*
X384904Y145820D01*
X384404Y121678D02*
Y145319D01*
X489882Y145542D02*
X489982D01*
X469384Y166040D02*
X489882Y145542D01*
X469384Y166040D02*
Y170472D01*
X468884Y170972D02*
X469384Y170472D01*
X517245Y139882D02*
X518602D01*
X629482Y137435D02*
Y198179D01*
X628884Y198776D02*
Y204998D01*
X574278Y143192D02*
Y144192D01*
X514685Y142442D02*
X517245Y139882D01*
X575278Y138583D02*
X581269Y132592D01*
X624639D01*
X574278Y150042D02*
X575278Y149042D01*
X572278Y142192D02*
X573278D01*
X507782Y142442D02*
X514685D01*
X573278Y142192D02*
X574278Y143192D01*
X624639Y132592D02*
X629482Y137435D01*
X626110Y207772D02*
X628884Y204998D01*
X575278Y138583D02*
Y149042D01*
X628884Y198776D02*
X629482Y198179D01*
X525002Y135382D02*
X565468D01*
X524002Y134382D02*
X525002Y135382D01*
X565468D02*
X572278Y142192D01*
X524002Y134382D02*
Y134482D01*
X504682Y145542D02*
X507782Y142442D01*
X518602Y139882D02*
X524002Y134482D01*
X498094Y353314D02*
X498770D01*
X504953Y359496D01*
X600864Y295148D02*
X600964D01*
X597764Y298248D02*
X600864Y295148D01*
X592919Y304450D02*
X597764Y299605D01*
X574522Y304450D02*
X592919D01*
X554990Y284918D02*
X574522Y304450D01*
X554990Y278068D02*
Y284918D01*
X597764Y298248D02*
Y299605D01*
X583064Y298248D02*
X586164Y295148D01*
X586264D01*
X576690Y285674D02*
X586164Y295148D01*
X571908Y313618D02*
X575056Y316767D01*
Y319757D01*
X504953Y359496D02*
X521995D01*
X524925Y362426D01*
X535432D01*
X487680Y327660D02*
X491744Y323596D01*
X513858Y329996D02*
X514858D01*
X507458Y323596D02*
X513858Y329996D01*
X491744Y323596D02*
X507458D01*
X487680Y327660D02*
Y355938D01*
X501566Y369824D01*
X641858Y99453D02*
Y100032D01*
X649466Y104718D02*
Y124375D01*
X644201Y102375D02*
X647123D01*
X641858Y100032D02*
X644201Y102375D01*
X647123D02*
X649466Y104718D01*
X641858Y131983D02*
Y228864D01*
Y131983D02*
X649466Y124375D01*
X617820Y252902D02*
X641858Y228864D01*
X635369Y92964D02*
X641858Y99453D01*
X612860Y373338D02*
X630428Y390906D01*
X612860Y291837D02*
Y373338D01*
Y291837D02*
X617820Y286877D01*
Y252902D02*
Y286877D01*
X607822Y92964D02*
X635369D01*
X631466Y70718D02*
X634966D01*
X557022Y42164D02*
X602912D01*
X631466Y70718D01*
X501566Y369824D02*
X501666D01*
X565074Y365123D02*
X590857Y390906D01*
X553974Y362172D02*
X556925Y365123D01*
X565074D01*
X590857Y390906D02*
X630428D01*
X526873Y369824D02*
X528675Y371626D01*
X516366Y369824D02*
X526873D01*
X553974Y362172D02*
Y362272D01*
X544620Y371626D02*
X553974Y362272D01*
X528675Y371626D02*
X544620D01*
X516366Y369824D02*
Y388112D01*
X516128Y347726D02*
X535432D01*
X514858Y348996D02*
X516128Y347726D01*
X541290Y328468D02*
Y341768D01*
Y328468D02*
X542290Y327468D01*
X535432Y347626D02*
X541290Y341768D01*
X535432Y347626D02*
Y347726D01*
X574700Y354092D02*
Y355092D01*
X553974Y347472D02*
X568080D01*
X574700Y354092D01*
X554482Y327976D02*
X554990Y327468D01*
X554482Y327976D02*
Y346964D01*
X553974Y347472D02*
X554482Y346964D01*
X554990Y320618D02*
X555990Y319618D01*
X557472D02*
X563473Y313618D01*
X571908D01*
X575056Y319757D02*
X578205Y322906D01*
X579562D01*
X584962Y328306D01*
Y328406D01*
X554990Y320618D02*
Y327468D01*
X555990Y319618D02*
X557472D01*
X593700Y354092D02*
X603758Y344034D01*
X593700Y354092D02*
Y355092D01*
X603758Y328406D02*
Y344034D01*
X584962Y313706D02*
X603758D01*
X602361Y312309D02*
X603758Y313706D01*
X602361Y296545D02*
Y312309D01*
X600964Y295148D02*
X602361Y296545D01*
X514604Y309356D02*
Y329742D01*
X567690Y278068D02*
Y284674D01*
X568690Y285674D01*
X576690D01*
X586264Y275724D02*
Y295148D01*
X582320Y271780D02*
X586264Y275724D01*
X563019Y252070D02*
X565781Y254832D01*
X566372D02*
X582320Y270780D01*
Y271780D01*
X549910Y234696D02*
X560257D01*
X563019Y237458D01*
Y252070D01*
X565781Y254832D02*
X566372D01*
X514604Y171444D02*
X515104D01*
X524604Y180944D02*
Y203944D01*
X515104Y171444D02*
X524604Y180944D01*
X548878Y199442D02*
Y233664D01*
X549910Y234696D01*
X588264Y222758D02*
Y237658D01*
X592938Y242332D01*
Y243332D01*
X587978Y211372D02*
X588264Y211658D01*
Y222758D01*
X586978Y199442D02*
X587978Y200442D01*
Y211372D01*
X600964Y295148D02*
X601064D01*
X611820Y284392D01*
X586978Y150042D02*
Y156892D01*
X524002Y149082D02*
Y162546D01*
X515104Y171444D02*
X524002Y162546D01*
X529590Y278068D02*
X542290D01*
D54*
X561008Y186792D02*
G03*
X559636Y185983I18J-1600D01*
G01*
X537078Y190340D02*
G03*
X546628Y180792I9550J2D01*
G01*
X537075Y206771D02*
G03*
X536615Y207893I-1600J-0D01*
G01*
X551128Y180792D02*
G03*
X559428Y185619I0J9550D01*
G01*
X561008Y186792D02*
X561017Y186792D01*
X559428Y185619D02*
X559636Y185983D01*
X546628Y180792D02*
X551128D01*
X537075Y206771D02*
X537078Y190340D01*
X561017Y186792D02*
X568478D01*
X531764Y212744D02*
X536609Y207898D01*
X536615Y207893D01*
X356054Y258040D02*
Y275360D01*
X365882Y285187D01*
X356054Y258040D02*
X359090Y255004D01*
X359422D02*
X362458Y251968D01*
X359090Y255004D02*
X359422D01*
X365882Y285187D02*
X368742D01*
X501002Y304324D02*
X511048Y294278D01*
X501002Y304324D02*
Y307592D01*
X593170Y137392D02*
X601370Y145592D01*
X580628Y140022D02*
X583258Y137392D01*
X580628Y140022D02*
Y160063D01*
X583258Y137392D02*
X593170D01*
X497332Y311262D02*
X501002Y307592D01*
X497332Y311262D02*
Y311912D01*
X511048Y294178D02*
Y294278D01*
X498364Y333502D02*
X513858Y348996D01*
X497840Y332994D02*
X498348Y333502D01*
X513858Y348996D02*
X514858D01*
X498348Y333502D02*
X498364D01*
X561578Y179892D02*
X568478Y186792D01*
X574278Y192592D02*
Y194242D01*
X568478Y186792D02*
X574278Y192592D01*
X504604Y203944D02*
X513404Y212744D01*
X531764D01*
X561578Y156892D02*
Y179892D01*
Y150042D02*
Y156892D01*
X567378Y162692D01*
X577998D01*
X580628Y160063D01*
X601370Y145592D02*
X617982D01*
D55*
X274952Y157226D02*
D03*
X300452D02*
D03*
D56*
X462788Y195426D02*
D03*
Y169926D02*
D03*
D57*
X519066Y302878D02*
X521869Y300075D01*
Y268428D02*
Y300075D01*
X516948Y302878D02*
X519066D01*
X511048Y308778D02*
Y308878D01*
Y308778D02*
X516948Y302878D01*
X521869Y268428D02*
X525580Y264718D01*
X561190D02*
X567690Y271218D01*
X525580Y264718D02*
X561190D01*
X567690Y271218D02*
Y278068D01*
D58*
X225298Y355346D02*
D03*
X326898D02*
D03*
X715772Y148844D02*
D03*
Y250444D02*
D03*
X370332Y388874D02*
D03*
X395732D02*
D03*
X225044Y386588D02*
D03*
X326644D02*
D03*
X282956Y716026D02*
D03*
X724662Y286512D02*
D03*
Y311912D02*
D03*
X630428Y390906D02*
D03*
X655828D02*
D03*
X626110Y309372D02*
D03*
Y207772D02*
D03*
X679704Y309372D02*
D03*
Y207772D02*
D03*
X735584Y721868D02*
D03*
D59*
X549656Y576470D02*
D03*
Y521970D02*
D03*
X456184D02*
D03*
Y576470D02*
D03*
D60*
X549656Y467470D02*
D03*
X456184D02*
D03*
D61*
X325628Y46736D02*
D03*
X198628D02*
D03*
D62*
X446117Y336042D02*
D03*
X652272Y304639D02*
D03*
D63*
X370747Y336042D02*
D03*
D64*
X40894Y244094D02*
D03*
X117094D02*
D03*
X40894Y563372D02*
D03*
X117094D02*
D03*
X40894Y83566D02*
D03*
X117094D02*
D03*
X40894Y403860D02*
D03*
X117094D02*
D03*
X958088Y78232D02*
D03*
X881888D02*
D03*
X958088Y552450D02*
D03*
X881888D02*
D03*
X958088Y394716D02*
D03*
X881888D02*
D03*
X958088Y236474D02*
D03*
X881888D02*
D03*
D65*
X308356Y716026D02*
D03*
X710184Y721868D02*
D03*
D66*
X442722Y364998D02*
D03*
X423672Y377698D02*
D03*
X442722Y390398D02*
D03*
X648970Y324612D02*
D03*
X668020Y337312D02*
D03*
X648970Y350012D02*
D03*
D67*
X745744Y251444D02*
D03*
D68*
Y147844D02*
D03*
D69*
X667258Y181610D02*
D03*
D70*
Y156210D02*
D03*
D71*
X557022Y42164D02*
D03*
X506222Y92964D02*
D03*
X582422D02*
D03*
X607822D02*
D03*
D72*
X797560Y35052D02*
D03*
Y390652D02*
D03*
D73*
X652272Y229269D02*
D03*
D74*
X538988Y251968D02*
D03*
X276606Y130556D02*
D03*
X487680Y213106D02*
D03*
X565824Y215118D02*
D03*
X549910Y169672D02*
D03*
X386080Y284226D02*
D03*
X319786Y208534D02*
D03*
X409623Y189575D02*
D03*
X579628Y341122D02*
D03*
X390906Y222758D02*
D03*
X617982Y178562D02*
D03*
X584705Y255788D02*
D03*
X532638Y301752D02*
D03*
X397510Y136652D02*
D03*
X521369Y268379D02*
D03*
X434340Y218948D02*
D03*
X363728Y225806D02*
D03*
X266954Y214630D02*
D03*
X435864Y201676D02*
D03*
X487680Y355938D02*
D03*
X498094Y353314D02*
D03*
X497332Y311912D02*
D03*
X498348Y333502D02*
D03*
M02*
