G04*
G04 #@! TF.GenerationSoftware,Altium Limited,Altium Designer,24.0.1 (36)*
G04*
G04 Layer_Color=8388736*
%FSLAX25Y25*%
%MOIN*%
G70*
G04*
G04 #@! TF.SameCoordinates,92507F75-474C-4227-9718-4D99FAF4D6AC*
G04*
G04*
G04 #@! TF.FilePolarity,Negative*
G04*
G01*
G75*
%ADD26R,0.04737X0.03556*%
%ADD27R,0.05918X0.06706*%
%ADD28R,0.04816X0.04895*%
%ADD29R,0.04895X0.04816*%
%ADD30R,0.05524X0.05524*%
%ADD31R,0.07099X0.06706*%
%ADD32R,0.06706X0.05918*%
G04:AMPARAMS|DCode=33|XSize=85.56mil|YSize=31.62mil|CornerRadius=6.95mil|HoleSize=0mil|Usage=FLASHONLY|Rotation=180.000|XOffset=0mil|YOffset=0mil|HoleType=Round|Shape=RoundedRectangle|*
%AMROUNDEDRECTD33*
21,1,0.08556,0.01772,0,0,180.0*
21,1,0.07165,0.03162,0,0,180.0*
1,1,0.01391,-0.03583,0.00886*
1,1,0.01391,0.03583,0.00886*
1,1,0.01391,0.03583,-0.00886*
1,1,0.01391,-0.03583,-0.00886*
%
%ADD33ROUNDEDRECTD33*%
G04:AMPARAMS|DCode=34|XSize=85.56mil|YSize=31.62mil|CornerRadius=6.95mil|HoleSize=0mil|Usage=FLASHONLY|Rotation=90.000|XOffset=0mil|YOffset=0mil|HoleType=Round|Shape=RoundedRectangle|*
%AMROUNDEDRECTD34*
21,1,0.08556,0.01772,0,0,90.0*
21,1,0.07165,0.03162,0,0,90.0*
1,1,0.01391,0.00886,0.03583*
1,1,0.01391,0.00886,-0.03583*
1,1,0.01391,-0.00886,-0.03583*
1,1,0.01391,-0.00886,0.03583*
%
%ADD34ROUNDEDRECTD34*%
%ADD35C,0.08083*%
%ADD36C,0.08800*%
%ADD37C,0.06800*%
%ADD38C,0.11194*%
%ADD39R,0.11194X0.11194*%
%ADD40C,0.05674*%
%ADD41R,0.05674X0.05674*%
%ADD42C,0.06000*%
%ADD43R,0.07060X0.07060*%
%ADD44C,0.07060*%
%ADD45C,0.06737*%
%ADD46R,0.06737X0.06737*%
%ADD47C,0.09265*%
%ADD48C,0.10800*%
%ADD49R,0.05674X0.05674*%
%ADD50C,0.05800*%
%ADD51C,0.03359*%
G36*
X114646Y65640D02*
Y58160D01*
X113268Y56782D01*
X102245D01*
X101812Y57176D01*
X99489D01*
Y61113D01*
X101851D01*
Y62687D01*
X99489D01*
Y66624D01*
X101812D01*
X102245Y67018D01*
X113268D01*
X114646Y65640D01*
D02*
G37*
G36*
X120788Y66624D02*
X123111D01*
Y62687D01*
X120749D01*
Y61113D01*
X123111D01*
Y57176D01*
X120788D01*
X120355Y56782D01*
X117206D01*
X115828Y58160D01*
Y65640D01*
X117206Y67018D01*
X120355D01*
X120788Y66624D01*
D02*
G37*
G36*
X186924Y64400D02*
Y62077D01*
X182987D01*
Y64439D01*
X181413D01*
Y62077D01*
X177476D01*
Y64400D01*
X177082Y64833D01*
Y67983D01*
X178460Y69361D01*
X185940D01*
X187318Y67983D01*
Y64833D01*
X186924Y64400D01*
D02*
G37*
G36*
X185940Y70542D02*
X178460D01*
X177082Y71920D01*
Y82943D01*
X177476Y83376D01*
Y85699D01*
X181413D01*
Y83337D01*
X182987D01*
Y85699D01*
X186924D01*
Y83376D01*
X187318Y82943D01*
Y71920D01*
X185940Y70542D01*
D02*
G37*
D26*
X251289Y43383D02*
D03*
X274911D02*
D03*
X251289Y28817D02*
D03*
X274911D02*
D03*
X182911Y22716D02*
D03*
X159289D02*
D03*
X182911Y37284D02*
D03*
X159289D02*
D03*
D27*
X151340Y47905D02*
D03*
X143860D02*
D03*
X117240Y79700D02*
D03*
X109760D02*
D03*
X136360Y105000D02*
D03*
X143840D02*
D03*
X169700Y59404D02*
D03*
X162220D02*
D03*
X226260Y139800D02*
D03*
X233740D02*
D03*
X229260Y107000D02*
D03*
X236740D02*
D03*
X225960Y95800D02*
D03*
X233440D02*
D03*
X216500Y92400D02*
D03*
X209020D02*
D03*
D28*
X135400Y57011D02*
D03*
Y62798D02*
D03*
X92900Y101694D02*
D03*
Y95906D02*
D03*
X180100Y101306D02*
D03*
Y107094D02*
D03*
X136100Y91006D02*
D03*
Y96794D02*
D03*
X201200Y121606D02*
D03*
Y115818D02*
D03*
X210800Y136900D02*
D03*
Y142687D02*
D03*
X218100Y142587D02*
D03*
Y136800D02*
D03*
X230300Y129294D02*
D03*
Y123506D02*
D03*
X237700Y129294D02*
D03*
Y123506D02*
D03*
X206300Y52906D02*
D03*
Y58694D02*
D03*
D29*
X129506Y70305D02*
D03*
X135294D02*
D03*
X159006Y122300D02*
D03*
X164794D02*
D03*
X159213Y115000D02*
D03*
X165000D02*
D03*
Y86100D02*
D03*
X159213D02*
D03*
X159013Y78700D02*
D03*
X164800D02*
D03*
X159113Y71300D02*
D03*
X164900D02*
D03*
X161569Y51146D02*
D03*
X167357D02*
D03*
X197506Y145600D02*
D03*
X203294D02*
D03*
Y152800D02*
D03*
X197506D02*
D03*
X230813Y116200D02*
D03*
X236600D02*
D03*
X225813Y87700D02*
D03*
X231600D02*
D03*
X198694Y57300D02*
D03*
X192906D02*
D03*
D30*
X151537Y57409D02*
D03*
X143663D02*
D03*
X198663Y80293D02*
D03*
X206537D02*
D03*
D31*
X147600Y70205D02*
D03*
X202600Y67498D02*
D03*
D32*
X84400Y101840D02*
D03*
Y94360D02*
D03*
X173200Y123040D02*
D03*
Y115560D02*
D03*
X202700Y137400D02*
D03*
Y129920D02*
D03*
X243300Y64800D02*
D03*
Y57320D02*
D03*
D33*
X123649Y88300D02*
D03*
Y93300D02*
D03*
Y98300D02*
D03*
Y103300D02*
D03*
X104200D02*
D03*
Y98300D02*
D03*
Y93300D02*
D03*
Y88300D02*
D03*
X152251Y107400D02*
D03*
Y102400D02*
D03*
Y97400D02*
D03*
Y92400D02*
D03*
X171700D02*
D03*
Y97400D02*
D03*
Y102400D02*
D03*
Y107400D02*
D03*
D34*
X216094Y59072D02*
D03*
X221094D02*
D03*
X226094D02*
D03*
X231094D02*
D03*
Y78521D02*
D03*
X226094D02*
D03*
X221094D02*
D03*
X216094D02*
D03*
X223500Y109476D02*
D03*
X218500D02*
D03*
X213500D02*
D03*
X208500D02*
D03*
Y128924D02*
D03*
X213500D02*
D03*
X218500D02*
D03*
X223500D02*
D03*
D35*
X26000Y72500D02*
D03*
X46000D02*
D03*
X26200Y157600D02*
D03*
X46200D02*
D03*
X26000Y30400D02*
D03*
X46000D02*
D03*
X26000Y115500D02*
D03*
X46000D02*
D03*
X371600Y31300D02*
D03*
X351600D02*
D03*
X371600Y74000D02*
D03*
X351600D02*
D03*
X371600Y116100D02*
D03*
X351600D02*
D03*
X371600Y159100D02*
D03*
X351600D02*
D03*
X88700Y139900D02*
D03*
X128700D02*
D03*
X281800Y58600D02*
D03*
Y98600D02*
D03*
X145800Y153100D02*
D03*
X155800D02*
D03*
X88600Y152200D02*
D03*
X128600D02*
D03*
X285300Y112800D02*
D03*
Y122800D02*
D03*
X248200Y153900D02*
D03*
X258200D02*
D03*
X246500Y121800D02*
D03*
Y81800D02*
D03*
X267600Y121800D02*
D03*
Y81800D02*
D03*
D36*
X180400Y6900D02*
D03*
X256200D02*
D03*
X385600Y325900D02*
D03*
X13600Y324200D02*
D03*
D37*
X270900Y261300D02*
D03*
X290900D02*
D03*
X139800Y259400D02*
D03*
X119800D02*
D03*
X74803Y23622D02*
D03*
X94803D02*
D03*
X115000Y23600D02*
D03*
X135000D02*
D03*
X71900Y176600D02*
D03*
X151900D02*
D03*
X71663Y206137D02*
D03*
X151663D02*
D03*
X72300Y236200D02*
D03*
X152300D02*
D03*
X324500Y234400D02*
D03*
X244500D02*
D03*
X326400Y180800D02*
D03*
X246400D02*
D03*
X325400Y207500D02*
D03*
X245400D02*
D03*
D38*
X216400Y226957D02*
D03*
Y205500D02*
D03*
X179600D02*
D03*
Y226957D02*
D03*
D39*
X216400Y184043D02*
D03*
X179600D02*
D03*
D40*
X175637Y132300D02*
D03*
X256800Y119937D02*
D03*
D41*
X145963Y132300D02*
D03*
D42*
X174300Y143700D02*
D03*
X166800Y148700D02*
D03*
X174300Y153700D02*
D03*
X255500Y127800D02*
D03*
X263000Y132800D02*
D03*
X255500Y137800D02*
D03*
D43*
X293600Y98994D02*
D03*
D44*
Y58206D02*
D03*
D45*
X262700Y71500D02*
D03*
D46*
Y61500D02*
D03*
D47*
X219300Y16600D02*
D03*
X199300Y36600D02*
D03*
X229300D02*
D03*
X239300D02*
D03*
D48*
X314000Y13800D02*
D03*
Y153800D02*
D03*
D49*
X256800Y90263D02*
D03*
D50*
X160206Y172894D02*
D03*
X197900Y203700D02*
D03*
Y185000D02*
D03*
Y226200D02*
D03*
X283465Y153543D02*
D03*
X84346Y40661D02*
D03*
X216600Y166500D02*
D03*
X180000Y169500D02*
D03*
X199300Y171800D02*
D03*
X292000Y153800D02*
D03*
D51*
X212200Y99200D02*
D03*
X108900Y51400D02*
D03*
X192000Y83900D02*
D03*
X222765Y84692D02*
D03*
X216500Y66800D02*
D03*
X152000Y111900D02*
D03*
X125900Y82100D02*
D03*
X161269Y74636D02*
D03*
X228200Y134300D02*
D03*
X153900Y87700D02*
D03*
X243300Y70300D02*
D03*
X230199Y100704D02*
D03*
X209700Y118800D02*
D03*
X156500Y53800D02*
D03*
X205263Y105661D02*
D03*
X171000Y86200D02*
D03*
X143200Y88900D02*
D03*
X105100Y84500D02*
D03*
X171600Y79400D02*
D03*
X192000Y140133D02*
D03*
X196100Y139100D02*
D03*
X195800Y122800D02*
D03*
X196200Y131300D02*
D03*
M02*
