G04*
G04 #@! TF.GenerationSoftware,Altium Limited,Altium Designer,24.0.1 (36)*
G04*
G04 Layer_Physical_Order=1*
G04 Layer_Color=255*
%FSLAX25Y25*%
%MOIN*%
G70*
G04*
G04 #@! TF.SameCoordinates,92507F75-474C-4227-9718-4D99FAF4D6AC*
G04*
G04*
G04 #@! TF.FilePolarity,Positive*
G04*
G01*
G75*
%ADD17R,0.03937X0.02756*%
%ADD18R,0.05118X0.05906*%
%ADD19R,0.04016X0.04095*%
%ADD20R,0.04095X0.04016*%
%ADD21R,0.04724X0.04724*%
%ADD22R,0.06299X0.05906*%
%ADD23R,0.05906X0.05118*%
G04:AMPARAMS|DCode=24|XSize=77.56mil|YSize=23.62mil|CornerRadius=2.95mil|HoleSize=0mil|Usage=FLASHONLY|Rotation=180.000|XOffset=0mil|YOffset=0mil|HoleType=Round|Shape=RoundedRectangle|*
%AMROUNDEDRECTD24*
21,1,0.07756,0.01772,0,0,180.0*
21,1,0.07165,0.02362,0,0,180.0*
1,1,0.00591,-0.03583,0.00886*
1,1,0.00591,0.03583,0.00886*
1,1,0.00591,0.03583,-0.00886*
1,1,0.00591,-0.03583,-0.00886*
%
%ADD24ROUNDEDRECTD24*%
G04:AMPARAMS|DCode=25|XSize=77.56mil|YSize=23.62mil|CornerRadius=2.95mil|HoleSize=0mil|Usage=FLASHONLY|Rotation=90.000|XOffset=0mil|YOffset=0mil|HoleType=Round|Shape=RoundedRectangle|*
%AMROUNDEDRECTD25*
21,1,0.07756,0.01772,0,0,90.0*
21,1,0.07165,0.02362,0,0,90.0*
1,1,0.00591,0.00886,0.03583*
1,1,0.00591,0.00886,-0.03583*
1,1,0.00591,-0.00886,-0.03583*
1,1,0.00591,-0.00886,0.03583*
%
%ADD25ROUNDEDRECTD25*%
%ADD42C,0.06000*%
%ADD52C,0.01575*%
%ADD53C,0.00630*%
%ADD54R,0.01968X0.01968*%
%ADD55R,0.01968X0.01968*%
%ADD56C,0.01181*%
%ADD57C,0.07284*%
%ADD58C,0.08000*%
%ADD59C,0.10394*%
%ADD60R,0.10394X0.10394*%
%ADD61C,0.04874*%
%ADD62R,0.04874X0.04874*%
%ADD63C,0.05200*%
%ADD64R,0.06260X0.06260*%
%ADD65C,0.06260*%
%ADD66C,0.05937*%
%ADD67R,0.05937X0.05937*%
%ADD68C,0.08465*%
%ADD69C,0.10000*%
%ADD70R,0.04874X0.04874*%
%ADD71C,0.05000*%
%ADD72C,0.02559*%
G36*
X383354Y330709D02*
X383488Y330209D01*
X382661Y329731D01*
X381769Y328839D01*
X381139Y327748D01*
X380813Y326530D01*
Y325270D01*
X381139Y324052D01*
X381769Y322960D01*
X382661Y322069D01*
X383752Y321439D01*
X384970Y321113D01*
X386230D01*
X387448Y321439D01*
X388540Y322069D01*
X389279Y322809D01*
X389780Y322603D01*
X391019Y6046D01*
X390893Y5712D01*
X390514Y5106D01*
X390025Y4585D01*
X389444Y4170D01*
X388793Y3877D01*
X388097Y3715D01*
X387384Y3693D01*
X386679Y3811D01*
X386345Y3937D01*
X260595D01*
X260306Y4437D01*
X260661Y5052D01*
X260987Y6270D01*
Y7530D01*
X260661Y8748D01*
X260031Y9839D01*
X259139Y10731D01*
X258048Y11361D01*
X256830Y11687D01*
X255570D01*
X254352Y11361D01*
X253260Y10731D01*
X252369Y9839D01*
X251739Y8748D01*
X251413Y7530D01*
Y6270D01*
X251739Y5052D01*
X252094Y4437D01*
X251805Y3937D01*
X184795D01*
X184506Y4437D01*
X184861Y5052D01*
X185187Y6270D01*
Y7530D01*
X184861Y8748D01*
X184231Y9839D01*
X183340Y10731D01*
X182248Y11361D01*
X181030Y11687D01*
X179770D01*
X178552Y11361D01*
X177461Y10731D01*
X176569Y9839D01*
X175939Y8748D01*
X175613Y7530D01*
Y6270D01*
X175939Y5052D01*
X176294Y4437D01*
X176005Y3937D01*
X3937D01*
Y326772D01*
Y327159D01*
X4088Y327920D01*
X4385Y328637D01*
X4816Y329281D01*
X5364Y329830D01*
X6009Y330260D01*
X6726Y330557D01*
X7486Y330709D01*
X7874Y330709D01*
X7874Y330709D01*
X383354Y330709D01*
D02*
G37*
%LPC*%
G36*
X14230Y328987D02*
X12970D01*
X11752Y328661D01*
X10661Y328031D01*
X9769Y327139D01*
X9139Y326048D01*
X8813Y324830D01*
Y323570D01*
X9139Y322352D01*
X9769Y321260D01*
X10661Y320369D01*
X11752Y319739D01*
X12970Y319413D01*
X14230D01*
X15448Y319739D01*
X16540Y320369D01*
X17431Y321260D01*
X18061Y322352D01*
X18387Y323570D01*
Y324830D01*
X18061Y326048D01*
X17431Y327139D01*
X16540Y328031D01*
X15448Y328661D01*
X14230Y328987D01*
D02*
G37*
G36*
X291399Y265087D02*
X290401D01*
X289438Y264829D01*
X288575Y264331D01*
X287869Y263626D01*
X287371Y262762D01*
X287113Y261799D01*
Y260801D01*
X287371Y259838D01*
X287869Y258975D01*
X288575Y258269D01*
X289438Y257771D01*
X290401Y257513D01*
X291399D01*
X292362Y257771D01*
X293226Y258269D01*
X293931Y258975D01*
X294429Y259838D01*
X294687Y260801D01*
Y261799D01*
X294429Y262762D01*
X293931Y263626D01*
X293226Y264331D01*
X292362Y264829D01*
X291399Y265087D01*
D02*
G37*
G36*
X271399D02*
X270401D01*
X269438Y264829D01*
X268575Y264331D01*
X267869Y263626D01*
X267371Y262762D01*
X267113Y261799D01*
Y260801D01*
X267371Y259838D01*
X267869Y258975D01*
X268575Y258269D01*
X269438Y257771D01*
X270401Y257513D01*
X271399D01*
X272362Y257771D01*
X273225Y258269D01*
X273931Y258975D01*
X274429Y259838D01*
X274687Y260801D01*
Y261799D01*
X274429Y262762D01*
X273931Y263626D01*
X273225Y264331D01*
X272362Y264829D01*
X271399Y265087D01*
D02*
G37*
G36*
X140299Y263187D02*
X139301D01*
X138338Y262929D01*
X137475Y262431D01*
X136769Y261725D01*
X136271Y260862D01*
X136013Y259899D01*
Y258901D01*
X136271Y257938D01*
X136769Y257074D01*
X137475Y256369D01*
X138338Y255871D01*
X139301Y255613D01*
X140299D01*
X141262Y255871D01*
X142125Y256369D01*
X142831Y257074D01*
X143329Y257938D01*
X143587Y258901D01*
Y259899D01*
X143329Y260862D01*
X142831Y261725D01*
X142125Y262431D01*
X141262Y262929D01*
X140299Y263187D01*
D02*
G37*
G36*
X120299D02*
X119301D01*
X118338Y262929D01*
X117474Y262431D01*
X116769Y261725D01*
X116271Y260862D01*
X116013Y259899D01*
Y258901D01*
X116271Y257938D01*
X116769Y257074D01*
X117474Y256369D01*
X118338Y255871D01*
X119301Y255613D01*
X120299D01*
X121262Y255871D01*
X122125Y256369D01*
X122831Y257074D01*
X123329Y257938D01*
X123587Y258901D01*
Y259899D01*
X123329Y260862D01*
X122831Y261725D01*
X122125Y262431D01*
X121262Y262929D01*
X120299Y263187D01*
D02*
G37*
G36*
X72827Y240200D02*
X72800D01*
Y236700D01*
X76300D01*
Y236727D01*
X76027Y237744D01*
X75501Y238656D01*
X74756Y239401D01*
X73844Y239927D01*
X72827Y240200D01*
D02*
G37*
G36*
X71800D02*
X71773D01*
X70756Y239927D01*
X69844Y239401D01*
X69099Y238656D01*
X68573Y237744D01*
X68300Y236727D01*
Y236700D01*
X71800D01*
Y240200D01*
D02*
G37*
G36*
X325027Y238400D02*
X325000D01*
Y234900D01*
X328500D01*
Y234927D01*
X328227Y235944D01*
X327701Y236856D01*
X326956Y237601D01*
X326044Y238127D01*
X325027Y238400D01*
D02*
G37*
G36*
X324000D02*
X323973D01*
X322956Y238127D01*
X322044Y237601D01*
X321299Y236856D01*
X320773Y235944D01*
X320500Y234927D01*
Y234900D01*
X324000D01*
Y238400D01*
D02*
G37*
G36*
X152799Y239987D02*
X151801D01*
X150838Y239729D01*
X149975Y239231D01*
X149269Y238526D01*
X148771Y237662D01*
X148513Y236699D01*
Y235701D01*
X148771Y234738D01*
X149269Y233875D01*
X149975Y233169D01*
X150838Y232671D01*
X151801Y232413D01*
X152799D01*
X153762Y232671D01*
X154625Y233169D01*
X155331Y233875D01*
X155829Y234738D01*
X156087Y235701D01*
Y236699D01*
X155829Y237662D01*
X155331Y238526D01*
X154625Y239231D01*
X153762Y239729D01*
X152799Y239987D01*
D02*
G37*
G36*
X76300Y235700D02*
X72800D01*
Y232200D01*
X72827D01*
X73844Y232473D01*
X74756Y232999D01*
X75501Y233744D01*
X76027Y234656D01*
X76300Y235673D01*
Y235700D01*
D02*
G37*
G36*
X71800D02*
X68300D01*
Y235673D01*
X68573Y234656D01*
X69099Y233744D01*
X69844Y232999D01*
X70756Y232473D01*
X71773Y232200D01*
X71800D01*
Y235700D01*
D02*
G37*
G36*
X244999Y238187D02*
X244001D01*
X243038Y237929D01*
X242175Y237431D01*
X241469Y236725D01*
X240971Y235862D01*
X240713Y234899D01*
Y233901D01*
X240971Y232938D01*
X241469Y232074D01*
X242175Y231369D01*
X243038Y230871D01*
X244001Y230613D01*
X244999D01*
X245962Y230871D01*
X246826Y231369D01*
X247531Y232074D01*
X248029Y232938D01*
X248287Y233901D01*
Y234899D01*
X248029Y235862D01*
X247531Y236725D01*
X246826Y237431D01*
X245962Y237929D01*
X244999Y238187D01*
D02*
G37*
G36*
X328500Y233900D02*
X325000D01*
Y230400D01*
X325027D01*
X326044Y230673D01*
X326956Y231199D01*
X327701Y231944D01*
X328227Y232856D01*
X328500Y233873D01*
Y233900D01*
D02*
G37*
G36*
X324000D02*
X320500D01*
Y233873D01*
X320773Y232856D01*
X321299Y231944D01*
X322044Y231199D01*
X322956Y230673D01*
X323973Y230400D01*
X324000D01*
Y233900D01*
D02*
G37*
G36*
X217010Y233154D02*
X216900D01*
Y227457D01*
X222597D01*
Y227567D01*
X222359Y228764D01*
X221892Y229892D01*
X221213Y230907D01*
X220350Y231770D01*
X219335Y232448D01*
X218208Y232915D01*
X217010Y233154D01*
D02*
G37*
G36*
X180210D02*
X180100D01*
Y227457D01*
X185797D01*
Y227567D01*
X185559Y228764D01*
X185092Y229892D01*
X184413Y230907D01*
X183550Y231770D01*
X182535Y232448D01*
X181407Y232915D01*
X180210Y233154D01*
D02*
G37*
G36*
X215900D02*
X215790D01*
X214593Y232915D01*
X213465Y232448D01*
X212450Y231770D01*
X211587Y230907D01*
X210908Y229892D01*
X210441Y228764D01*
X210203Y227567D01*
Y227457D01*
X215900D01*
Y233154D01*
D02*
G37*
G36*
X179100D02*
X178990D01*
X177793Y232915D01*
X176665Y232448D01*
X175650Y231770D01*
X174787Y230907D01*
X174108Y229892D01*
X173641Y228764D01*
X173403Y227567D01*
Y227457D01*
X179100D01*
Y233154D01*
D02*
G37*
G36*
X198333Y229487D02*
X197467D01*
X196631Y229263D01*
X195881Y228831D01*
X195269Y228219D01*
X194837Y227469D01*
X194613Y226633D01*
Y225767D01*
X194837Y224931D01*
X195269Y224182D01*
X195881Y223569D01*
X196631Y223137D01*
X197467Y222913D01*
X198333D01*
X199169Y223137D01*
X199918Y223569D01*
X200531Y224182D01*
X200963Y224931D01*
X201187Y225767D01*
Y226633D01*
X200963Y227469D01*
X200531Y228219D01*
X199918Y228831D01*
X199169Y229263D01*
X198333Y229487D01*
D02*
G37*
G36*
X222597Y226457D02*
X216900D01*
Y220760D01*
X217010D01*
X218208Y220998D01*
X219335Y221465D01*
X220350Y222143D01*
X221213Y223006D01*
X221892Y224021D01*
X222359Y225149D01*
X222597Y226346D01*
Y226457D01*
D02*
G37*
G36*
X215900D02*
X210203D01*
Y226346D01*
X210441Y225149D01*
X210908Y224021D01*
X211587Y223006D01*
X212450Y222143D01*
X213465Y221465D01*
X214593Y220998D01*
X215790Y220760D01*
X215900D01*
Y226457D01*
D02*
G37*
G36*
X185797D02*
X180100D01*
Y220760D01*
X180210D01*
X181407Y220998D01*
X182535Y221465D01*
X183550Y222143D01*
X184413Y223006D01*
X185092Y224021D01*
X185559Y225149D01*
X185797Y226346D01*
Y226457D01*
D02*
G37*
G36*
X179100D02*
X173403D01*
Y226346D01*
X173641Y225149D01*
X174108Y224021D01*
X174787Y223006D01*
X175650Y222143D01*
X176665Y221465D01*
X177793Y220998D01*
X178990Y220760D01*
X179100D01*
Y226457D01*
D02*
G37*
G36*
X325927Y211500D02*
X325900D01*
Y208000D01*
X329400D01*
Y208027D01*
X329127Y209044D01*
X328601Y209956D01*
X327856Y210701D01*
X326944Y211227D01*
X325927Y211500D01*
D02*
G37*
G36*
X324900D02*
X324873D01*
X323856Y211227D01*
X322944Y210701D01*
X322199Y209956D01*
X321673Y209044D01*
X321400Y208027D01*
Y208000D01*
X324900D01*
Y211500D01*
D02*
G37*
G36*
X72190Y210137D02*
X72163D01*
Y206637D01*
X75663D01*
Y206664D01*
X75390Y207681D01*
X74864Y208593D01*
X74119Y209338D01*
X73207Y209864D01*
X72190Y210137D01*
D02*
G37*
G36*
X71163D02*
X71136D01*
X70119Y209864D01*
X69207Y209338D01*
X68462Y208593D01*
X67936Y207681D01*
X67663Y206664D01*
Y206637D01*
X71163D01*
Y210137D01*
D02*
G37*
G36*
X245899Y211287D02*
X244901D01*
X243938Y211029D01*
X243074Y210531D01*
X242369Y209825D01*
X241871Y208962D01*
X241613Y207999D01*
Y207001D01*
X241871Y206038D01*
X242369Y205174D01*
X243074Y204469D01*
X243938Y203971D01*
X244901Y203713D01*
X245899D01*
X246862Y203971D01*
X247726Y204469D01*
X248431Y205174D01*
X248929Y206038D01*
X249187Y207001D01*
Y207999D01*
X248929Y208962D01*
X248431Y209825D01*
X247726Y210531D01*
X246862Y211029D01*
X245899Y211287D01*
D02*
G37*
G36*
X329400Y207000D02*
X325900D01*
Y203500D01*
X325927D01*
X326944Y203773D01*
X327856Y204299D01*
X328601Y205044D01*
X329127Y205956D01*
X329400Y206973D01*
Y207000D01*
D02*
G37*
G36*
X324900D02*
X321400D01*
Y206973D01*
X321673Y205956D01*
X322199Y205044D01*
X322944Y204299D01*
X323856Y203773D01*
X324873Y203500D01*
X324900D01*
Y207000D01*
D02*
G37*
G36*
X152162Y209924D02*
X151164D01*
X150201Y209666D01*
X149337Y209168D01*
X148632Y208463D01*
X148134Y207599D01*
X147876Y206636D01*
Y205638D01*
X148134Y204675D01*
X148632Y203812D01*
X149337Y203106D01*
X150201Y202608D01*
X151164Y202350D01*
X152162D01*
X153125Y202608D01*
X153989Y203106D01*
X154694Y203812D01*
X155192Y204675D01*
X155450Y205638D01*
Y206636D01*
X155192Y207599D01*
X154694Y208463D01*
X153989Y209168D01*
X153125Y209666D01*
X152162Y209924D01*
D02*
G37*
G36*
X75663Y205637D02*
X72163D01*
Y202137D01*
X72190D01*
X73207Y202410D01*
X74119Y202936D01*
X74864Y203681D01*
X75390Y204593D01*
X75663Y205610D01*
Y205637D01*
D02*
G37*
G36*
X71163D02*
X67663D01*
Y205610D01*
X67936Y204593D01*
X68462Y203681D01*
X69207Y202936D01*
X70119Y202410D01*
X71136Y202137D01*
X71163D01*
Y205637D01*
D02*
G37*
G36*
X198333Y206987D02*
X197467D01*
X196631Y206763D01*
X195881Y206331D01*
X195269Y205718D01*
X194837Y204969D01*
X194613Y204133D01*
Y203267D01*
X194837Y202431D01*
X195269Y201681D01*
X195881Y201069D01*
X196631Y200637D01*
X197467Y200413D01*
X198333D01*
X199169Y200637D01*
X199918Y201069D01*
X200531Y201681D01*
X200963Y202431D01*
X201187Y203267D01*
Y204133D01*
X200963Y204969D01*
X200531Y205718D01*
X199918Y206331D01*
X199169Y206763D01*
X198333Y206987D01*
D02*
G37*
G36*
X216989Y211484D02*
X215811D01*
X214654Y211254D01*
X213565Y210803D01*
X212585Y210148D01*
X211752Y209315D01*
X211097Y208335D01*
X210646Y207245D01*
X210416Y206089D01*
Y204911D01*
X210646Y203754D01*
X211097Y202665D01*
X211752Y201685D01*
X212585Y200852D01*
X213565Y200197D01*
X214654Y199746D01*
X215811Y199516D01*
X216989D01*
X218145Y199746D01*
X219235Y200197D01*
X220215Y200852D01*
X221048Y201685D01*
X221703Y202665D01*
X222154Y203754D01*
X222384Y204911D01*
Y206089D01*
X222154Y207245D01*
X221703Y208335D01*
X221048Y209315D01*
X220215Y210148D01*
X219235Y210803D01*
X218145Y211254D01*
X216989Y211484D01*
D02*
G37*
G36*
X180189D02*
X179011D01*
X177855Y211254D01*
X176765Y210803D01*
X175785Y210148D01*
X174952Y209315D01*
X174297Y208335D01*
X173846Y207245D01*
X173616Y206089D01*
Y204911D01*
X173846Y203754D01*
X174297Y202665D01*
X174952Y201685D01*
X175785Y200852D01*
X176765Y200197D01*
X177855Y199746D01*
X179011Y199516D01*
X180189D01*
X181345Y199746D01*
X182435Y200197D01*
X183415Y200852D01*
X184248Y201685D01*
X184903Y202665D01*
X185354Y203754D01*
X185584Y204911D01*
Y206089D01*
X185354Y207245D01*
X184903Y208335D01*
X184248Y209315D01*
X183415Y210148D01*
X182435Y210803D01*
X181345Y211254D01*
X180189Y211484D01*
D02*
G37*
G36*
X198333Y188287D02*
X197467D01*
X196631Y188063D01*
X195881Y187631D01*
X195269Y187019D01*
X194837Y186269D01*
X194613Y185433D01*
Y184567D01*
X194837Y183731D01*
X195269Y182982D01*
X195881Y182369D01*
X196631Y181937D01*
X197467Y181713D01*
X198333D01*
X199169Y181937D01*
X199918Y182369D01*
X200531Y182982D01*
X200963Y183731D01*
X201187Y184567D01*
Y185433D01*
X200963Y186269D01*
X200531Y187019D01*
X199918Y187631D01*
X199169Y188063D01*
X198333Y188287D01*
D02*
G37*
G36*
X326927Y184800D02*
X326900D01*
Y181300D01*
X330400D01*
Y181327D01*
X330127Y182344D01*
X329601Y183256D01*
X328856Y184001D01*
X327944Y184527D01*
X326927Y184800D01*
D02*
G37*
G36*
X325900D02*
X325873D01*
X324856Y184527D01*
X323944Y184001D01*
X323199Y183256D01*
X322673Y182344D01*
X322400Y181327D01*
Y181300D01*
X325900D01*
Y184800D01*
D02*
G37*
G36*
X222384Y190028D02*
X210416D01*
Y178059D01*
X222384D01*
Y190028D01*
D02*
G37*
G36*
X72427Y180600D02*
X72400D01*
Y177100D01*
X75900D01*
Y177127D01*
X75627Y178144D01*
X75101Y179056D01*
X74356Y179801D01*
X73444Y180327D01*
X72427Y180600D01*
D02*
G37*
G36*
X71400D02*
X71373D01*
X70356Y180327D01*
X69444Y179801D01*
X68699Y179056D01*
X68173Y178144D01*
X67900Y177127D01*
Y177100D01*
X71400D01*
Y180600D01*
D02*
G37*
G36*
X246899Y184587D02*
X245901D01*
X244938Y184329D01*
X244075Y183831D01*
X243369Y183125D01*
X242871Y182262D01*
X242613Y181299D01*
Y180301D01*
X242871Y179338D01*
X243369Y178474D01*
X244075Y177769D01*
X244938Y177271D01*
X245901Y177013D01*
X246899D01*
X247862Y177271D01*
X248726Y177769D01*
X249431Y178474D01*
X249929Y179338D01*
X250187Y180301D01*
Y181299D01*
X249929Y182262D01*
X249431Y183125D01*
X248726Y183831D01*
X247862Y184329D01*
X246899Y184587D01*
D02*
G37*
G36*
X330400Y180300D02*
X326900D01*
Y176800D01*
X326927D01*
X327944Y177073D01*
X328856Y177599D01*
X329601Y178344D01*
X330127Y179256D01*
X330400Y180273D01*
Y180300D01*
D02*
G37*
G36*
X325900D02*
X322400D01*
Y180273D01*
X322673Y179256D01*
X323199Y178344D01*
X323944Y177599D01*
X324856Y177073D01*
X325873Y176800D01*
X325900D01*
Y180300D01*
D02*
G37*
G36*
X152399Y180387D02*
X151401D01*
X150438Y180129D01*
X149574Y179631D01*
X148869Y178926D01*
X148371Y178062D01*
X148113Y177099D01*
Y176101D01*
X148371Y175138D01*
X148869Y174275D01*
X149574Y173569D01*
X150438Y173071D01*
X151401Y172813D01*
X152399D01*
X153362Y173071D01*
X154226Y173569D01*
X154931Y174275D01*
X155429Y175138D01*
X155687Y176101D01*
Y177099D01*
X155429Y178062D01*
X154931Y178926D01*
X154226Y179631D01*
X153362Y180129D01*
X152399Y180387D01*
D02*
G37*
G36*
X75900Y176100D02*
X72400D01*
Y172600D01*
X72427D01*
X73444Y172873D01*
X74356Y173399D01*
X75101Y174144D01*
X75627Y175056D01*
X75900Y176073D01*
Y176100D01*
D02*
G37*
G36*
X71400D02*
X67900D01*
Y176073D01*
X68173Y175056D01*
X68699Y174144D01*
X69444Y173399D01*
X70356Y172873D01*
X71373Y172600D01*
X71400D01*
Y176100D01*
D02*
G37*
G36*
X160639Y176182D02*
X159773D01*
X158937Y175958D01*
X158187Y175525D01*
X157575Y174913D01*
X157142Y174163D01*
X156918Y173327D01*
Y172461D01*
X157142Y171625D01*
X157575Y170876D01*
X158187Y170264D01*
X158937Y169831D01*
X159773Y169607D01*
X160639D01*
X161475Y169831D01*
X162224Y170264D01*
X162836Y170876D01*
X163269Y171625D01*
X163493Y172461D01*
Y173327D01*
X163269Y174163D01*
X162836Y174913D01*
X162224Y175525D01*
X161475Y175958D01*
X160639Y176182D01*
D02*
G37*
G36*
X199733Y175087D02*
X198867D01*
X198031Y174863D01*
X197282Y174431D01*
X196669Y173819D01*
X196237Y173069D01*
X196013Y172233D01*
Y171367D01*
X196237Y170531D01*
X196669Y169781D01*
X197282Y169169D01*
X198031Y168737D01*
X198867Y168513D01*
X199733D01*
X200569Y168737D01*
X201319Y169169D01*
X201931Y169781D01*
X202363Y170531D01*
X202587Y171367D01*
Y172233D01*
X202363Y173069D01*
X201931Y173819D01*
X201319Y174431D01*
X200569Y174863D01*
X199733Y175087D01*
D02*
G37*
G36*
X180433Y172787D02*
X179567D01*
X178731Y172563D01*
X177981Y172131D01*
X177369Y171519D01*
X176937Y170769D01*
X176713Y169933D01*
Y169067D01*
X176937Y168231D01*
X177369Y167482D01*
X177981Y166869D01*
X178731Y166437D01*
X179567Y166213D01*
X180433D01*
X181269Y166437D01*
X182018Y166869D01*
X182631Y167482D01*
X183063Y168231D01*
X183287Y169067D01*
Y169933D01*
X183063Y170769D01*
X182631Y171519D01*
X182018Y172131D01*
X181269Y172563D01*
X180433Y172787D01*
D02*
G37*
G36*
X217033Y169787D02*
X216167D01*
X215331Y169563D01*
X214581Y169131D01*
X213969Y168518D01*
X213537Y167769D01*
X213313Y166933D01*
Y166067D01*
X213537Y165231D01*
X213969Y164481D01*
X214581Y163869D01*
X215331Y163437D01*
X216167Y163213D01*
X217033D01*
X217869Y163437D01*
X218618Y163869D01*
X219231Y164481D01*
X219663Y165231D01*
X219887Y166067D01*
Y166933D01*
X219663Y167769D01*
X219231Y168518D01*
X218618Y169131D01*
X217869Y169563D01*
X217033Y169787D01*
D02*
G37*
G36*
X372211Y163742D02*
X372100D01*
Y159600D01*
X376242D01*
Y159711D01*
X375925Y160892D01*
X375314Y161950D01*
X374450Y162814D01*
X373392Y163425D01*
X372211Y163742D01*
D02*
G37*
G36*
X371100D02*
X370989D01*
X369808Y163425D01*
X368750Y162814D01*
X367886Y161950D01*
X367275Y160892D01*
X366958Y159711D01*
Y159600D01*
X371100D01*
Y163742D01*
D02*
G37*
G36*
X26811Y162242D02*
X26700D01*
Y158100D01*
X30842D01*
Y158211D01*
X30525Y159392D01*
X29914Y160450D01*
X29050Y161314D01*
X27992Y161925D01*
X26811Y162242D01*
D02*
G37*
G36*
X25700D02*
X25589D01*
X24408Y161925D01*
X23350Y161314D01*
X22486Y160450D01*
X21875Y159392D01*
X21558Y158211D01*
Y158100D01*
X25700D01*
Y162242D01*
D02*
G37*
G36*
X248783Y158329D02*
X247617D01*
X246490Y158027D01*
X245480Y157444D01*
X244656Y156620D01*
X244073Y155610D01*
X244045Y155506D01*
X232621D01*
X232621Y155506D01*
X232007Y155383D01*
X231486Y155035D01*
X231486Y155035D01*
X221805Y145355D01*
X220895D01*
Y145422D01*
X217576D01*
X215553Y147445D01*
X215032Y147793D01*
X214417Y147915D01*
X214417Y147915D01*
X208140D01*
X207525Y147793D01*
X207004Y147445D01*
X207004Y147445D01*
X206765Y147206D01*
X206128D01*
Y148395D01*
X204899D01*
Y150005D01*
X206128D01*
Y155595D01*
X200553D01*
Y155808D01*
X198006D01*
Y152800D01*
Y149792D01*
X200553D01*
Y150005D01*
X201688D01*
Y148395D01*
X200459D01*
Y148395D01*
X200341D01*
Y148395D01*
X194672D01*
Y145076D01*
X191796Y142200D01*
X191589D01*
X190829Y141885D01*
X190248Y141304D01*
X189933Y140544D01*
Y139722D01*
X190248Y138962D01*
X190394Y138816D01*
Y129000D01*
X190394Y129000D01*
X190517Y128385D01*
X190865Y127865D01*
X192465Y126265D01*
X192465Y126265D01*
X192985Y125917D01*
X193600Y125794D01*
X199787D01*
X199787Y125794D01*
X200401Y125917D01*
X200494Y125979D01*
X200994Y125712D01*
Y124440D01*
X198405D01*
Y122733D01*
X197905Y122515D01*
X197867Y122549D01*
Y123211D01*
X197552Y123971D01*
X196971Y124552D01*
X196211Y124867D01*
X195389D01*
X194629Y124552D01*
X194048Y123971D01*
X193733Y123211D01*
Y122389D01*
X194048Y121629D01*
X194629Y121048D01*
X195389Y120733D01*
X196021D01*
X196121Y120633D01*
Y119813D01*
X196206Y119383D01*
X196450Y119018D01*
X198405Y117063D01*
Y112984D01*
X203995D01*
X204055Y112508D01*
Y108996D01*
X203669Y108678D01*
X203564Y108699D01*
X203564Y108699D01*
X182895D01*
Y109928D01*
X177305D01*
Y108853D01*
X176206D01*
X176063Y109066D01*
X175705Y109306D01*
X175283Y109390D01*
X173306D01*
Y112213D01*
X176940D01*
Y118906D01*
X169460D01*
Y116606D01*
X167835D01*
Y117795D01*
X166502D01*
Y119505D01*
X167628D01*
Y125095D01*
X162341D01*
X161959Y125095D01*
X161459Y125095D01*
X160612D01*
Y148349D01*
X160490Y148963D01*
X160142Y149484D01*
X160142Y149484D01*
X159295Y150331D01*
X159344Y150380D01*
X159927Y151390D01*
X160229Y152517D01*
Y153683D01*
X159927Y154810D01*
X159344Y155820D01*
X158520Y156644D01*
X157510Y157227D01*
X156383Y157529D01*
X155217D01*
X154090Y157227D01*
X153080Y156644D01*
X152256Y155820D01*
X151673Y154810D01*
X151371Y153683D01*
Y152517D01*
X151673Y151390D01*
X152256Y150380D01*
X153080Y149556D01*
X154090Y148973D01*
X155217Y148671D01*
X156383D01*
X156407Y148677D01*
X157401Y147684D01*
Y125095D01*
X156172D01*
Y119505D01*
X161459D01*
X161841Y119505D01*
X162341Y119505D01*
X163291D01*
Y118149D01*
X162938Y117795D01*
X162165Y117795D01*
X161665Y117795D01*
X156378D01*
Y116606D01*
X147896D01*
X147896Y116606D01*
X147281Y116483D01*
X146760Y116135D01*
X146760Y116135D01*
X144039Y113414D01*
X144028Y113399D01*
X143618Y113317D01*
X143253Y113073D01*
X139384Y109204D01*
X139140Y108839D01*
X139121Y108740D01*
X133013D01*
Y101260D01*
X134494D01*
Y99628D01*
X133305D01*
Y96231D01*
X132843Y96039D01*
X131695Y97187D01*
Y99556D01*
X131573Y100171D01*
X131225Y100691D01*
X131225Y100691D01*
X128335Y103581D01*
Y104186D01*
X128251Y104608D01*
X128012Y104966D01*
X127654Y105206D01*
X127232Y105290D01*
X120066D01*
X119644Y105206D01*
X119286Y104966D01*
X119046Y104608D01*
X118962Y104186D01*
Y103214D01*
X118500Y103022D01*
X114331Y107191D01*
X90306Y131217D01*
Y135745D01*
X90410Y135773D01*
X91420Y136356D01*
X92244Y137180D01*
X92827Y138190D01*
X93129Y139317D01*
Y140483D01*
X92827Y141610D01*
X92244Y142620D01*
X91420Y143444D01*
X90410Y144027D01*
X89283Y144329D01*
X88117D01*
X86990Y144027D01*
X85980Y143444D01*
X85156Y142620D01*
X84573Y141610D01*
X84271Y140483D01*
Y139317D01*
X84573Y138190D01*
X85156Y137180D01*
X85980Y136356D01*
X86990Y135773D01*
X87094Y135745D01*
Y130552D01*
X87094Y130552D01*
X87217Y129938D01*
X87565Y129417D01*
X108858Y108124D01*
X108666Y107662D01*
X80877D01*
X80877Y107662D01*
X80262Y107539D01*
X79741Y107191D01*
X79741Y107191D01*
X78737Y106187D01*
X78389Y105666D01*
X78267Y105052D01*
X78267Y105052D01*
Y91149D01*
X78267Y91149D01*
X78389Y90534D01*
X78737Y90013D01*
X94713Y74037D01*
X94713Y74037D01*
X95234Y73689D01*
X95849Y73567D01*
X126592D01*
X126672Y73100D01*
X126672D01*
Y69780D01*
X123808Y66916D01*
X123285Y66798D01*
X123024Y66972D01*
X122717Y67033D01*
X120941D01*
X120738Y67219D01*
X120620Y67290D01*
X120505Y67366D01*
X120486Y67370D01*
X120469Y67380D01*
X120333Y67400D01*
X120198Y67427D01*
X117363D01*
X117056Y67366D01*
X116795Y67192D01*
X115654Y66050D01*
X115499Y65818D01*
X115277Y65790D01*
X115197D01*
X114975Y65818D01*
X114821Y66050D01*
X113679Y67192D01*
X113679Y67192D01*
X113418Y67366D01*
X113111Y67427D01*
X102402D01*
X102267Y67400D01*
X102131Y67380D01*
X102114Y67370D01*
X102095Y67366D01*
X101980Y67290D01*
X101862Y67219D01*
X101659Y67033D01*
X99883D01*
X99576Y66972D01*
X99315Y66798D01*
X99141Y66538D01*
X99080Y66231D01*
Y63081D01*
X99141Y62774D01*
X99315Y62513D01*
X99576Y62339D01*
X99883Y62278D01*
X101442D01*
Y61522D01*
X99883D01*
X99576Y61461D01*
X99315Y61287D01*
X99141Y61026D01*
X99080Y60719D01*
Y57569D01*
X99141Y57262D01*
X99315Y57002D01*
X99576Y56828D01*
X99883Y56766D01*
X101659D01*
X101862Y56581D01*
X101980Y56511D01*
X102095Y56434D01*
X102114Y56430D01*
X102131Y56420D01*
X102267Y56400D01*
X102402Y56373D01*
X106643D01*
Y52318D01*
X106643Y52318D01*
X106698Y52041D01*
X106640Y51900D01*
X111160D01*
X110833Y52691D01*
X110191Y53333D01*
X109854Y53472D01*
Y56373D01*
X113111D01*
X113111Y56373D01*
X113418Y56434D01*
X113679Y56608D01*
X113679Y56608D01*
X114820Y57750D01*
X114821Y57750D01*
X114975Y57982D01*
X115197Y58010D01*
X115277D01*
X115499Y57982D01*
X115654Y57750D01*
X116795Y56608D01*
X117056Y56434D01*
X117363Y56373D01*
X120198D01*
X120333Y56400D01*
X120469Y56420D01*
X120486Y56430D01*
X120505Y56434D01*
X120619Y56511D01*
X120738Y56581D01*
X120941Y56766D01*
X122717D01*
X123024Y56828D01*
X123285Y57002D01*
X123459Y57262D01*
X123520Y57569D01*
Y60719D01*
X123459Y61026D01*
X123285Y61287D01*
X123330Y61858D01*
X125809Y64337D01*
X125810Y64337D01*
X125889Y64456D01*
X128942Y67509D01*
X132341D01*
X132341Y67509D01*
X132459D01*
Y67509D01*
X132841Y67509D01*
X133741D01*
Y65633D01*
X132605D01*
Y59964D01*
X132605D01*
Y59846D01*
X132605D01*
Y54176D01*
X138195D01*
Y55405D01*
X140513D01*
Y54260D01*
X146813D01*
Y58288D01*
X147925Y59401D01*
X148387Y59210D01*
Y54260D01*
X149734D01*
Y51645D01*
X147994D01*
Y44164D01*
X154687D01*
Y51645D01*
X152946D01*
Y54260D01*
X154401D01*
X154433Y54211D01*
Y53389D01*
X154748Y52629D01*
X155329Y52048D01*
X156089Y51733D01*
X156911D01*
X157671Y52048D01*
X158235Y52612D01*
X158328Y52607D01*
X158735Y52487D01*
Y48351D01*
X162133D01*
X162162Y48322D01*
X162251Y47871D01*
X162599Y47350D01*
X177789Y32161D01*
X184606Y25344D01*
X184415Y24882D01*
X180155D01*
Y20551D01*
X185667D01*
Y23630D01*
X186129Y23821D01*
X186413Y23537D01*
X186413Y23537D01*
X186934Y23189D01*
X187548Y23067D01*
X210562D01*
X214794Y18835D01*
X214622Y18538D01*
X214280Y17261D01*
Y15939D01*
X214622Y14662D01*
X215283Y13518D01*
X216218Y12583D01*
X217362Y11922D01*
X218639Y11580D01*
X219961D01*
X221237Y11922D01*
X222382Y12583D01*
X223317Y13518D01*
X223978Y14662D01*
X224066Y14994D01*
X237367D01*
X237367Y14994D01*
X237981Y15117D01*
X238502Y15465D01*
X249274Y26236D01*
X249987D01*
X250601Y26358D01*
X251039Y26651D01*
X254045D01*
Y30982D01*
X248533D01*
Y29432D01*
X247994Y29325D01*
X247473Y28977D01*
X247473Y28977D01*
X236702Y18206D01*
X224066D01*
X223978Y18538D01*
X223317Y19682D01*
X222382Y20617D01*
X221237Y21278D01*
X219961Y21620D01*
X218639D01*
X217362Y21278D01*
X217065Y21106D01*
X212363Y25808D01*
X211842Y26156D01*
X211228Y26278D01*
X211227Y26278D01*
X188213D01*
X181195Y33296D01*
X182865Y34967D01*
X182865Y34967D01*
X182966Y35118D01*
X185667D01*
Y39449D01*
X180155D01*
Y36848D01*
X180143Y36786D01*
X178924Y35567D01*
X166602Y47889D01*
X166794Y48351D01*
X170191D01*
Y53941D01*
X168962D01*
Y55664D01*
X173047D01*
Y61268D01*
X173508Y61460D01*
X183433Y51535D01*
Y51161D01*
X183433Y51161D01*
X183556Y50546D01*
X183904Y50026D01*
X194904Y39025D01*
X194622Y38537D01*
X194280Y37261D01*
Y35939D01*
X194622Y34663D01*
X195283Y33518D01*
X196218Y32583D01*
X197362Y31922D01*
X198639Y31580D01*
X199961D01*
X201238Y31922D01*
X202382Y32583D01*
X203317Y33518D01*
X203978Y34663D01*
X204320Y35939D01*
Y37261D01*
X203978Y38537D01*
X203317Y39682D01*
X202382Y40617D01*
X201238Y41278D01*
X199961Y41620D01*
X198639D01*
X197362Y41278D01*
X197255Y41216D01*
X186645Y51826D01*
Y52200D01*
X186645Y52200D01*
X186522Y52814D01*
X186174Y53335D01*
X186174Y53335D01*
X178342Y61168D01*
X178549Y61668D01*
X181019D01*
X181326Y61729D01*
X181587Y61903D01*
X181761Y62164D01*
X181822Y62471D01*
Y64030D01*
X182578D01*
Y62471D01*
X182639Y62164D01*
X182813Y61903D01*
X183074Y61729D01*
X183381Y61668D01*
X186228D01*
X190072Y57824D01*
Y54505D01*
X195359D01*
X195741Y54505D01*
X196241Y54505D01*
X199759D01*
X199914Y54474D01*
X199914Y54474D01*
X201967D01*
X202504Y53936D01*
X202504Y53936D01*
X203025Y53588D01*
X203476Y53499D01*
X203505Y53470D01*
Y50072D01*
X209095D01*
Y51694D01*
X222625D01*
X222625Y51694D01*
X223240Y51817D01*
X223761Y52165D01*
X225051Y53455D01*
X225352Y53425D01*
X227711Y51066D01*
X227711Y51066D01*
X228232Y50718D01*
X228846Y50596D01*
X228846Y50596D01*
X245921D01*
X245921Y50596D01*
X246535Y50718D01*
X247056Y51066D01*
X248963Y52973D01*
X248963Y52973D01*
X249311Y53494D01*
X249433Y54108D01*
Y78023D01*
X249433Y78023D01*
X249359Y78395D01*
X250044Y79080D01*
X250357Y79623D01*
X251021Y79773D01*
X251094Y79722D01*
Y51962D01*
X251094Y51962D01*
X251217Y51347D01*
X251565Y50826D01*
X254090Y48301D01*
Y46030D01*
X254045Y45549D01*
X248533D01*
Y41218D01*
X251611D01*
X251803Y40756D01*
X251565Y40518D01*
X251217Y39997D01*
X251203Y39928D01*
X249480Y38206D01*
X244067D01*
X243978Y38537D01*
X243317Y39682D01*
X242382Y40617D01*
X241237Y41278D01*
X239961Y41620D01*
X238639D01*
X237363Y41278D01*
X236218Y40617D01*
X235283Y39682D01*
X234622Y38537D01*
X234550Y38267D01*
X234050D01*
X233978Y38537D01*
X233317Y39682D01*
X232382Y40617D01*
X231238Y41278D01*
X229961Y41620D01*
X228639D01*
X227362Y41278D01*
X226218Y40617D01*
X225283Y39682D01*
X224622Y38537D01*
X224280Y37261D01*
Y35939D01*
X224622Y34663D01*
X225283Y33518D01*
X226218Y32583D01*
X227362Y31922D01*
X228639Y31580D01*
X229961D01*
X231238Y31922D01*
X232382Y32583D01*
X233317Y33518D01*
X233978Y34663D01*
X234050Y34933D01*
X234550D01*
X234622Y34663D01*
X235283Y33518D01*
X236218Y32583D01*
X237363Y31922D01*
X238639Y31580D01*
X239961D01*
X241237Y31922D01*
X242382Y32583D01*
X243317Y33518D01*
X243978Y34663D01*
X244067Y34994D01*
X250145D01*
X250145Y34994D01*
X250760Y35117D01*
X251281Y35465D01*
X253835Y38019D01*
X254183Y38540D01*
X254197Y38609D01*
X254288Y38699D01*
X254773D01*
X254773Y38699D01*
X255387Y38822D01*
X255908Y39170D01*
X256831Y40092D01*
X256831Y40092D01*
X257179Y40613D01*
X257301Y41228D01*
Y48967D01*
X257179Y49581D01*
X256831Y50102D01*
X256831Y50102D01*
X254306Y52627D01*
Y86826D01*
X256300D01*
Y90263D01*
Y93700D01*
X253363D01*
Y92365D01*
X252901Y92174D01*
X244842Y100233D01*
Y112944D01*
X244842Y112944D01*
X244720Y113558D01*
X244372Y114079D01*
X244372Y114079D01*
X242889Y115562D01*
Y118440D01*
X243389Y118647D01*
X243780Y118256D01*
X244790Y117673D01*
X245917Y117371D01*
X247083D01*
X248210Y117673D01*
X249219Y118256D01*
X250044Y119080D01*
X250627Y120090D01*
X250929Y121217D01*
Y122383D01*
X250627Y123510D01*
X250044Y124520D01*
X249219Y125344D01*
X248210Y125927D01*
X247083Y126229D01*
X245917D01*
X244790Y125927D01*
X243780Y125344D01*
X243389Y124953D01*
X242889Y125160D01*
Y146318D01*
X246397Y149827D01*
X246490Y149773D01*
X247617Y149471D01*
X248783D01*
X249910Y149773D01*
X250920Y150356D01*
X251744Y151180D01*
X252327Y152190D01*
X252629Y153317D01*
Y154483D01*
X252327Y155610D01*
X251744Y156620D01*
X250920Y157444D01*
X249910Y158027D01*
X248783Y158329D01*
D02*
G37*
G36*
X352183Y163529D02*
X351017D01*
X349890Y163227D01*
X348881Y162644D01*
X348056Y161820D01*
X347473Y160810D01*
X347171Y159683D01*
Y158517D01*
X347473Y157390D01*
X348056Y156380D01*
X348881Y155556D01*
X349890Y154973D01*
X351017Y154671D01*
X352183D01*
X353310Y154973D01*
X354320Y155556D01*
X355144Y156380D01*
X355727Y157390D01*
X356029Y158517D01*
Y159683D01*
X355727Y160810D01*
X355144Y161820D01*
X354320Y162644D01*
X353310Y163227D01*
X352183Y163529D01*
D02*
G37*
G36*
X376242Y158600D02*
X372100D01*
Y154458D01*
X372211D01*
X373392Y154775D01*
X374450Y155386D01*
X375314Y156250D01*
X375925Y157308D01*
X376242Y158489D01*
Y158600D01*
D02*
G37*
G36*
X371100D02*
X366958D01*
Y158489D01*
X367275Y157308D01*
X367886Y156250D01*
X368750Y155386D01*
X369808Y154775D01*
X370989Y154458D01*
X371100D01*
Y158600D01*
D02*
G37*
G36*
X258811Y158542D02*
X258700D01*
Y154400D01*
X262842D01*
Y154511D01*
X262525Y155692D01*
X261914Y156750D01*
X261050Y157614D01*
X259992Y158225D01*
X258811Y158542D01*
D02*
G37*
G36*
X257700D02*
X257589D01*
X256408Y158225D01*
X255350Y157614D01*
X254486Y156750D01*
X253875Y155692D01*
X253558Y154511D01*
Y154400D01*
X257700D01*
Y158542D01*
D02*
G37*
G36*
X283965Y157033D02*
Y154043D01*
X286954D01*
X286726Y154894D01*
X286265Y155692D01*
X285614Y156344D01*
X284816Y156805D01*
X283965Y157033D01*
D02*
G37*
G36*
X282965D02*
X282114Y156805D01*
X281315Y156344D01*
X280664Y155692D01*
X280203Y154894D01*
X279975Y154043D01*
X282965D01*
Y157033D01*
D02*
G37*
G36*
X146411Y157742D02*
X146300D01*
Y153600D01*
X150442D01*
Y153711D01*
X150125Y154892D01*
X149514Y155950D01*
X148650Y156814D01*
X147592Y157425D01*
X146411Y157742D01*
D02*
G37*
G36*
X145300D02*
X145189D01*
X144008Y157425D01*
X142950Y156814D01*
X142086Y155950D01*
X141475Y154892D01*
X141158Y153711D01*
Y153600D01*
X145300D01*
Y157742D01*
D02*
G37*
G36*
X197006Y155808D02*
X194459D01*
Y153300D01*
X197006D01*
Y155808D01*
D02*
G37*
G36*
X46783Y162029D02*
X45617D01*
X44490Y161727D01*
X43481Y161144D01*
X42656Y160320D01*
X42073Y159310D01*
X41771Y158183D01*
Y157017D01*
X42073Y155890D01*
X42656Y154880D01*
X43481Y154056D01*
X44490Y153473D01*
X45617Y153171D01*
X46783D01*
X47910Y153473D01*
X48919Y154056D01*
X49744Y154880D01*
X50327Y155890D01*
X50629Y157017D01*
Y158183D01*
X50327Y159310D01*
X49744Y160320D01*
X48919Y161144D01*
X47910Y161727D01*
X46783Y162029D01*
D02*
G37*
G36*
X30842Y157100D02*
X26700D01*
Y152958D01*
X26811D01*
X27992Y153275D01*
X29050Y153886D01*
X29914Y154750D01*
X30525Y155808D01*
X30842Y156989D01*
Y157100D01*
D02*
G37*
G36*
X25700D02*
X21558D01*
Y156989D01*
X21875Y155808D01*
X22486Y154750D01*
X23350Y153886D01*
X24408Y153275D01*
X25589Y152958D01*
X25700D01*
Y157100D01*
D02*
G37*
G36*
X292433Y157087D02*
X291567D01*
X290731Y156863D01*
X289982Y156431D01*
X289369Y155818D01*
X288937Y155069D01*
X288713Y154233D01*
Y153367D01*
X288937Y152531D01*
X289369Y151781D01*
X289982Y151169D01*
X290731Y150737D01*
X291567Y150513D01*
X292433D01*
X293269Y150737D01*
X294019Y151169D01*
X294631Y151781D01*
X295063Y152531D01*
X295287Y153367D01*
Y154233D01*
X295063Y155069D01*
X294631Y155818D01*
X294019Y156431D01*
X293269Y156863D01*
X292433Y157087D01*
D02*
G37*
G36*
X286954Y153043D02*
X283965D01*
Y150054D01*
X284816Y150282D01*
X285614Y150743D01*
X286265Y151394D01*
X286726Y152192D01*
X286954Y153043D01*
D02*
G37*
G36*
X282965D02*
X279975D01*
X280203Y152192D01*
X280664Y151394D01*
X281315Y150743D01*
X282114Y150282D01*
X282965Y150054D01*
Y153043D01*
D02*
G37*
G36*
X197006Y152300D02*
X194459D01*
Y149792D01*
X197006D01*
Y152300D01*
D02*
G37*
G36*
X262842Y153400D02*
X258700D01*
Y149258D01*
X258811D01*
X259992Y149575D01*
X261050Y150186D01*
X261914Y151050D01*
X262525Y152108D01*
X262842Y153289D01*
Y153400D01*
D02*
G37*
G36*
X257700D02*
X253558D01*
Y153289D01*
X253875Y152108D01*
X254486Y151050D01*
X255350Y150186D01*
X256408Y149575D01*
X257589Y149258D01*
X257700D01*
Y153400D01*
D02*
G37*
G36*
X150442Y152600D02*
X146300D01*
Y148458D01*
X146411D01*
X147592Y148775D01*
X148650Y149386D01*
X149514Y150250D01*
X150125Y151308D01*
X150442Y152489D01*
Y152600D01*
D02*
G37*
G36*
X145300D02*
X141158D01*
Y152489D01*
X141475Y151308D01*
X142086Y150250D01*
X142950Y149386D01*
X144008Y148775D01*
X145189Y148458D01*
X145300D01*
Y152600D01*
D02*
G37*
G36*
X314762Y159587D02*
X313238D01*
X311766Y159193D01*
X310447Y158431D01*
X309369Y157353D01*
X308607Y156034D01*
X308213Y154562D01*
Y153038D01*
X308607Y151566D01*
X309369Y150247D01*
X310447Y149169D01*
X311766Y148407D01*
X313238Y148013D01*
X314762D01*
X316234Y148407D01*
X317553Y149169D01*
X318631Y150247D01*
X319393Y151566D01*
X319787Y153038D01*
Y154562D01*
X319393Y156034D01*
X318631Y157353D01*
X317553Y158431D01*
X316234Y159193D01*
X314762Y159587D01*
D02*
G37*
G36*
X129183Y156629D02*
X128017D01*
X126890Y156327D01*
X125880Y155744D01*
X125056Y154920D01*
X124473Y153910D01*
X124171Y152783D01*
Y151617D01*
X124473Y150490D01*
X125056Y149480D01*
X125880Y148656D01*
X126890Y148073D01*
X128017Y147771D01*
X129183D01*
X130310Y148073D01*
X131320Y148656D01*
X132144Y149480D01*
X132727Y150490D01*
X133029Y151617D01*
Y152783D01*
X132727Y153910D01*
X132144Y154920D01*
X131320Y155744D01*
X130310Y156327D01*
X129183Y156629D01*
D02*
G37*
G36*
X89183D02*
X88017D01*
X86890Y156327D01*
X85880Y155744D01*
X85056Y154920D01*
X84473Y153910D01*
X84171Y152783D01*
Y151617D01*
X84473Y150490D01*
X85056Y149480D01*
X85880Y148656D01*
X86890Y148073D01*
X88017Y147771D01*
X89183D01*
X90310Y148073D01*
X91320Y148656D01*
X92144Y149480D01*
X92727Y150490D01*
X93029Y151617D01*
Y152783D01*
X92727Y153910D01*
X92144Y154920D01*
X91320Y155744D01*
X90310Y156327D01*
X89183Y156629D01*
D02*
G37*
G36*
X185584Y190028D02*
X173616D01*
Y180330D01*
X173165Y179879D01*
X172817Y179358D01*
X172694Y178743D01*
X172694Y178743D01*
Y156684D01*
X172220Y156411D01*
X171589Y155780D01*
X171143Y155008D01*
X170913Y154146D01*
Y153254D01*
X171143Y152392D01*
X171589Y151620D01*
X172220Y150989D01*
X172993Y150543D01*
X173854Y150313D01*
X174746D01*
X175275Y150454D01*
X176869Y148860D01*
Y146872D01*
X176369Y146662D01*
X175690Y147055D01*
X174800Y147293D01*
Y143700D01*
Y140107D01*
X174901Y140134D01*
X175160Y139686D01*
X174501Y139027D01*
X174153Y138506D01*
X174031Y137892D01*
X174031Y137892D01*
Y135096D01*
X173657Y134880D01*
X173056Y134280D01*
X172632Y133545D01*
X172412Y132724D01*
Y131876D01*
X172632Y131055D01*
X173056Y130320D01*
X173657Y129720D01*
X174392Y129295D01*
X175212Y129076D01*
X176061D01*
X176881Y129295D01*
X177616Y129720D01*
X178217Y130320D01*
X178641Y131055D01*
X178861Y131876D01*
Y132724D01*
X178641Y133545D01*
X178217Y134280D01*
X177616Y134880D01*
X177242Y135096D01*
Y137227D01*
X179610Y139595D01*
X179610Y139595D01*
X179958Y140116D01*
X180080Y140730D01*
X180080Y140730D01*
Y149525D01*
X180080Y149525D01*
X179958Y150140D01*
X179610Y150661D01*
X177546Y152725D01*
X177687Y153254D01*
Y154146D01*
X177456Y155008D01*
X177011Y155780D01*
X176380Y156411D01*
X175906Y156684D01*
Y178059D01*
X185584D01*
Y190028D01*
D02*
G37*
G36*
X167246Y152087D02*
X166354D01*
X165492Y151857D01*
X164720Y151411D01*
X164089Y150780D01*
X163644Y150007D01*
X163413Y149146D01*
Y148254D01*
X163644Y147392D01*
X164089Y146620D01*
X164720Y145989D01*
X165492Y145544D01*
X166354Y145313D01*
X167246D01*
X168107Y145544D01*
X168880Y145989D01*
X169511Y146620D01*
X169957Y147392D01*
X170187Y148254D01*
Y149146D01*
X169957Y150007D01*
X169511Y150780D01*
X168880Y151411D01*
X168107Y151857D01*
X167246Y152087D01*
D02*
G37*
G36*
X173800Y147293D02*
X172910Y147055D01*
X172090Y146581D01*
X171419Y145910D01*
X170945Y145090D01*
X170707Y144200D01*
X173800D01*
Y147293D01*
D02*
G37*
G36*
Y143200D02*
X170707D01*
X170945Y142310D01*
X171419Y141490D01*
X172090Y140819D01*
X172910Y140345D01*
X173800Y140107D01*
Y143200D01*
D02*
G37*
G36*
X256000Y141393D02*
Y138300D01*
X259093D01*
X258855Y139190D01*
X258381Y140010D01*
X257710Y140681D01*
X256890Y141155D01*
X256000Y141393D01*
D02*
G37*
G36*
X255000D02*
X254110Y141155D01*
X253290Y140681D01*
X252619Y140010D01*
X252145Y139190D01*
X251907Y138300D01*
X255000D01*
Y141393D01*
D02*
G37*
G36*
X129283Y144329D02*
X128117D01*
X126990Y144027D01*
X125980Y143444D01*
X125156Y142620D01*
X124573Y141610D01*
X124271Y140483D01*
Y139317D01*
X124573Y138190D01*
X125156Y137180D01*
X125980Y136356D01*
X126990Y135773D01*
X128117Y135471D01*
X129283D01*
X130410Y135773D01*
X131420Y136356D01*
X132244Y137180D01*
X132827Y138190D01*
X133129Y139317D01*
Y140483D01*
X132827Y141610D01*
X132244Y142620D01*
X131420Y143444D01*
X130410Y144027D01*
X129283Y144329D01*
D02*
G37*
G36*
X259093Y137300D02*
X256000D01*
Y134207D01*
X256890Y134445D01*
X257710Y134919D01*
X258381Y135590D01*
X258855Y136410D01*
X259093Y137300D01*
D02*
G37*
G36*
X255000D02*
X251907D01*
X252145Y136410D01*
X252619Y135590D01*
X253290Y134919D01*
X254110Y134445D01*
X255000Y134207D01*
Y137300D01*
D02*
G37*
G36*
X149400Y135737D02*
X146463D01*
Y132800D01*
X149400D01*
Y135737D01*
D02*
G37*
G36*
X145463D02*
X142526D01*
Y132800D01*
X145463D01*
Y135737D01*
D02*
G37*
G36*
X263446Y136187D02*
X262554D01*
X261693Y135957D01*
X260920Y135511D01*
X260289Y134880D01*
X259843Y134107D01*
X259613Y133246D01*
Y132354D01*
X259843Y131492D01*
X260289Y130720D01*
X260920Y130089D01*
X261693Y129643D01*
X262554Y129413D01*
X263446D01*
X264307Y129643D01*
X265080Y130089D01*
X265711Y130720D01*
X266157Y131492D01*
X266387Y132354D01*
Y133246D01*
X266157Y134107D01*
X265711Y134880D01*
X265080Y135511D01*
X264307Y135957D01*
X263446Y136187D01*
D02*
G37*
G36*
X149400Y131800D02*
X146463D01*
Y128863D01*
X149400D01*
Y131800D01*
D02*
G37*
G36*
X145463D02*
X142526D01*
Y128863D01*
X145463D01*
Y131800D01*
D02*
G37*
G36*
X255946Y131187D02*
X255054D01*
X254192Y130956D01*
X253420Y130511D01*
X252789Y129880D01*
X252343Y129107D01*
X252113Y128246D01*
Y127354D01*
X252343Y126493D01*
X252789Y125720D01*
X253420Y125089D01*
X254192Y124644D01*
X255054Y124413D01*
X255946D01*
X256807Y124644D01*
X257580Y125089D01*
X258211Y125720D01*
X258657Y126493D01*
X258887Y127354D01*
Y128246D01*
X258657Y129107D01*
X258211Y129880D01*
X257580Y130511D01*
X256807Y130956D01*
X255946Y131187D01*
D02*
G37*
G36*
X177153Y126599D02*
X173700D01*
Y123540D01*
X177153D01*
Y126599D01*
D02*
G37*
G36*
X172700D02*
X169247D01*
Y123540D01*
X172700D01*
Y126599D01*
D02*
G37*
G36*
X285911Y127442D02*
X285800D01*
Y123300D01*
X289942D01*
Y123411D01*
X289625Y124592D01*
X289014Y125650D01*
X288150Y126514D01*
X287092Y127125D01*
X285911Y127442D01*
D02*
G37*
G36*
X284800D02*
X284689D01*
X283508Y127125D01*
X282450Y126514D01*
X281586Y125650D01*
X280975Y124592D01*
X280658Y123411D01*
Y123300D01*
X284800D01*
Y127442D01*
D02*
G37*
G36*
X177153Y122540D02*
X173700D01*
Y119481D01*
X177153D01*
Y122540D01*
D02*
G37*
G36*
X172700D02*
X169247D01*
Y119481D01*
X172700D01*
Y122540D01*
D02*
G37*
G36*
X289942Y122300D02*
X285800D01*
Y118158D01*
X285911D01*
X287092Y118475D01*
X288150Y119086D01*
X289014Y119950D01*
X289625Y121008D01*
X289942Y122189D01*
Y122300D01*
D02*
G37*
G36*
X284800D02*
X280658D01*
Y122189D01*
X280975Y121008D01*
X281586Y119950D01*
X282450Y119086D01*
X283508Y118475D01*
X284689Y118158D01*
X284800D01*
Y122300D01*
D02*
G37*
G36*
X268183Y126229D02*
X267017D01*
X265890Y125927D01*
X264880Y125344D01*
X264056Y124520D01*
X263473Y123510D01*
X263171Y122383D01*
Y121217D01*
X263473Y120090D01*
X264056Y119080D01*
X264880Y118256D01*
X265890Y117673D01*
X267017Y117371D01*
X268183D01*
X269310Y117673D01*
X270320Y118256D01*
X271144Y119080D01*
X271727Y120090D01*
X272029Y121217D01*
Y122383D01*
X271727Y123510D01*
X271144Y124520D01*
X270320Y125344D01*
X269310Y125927D01*
X268183Y126229D01*
D02*
G37*
G36*
X257224Y123161D02*
X256376D01*
X255555Y122941D01*
X254820Y122517D01*
X254220Y121916D01*
X253795Y121181D01*
X253576Y120361D01*
Y119512D01*
X253795Y118692D01*
X254220Y117957D01*
X254820Y117356D01*
X255555Y116932D01*
X256376Y116712D01*
X257224D01*
X258045Y116932D01*
X258780Y117356D01*
X259380Y117957D01*
X259805Y118692D01*
X260024Y119512D01*
Y120361D01*
X259805Y121181D01*
X259380Y121916D01*
X258780Y122517D01*
X258045Y122941D01*
X257224Y123161D01*
D02*
G37*
G36*
X372211Y120742D02*
X372100D01*
Y116600D01*
X376242D01*
Y116711D01*
X375925Y117892D01*
X375314Y118950D01*
X374450Y119814D01*
X373392Y120425D01*
X372211Y120742D01*
D02*
G37*
G36*
X371100D02*
X370989D01*
X369808Y120425D01*
X368750Y119814D01*
X367886Y118950D01*
X367275Y117892D01*
X366958Y116711D01*
Y116600D01*
X371100D01*
Y120742D01*
D02*
G37*
G36*
X26611Y120142D02*
X26500D01*
Y116000D01*
X30642D01*
Y116111D01*
X30325Y117292D01*
X29714Y118350D01*
X28850Y119214D01*
X27792Y119825D01*
X26611Y120142D01*
D02*
G37*
G36*
X25500D02*
X25389D01*
X24208Y119825D01*
X23150Y119214D01*
X22286Y118350D01*
X21675Y117292D01*
X21358Y116111D01*
Y116000D01*
X25500D01*
Y120142D01*
D02*
G37*
G36*
X352183Y120529D02*
X351017D01*
X349890Y120227D01*
X348881Y119644D01*
X348056Y118820D01*
X347473Y117810D01*
X347171Y116683D01*
Y115517D01*
X347473Y114390D01*
X348056Y113380D01*
X348881Y112556D01*
X349890Y111973D01*
X351017Y111671D01*
X352183D01*
X353310Y111973D01*
X354320Y112556D01*
X355144Y113380D01*
X355727Y114390D01*
X356029Y115517D01*
Y116683D01*
X355727Y117810D01*
X355144Y118820D01*
X354320Y119644D01*
X353310Y120227D01*
X352183Y120529D01*
D02*
G37*
G36*
X376242Y115600D02*
X372100D01*
Y111458D01*
X372211D01*
X373392Y111775D01*
X374450Y112386D01*
X375314Y113250D01*
X375925Y114308D01*
X376242Y115489D01*
Y115600D01*
D02*
G37*
G36*
X371100D02*
X366958D01*
Y115489D01*
X367275Y114308D01*
X367886Y113250D01*
X368750Y112386D01*
X369808Y111775D01*
X370989Y111458D01*
X371100D01*
Y115600D01*
D02*
G37*
G36*
X46583Y119929D02*
X45417D01*
X44290Y119627D01*
X43281Y119044D01*
X42456Y118220D01*
X41873Y117210D01*
X41571Y116083D01*
Y114917D01*
X41873Y113790D01*
X42456Y112780D01*
X43281Y111956D01*
X44290Y111373D01*
X45417Y111071D01*
X46583D01*
X47710Y111373D01*
X48719Y111956D01*
X49544Y112780D01*
X50127Y113790D01*
X50429Y114917D01*
Y116083D01*
X50127Y117210D01*
X49544Y118220D01*
X48719Y119044D01*
X47710Y119627D01*
X46583Y119929D01*
D02*
G37*
G36*
X30642Y115000D02*
X26500D01*
Y110858D01*
X26611D01*
X27792Y111175D01*
X28850Y111786D01*
X29714Y112650D01*
X30325Y113708D01*
X30642Y114889D01*
Y115000D01*
D02*
G37*
G36*
X25500D02*
X21358D01*
Y114889D01*
X21675Y113708D01*
X22286Y112650D01*
X23150Y111786D01*
X24208Y111175D01*
X25389Y110858D01*
X25500D01*
Y115000D01*
D02*
G37*
G36*
X285883Y117229D02*
X284717D01*
X283590Y116927D01*
X282580Y116344D01*
X281756Y115520D01*
X281173Y114510D01*
X280871Y113383D01*
Y112217D01*
X281173Y111090D01*
X281756Y110080D01*
X282580Y109256D01*
X283590Y108673D01*
X284717Y108371D01*
X285883D01*
X287010Y108673D01*
X288019Y109256D01*
X288844Y110080D01*
X289427Y111090D01*
X289729Y112217D01*
Y113383D01*
X289427Y114510D01*
X288844Y115520D01*
X288019Y116344D01*
X287010Y116927D01*
X285883Y117229D01*
D02*
G37*
G36*
X297517Y102911D02*
X289683D01*
Y95076D01*
X297517D01*
Y102911D01*
D02*
G37*
G36*
X282383Y103029D02*
X281217D01*
X280090Y102727D01*
X279081Y102144D01*
X278256Y101320D01*
X277673Y100310D01*
X277371Y99183D01*
Y98017D01*
X277673Y96890D01*
X278256Y95880D01*
X279081Y95056D01*
X280090Y94473D01*
X281217Y94171D01*
X282383D01*
X283510Y94473D01*
X284520Y95056D01*
X285344Y95880D01*
X285927Y96890D01*
X286229Y98017D01*
Y99183D01*
X285927Y100310D01*
X285344Y101320D01*
X284520Y102144D01*
X283510Y102727D01*
X282383Y103029D01*
D02*
G37*
G36*
X260237Y93700D02*
X257300D01*
Y90763D01*
X260237D01*
Y93700D01*
D02*
G37*
G36*
Y89763D02*
X257300D01*
Y86826D01*
X260237D01*
Y89763D01*
D02*
G37*
G36*
X268183Y86229D02*
X267017D01*
X265890Y85927D01*
X264880Y85344D01*
X264056Y84520D01*
X263473Y83510D01*
X263171Y82383D01*
Y81217D01*
X263473Y80090D01*
X264056Y79080D01*
X264880Y78256D01*
X265890Y77673D01*
X267017Y77371D01*
X268183D01*
X269310Y77673D01*
X270320Y78256D01*
X271144Y79080D01*
X271727Y80090D01*
X272029Y81217D01*
Y82383D01*
X271727Y83510D01*
X271144Y84520D01*
X270320Y85344D01*
X269310Y85927D01*
X268183Y86229D01*
D02*
G37*
G36*
X372211Y78642D02*
X372100D01*
Y74500D01*
X376242D01*
Y74611D01*
X375925Y75792D01*
X375314Y76850D01*
X374450Y77714D01*
X373392Y78325D01*
X372211Y78642D01*
D02*
G37*
G36*
X371100D02*
X370989D01*
X369808Y78325D01*
X368750Y77714D01*
X367886Y76850D01*
X367275Y75792D01*
X366958Y74611D01*
Y74500D01*
X371100D01*
Y78642D01*
D02*
G37*
G36*
X26611Y77142D02*
X26500D01*
Y73000D01*
X30642D01*
Y73111D01*
X30325Y74292D01*
X29714Y75350D01*
X28850Y76214D01*
X27792Y76825D01*
X26611Y77142D01*
D02*
G37*
G36*
X25500D02*
X25389D01*
X24208Y76825D01*
X23150Y76214D01*
X22286Y75350D01*
X21675Y74292D01*
X21358Y73111D01*
Y73000D01*
X25500D01*
Y77142D01*
D02*
G37*
G36*
X352183Y78429D02*
X351017D01*
X349890Y78127D01*
X348881Y77544D01*
X348056Y76720D01*
X347473Y75710D01*
X347171Y74583D01*
Y73417D01*
X347473Y72290D01*
X348056Y71280D01*
X348881Y70456D01*
X349890Y69873D01*
X351017Y69571D01*
X352183D01*
X353310Y69873D01*
X354320Y70456D01*
X355144Y71280D01*
X355727Y72290D01*
X356029Y73417D01*
Y74583D01*
X355727Y75710D01*
X355144Y76720D01*
X354320Y77544D01*
X353310Y78127D01*
X352183Y78429D01*
D02*
G37*
G36*
X376242Y73500D02*
X372100D01*
Y69358D01*
X372211D01*
X373392Y69675D01*
X374450Y70286D01*
X375314Y71150D01*
X375925Y72208D01*
X376242Y73389D01*
Y73500D01*
D02*
G37*
G36*
X371100D02*
X366958D01*
Y73389D01*
X367275Y72208D01*
X367886Y71150D01*
X368750Y70286D01*
X369808Y69675D01*
X370989Y69358D01*
X371100D01*
Y73500D01*
D02*
G37*
G36*
X46583Y76929D02*
X45417D01*
X44290Y76627D01*
X43281Y76044D01*
X42456Y75220D01*
X41873Y74210D01*
X41571Y73083D01*
Y71917D01*
X41873Y70790D01*
X42456Y69780D01*
X43281Y68956D01*
X44290Y68373D01*
X45417Y68071D01*
X46583D01*
X47710Y68373D01*
X48719Y68956D01*
X49544Y69780D01*
X50127Y70790D01*
X50429Y71917D01*
Y73083D01*
X50127Y74210D01*
X49544Y75220D01*
X48719Y76044D01*
X47710Y76627D01*
X46583Y76929D01*
D02*
G37*
G36*
X30642Y72000D02*
X26500D01*
Y67858D01*
X26611D01*
X27792Y68175D01*
X28850Y68786D01*
X29714Y69650D01*
X30325Y70708D01*
X30642Y71889D01*
Y72000D01*
D02*
G37*
G36*
X25500D02*
X21358D01*
Y71889D01*
X21675Y70708D01*
X22286Y69650D01*
X23150Y68786D01*
X24208Y68175D01*
X25389Y67858D01*
X25500D01*
Y72000D01*
D02*
G37*
G36*
X263194Y75256D02*
X262206D01*
X261250Y75000D01*
X260394Y74506D01*
X259695Y73806D01*
X259200Y72950D01*
X258944Y71995D01*
Y71005D01*
X259200Y70050D01*
X259695Y69194D01*
X260394Y68494D01*
X261250Y68000D01*
X262206Y67744D01*
X263194D01*
X264150Y68000D01*
X265006Y68494D01*
X265705Y69194D01*
X266200Y70050D01*
X266456Y71005D01*
Y71995D01*
X266200Y72950D01*
X265705Y73806D01*
X265006Y74506D01*
X264150Y75000D01*
X263194Y75256D01*
D02*
G37*
G36*
X266669Y65469D02*
X263200D01*
Y62000D01*
X266669D01*
Y65469D01*
D02*
G37*
G36*
X262200D02*
X258732D01*
Y62000D01*
X262200D01*
Y65469D01*
D02*
G37*
G36*
X294144Y62336D02*
X294100D01*
Y58706D01*
X297730D01*
Y58750D01*
X297448Y59800D01*
X296905Y60742D01*
X296136Y61511D01*
X295194Y62055D01*
X294144Y62336D01*
D02*
G37*
G36*
X293100D02*
X293056D01*
X292006Y62055D01*
X291064Y61511D01*
X290295Y60742D01*
X289752Y59800D01*
X289470Y58750D01*
Y58706D01*
X293100D01*
Y62336D01*
D02*
G37*
G36*
X266669Y61000D02*
X263200D01*
Y57531D01*
X266669D01*
Y61000D01*
D02*
G37*
G36*
X262200D02*
X258732D01*
Y57531D01*
X262200D01*
Y61000D01*
D02*
G37*
G36*
X282383Y63029D02*
X281217D01*
X280090Y62727D01*
X279081Y62144D01*
X278256Y61320D01*
X277673Y60310D01*
X277371Y59183D01*
Y58017D01*
X277673Y56890D01*
X278256Y55880D01*
X279081Y55056D01*
X280090Y54473D01*
X281217Y54171D01*
X282383D01*
X283510Y54473D01*
X284520Y55056D01*
X285344Y55880D01*
X285927Y56890D01*
X286229Y58017D01*
Y59183D01*
X285927Y60310D01*
X285344Y61320D01*
X284520Y62144D01*
X283510Y62727D01*
X282383Y63029D01*
D02*
G37*
G36*
X297730Y57706D02*
X294100D01*
Y54076D01*
X294144D01*
X295194Y54358D01*
X296136Y54901D01*
X296905Y55670D01*
X297448Y56612D01*
X297730Y57663D01*
Y57706D01*
D02*
G37*
G36*
X293100D02*
X289470D01*
Y57663D01*
X289752Y56612D01*
X290295Y55670D01*
X291064Y54901D01*
X292006Y54358D01*
X293056Y54076D01*
X293100D01*
Y57706D01*
D02*
G37*
G36*
X111160Y50900D02*
X109400D01*
Y49140D01*
X110191Y49468D01*
X110833Y50109D01*
X111160Y50900D01*
D02*
G37*
G36*
X108400D02*
X106640D01*
X106967Y50109D01*
X107609Y49468D01*
X108400Y49140D01*
Y50900D01*
D02*
G37*
G36*
X147419Y51857D02*
X144360D01*
Y48404D01*
X147419D01*
Y51857D01*
D02*
G37*
G36*
X143360D02*
X140301D01*
Y48404D01*
X143360D01*
Y51857D01*
D02*
G37*
G36*
X147419Y47405D02*
X144360D01*
Y43952D01*
X147419D01*
Y47405D01*
D02*
G37*
G36*
X143360D02*
X140301D01*
Y43952D01*
X143360D01*
Y47405D01*
D02*
G37*
G36*
X277880Y45761D02*
X275411D01*
Y43883D01*
X277880D01*
Y45761D01*
D02*
G37*
G36*
X274411D02*
X271942D01*
Y43883D01*
X274411D01*
Y45761D01*
D02*
G37*
G36*
X84846Y44150D02*
Y41161D01*
X87835D01*
X87607Y42011D01*
X87146Y42810D01*
X86495Y43461D01*
X85697Y43922D01*
X84846Y44150D01*
D02*
G37*
G36*
X83846D02*
X82995Y43922D01*
X82196Y43461D01*
X81545Y42810D01*
X81084Y42011D01*
X80856Y41161D01*
X83846D01*
Y44150D01*
D02*
G37*
G36*
X277880Y42884D02*
X275411D01*
Y41006D01*
X277880D01*
Y42884D01*
D02*
G37*
G36*
X274411D02*
X271942D01*
Y41006D01*
X274411D01*
Y42884D01*
D02*
G37*
G36*
X87835Y40161D02*
X84846D01*
Y37171D01*
X85697Y37399D01*
X86495Y37860D01*
X87146Y38511D01*
X87607Y39309D01*
X87835Y40161D01*
D02*
G37*
G36*
X83846D02*
X80856D01*
X81084Y39309D01*
X81545Y38511D01*
X82196Y37860D01*
X82995Y37399D01*
X83846Y37171D01*
Y40161D01*
D02*
G37*
G36*
X162045Y39449D02*
X156533D01*
Y35118D01*
X162045D01*
Y39449D01*
D02*
G37*
G36*
X372211Y35942D02*
X372100D01*
Y31800D01*
X376242D01*
Y31911D01*
X375925Y33092D01*
X375314Y34150D01*
X374450Y35014D01*
X373392Y35625D01*
X372211Y35942D01*
D02*
G37*
G36*
X371100D02*
X370989D01*
X369808Y35625D01*
X368750Y35014D01*
X367886Y34150D01*
X367275Y33092D01*
X366958Y31911D01*
Y31800D01*
X371100D01*
Y35942D01*
D02*
G37*
G36*
X26611Y35042D02*
X26500D01*
Y30900D01*
X30642D01*
Y31011D01*
X30325Y32192D01*
X29714Y33250D01*
X28850Y34114D01*
X27792Y34725D01*
X26611Y35042D01*
D02*
G37*
G36*
X25500D02*
X25389D01*
X24208Y34725D01*
X23150Y34114D01*
X22286Y33250D01*
X21675Y32192D01*
X21358Y31011D01*
Y30900D01*
X25500D01*
Y35042D01*
D02*
G37*
G36*
X352183Y35729D02*
X351017D01*
X349890Y35427D01*
X348881Y34844D01*
X348056Y34020D01*
X347473Y33010D01*
X347171Y31883D01*
Y30717D01*
X347473Y29590D01*
X348056Y28580D01*
X348881Y27756D01*
X349890Y27173D01*
X351017Y26871D01*
X352183D01*
X353310Y27173D01*
X354320Y27756D01*
X355144Y28580D01*
X355727Y29590D01*
X356029Y30717D01*
Y31883D01*
X355727Y33010D01*
X355144Y34020D01*
X354320Y34844D01*
X353310Y35427D01*
X352183Y35729D01*
D02*
G37*
G36*
X376242Y30800D02*
X372100D01*
Y26658D01*
X372211D01*
X373392Y26975D01*
X374450Y27586D01*
X375314Y28450D01*
X375925Y29508D01*
X376242Y30689D01*
Y30800D01*
D02*
G37*
G36*
X371100D02*
X366958D01*
Y30689D01*
X367275Y29508D01*
X367886Y28450D01*
X368750Y27586D01*
X369808Y26975D01*
X370989Y26658D01*
X371100D01*
Y30800D01*
D02*
G37*
G36*
X277667Y30982D02*
X272155D01*
Y26651D01*
X277667D01*
Y30982D01*
D02*
G37*
G36*
X46583Y34829D02*
X45417D01*
X44290Y34527D01*
X43281Y33944D01*
X42456Y33119D01*
X41873Y32110D01*
X41571Y30983D01*
Y29817D01*
X41873Y28690D01*
X42456Y27681D01*
X43281Y26856D01*
X44290Y26273D01*
X45417Y25971D01*
X46583D01*
X47710Y26273D01*
X48719Y26856D01*
X49544Y27681D01*
X50127Y28690D01*
X50429Y29817D01*
Y30983D01*
X50127Y32110D01*
X49544Y33119D01*
X48719Y33944D01*
X47710Y34527D01*
X46583Y34829D01*
D02*
G37*
G36*
X30642Y29900D02*
X26500D01*
Y25758D01*
X26611D01*
X27792Y26075D01*
X28850Y26686D01*
X29714Y27550D01*
X30325Y28608D01*
X30642Y29789D01*
Y29900D01*
D02*
G37*
G36*
X25500D02*
X21358D01*
Y29789D01*
X21675Y28608D01*
X22286Y27550D01*
X23150Y26686D01*
X24208Y26075D01*
X25389Y25758D01*
X25500D01*
Y29900D01*
D02*
G37*
G36*
X75330Y27622D02*
X75303D01*
Y24122D01*
X78803D01*
Y24149D01*
X78531Y25166D01*
X78004Y26078D01*
X77259Y26823D01*
X76347Y27349D01*
X75330Y27622D01*
D02*
G37*
G36*
X74303D02*
X74277D01*
X73259Y27349D01*
X72347Y26823D01*
X71602Y26078D01*
X71076Y25166D01*
X70803Y24149D01*
Y24122D01*
X74303D01*
Y27622D01*
D02*
G37*
G36*
X115527Y27600D02*
X115500D01*
Y24100D01*
X119000D01*
Y24127D01*
X118727Y25144D01*
X118201Y26056D01*
X117456Y26801D01*
X116544Y27327D01*
X115527Y27600D01*
D02*
G37*
G36*
X114500D02*
X114473D01*
X113456Y27327D01*
X112544Y26801D01*
X111799Y26056D01*
X111273Y25144D01*
X111000Y24127D01*
Y24100D01*
X114500D01*
Y27600D01*
D02*
G37*
G36*
X162258Y25095D02*
X159789D01*
Y23216D01*
X162258D01*
Y25095D01*
D02*
G37*
G36*
X158789D02*
X156321D01*
Y23216D01*
X158789D01*
Y25095D01*
D02*
G37*
G36*
X162258Y22217D02*
X159789D01*
Y20339D01*
X162258D01*
Y22217D01*
D02*
G37*
G36*
X158789D02*
X156321D01*
Y20339D01*
X158789D01*
Y22217D01*
D02*
G37*
G36*
X95302Y27409D02*
X94305D01*
X93341Y27151D01*
X92478Y26653D01*
X91773Y25948D01*
X91274Y25084D01*
X91016Y24121D01*
Y23123D01*
X91274Y22160D01*
X91773Y21296D01*
X92478Y20591D01*
X93341Y20093D01*
X94305Y19835D01*
X95302D01*
X96265Y20093D01*
X97129Y20591D01*
X97834Y21296D01*
X98332Y22160D01*
X98590Y23123D01*
Y24121D01*
X98332Y25084D01*
X97834Y25948D01*
X97129Y26653D01*
X96265Y27151D01*
X95302Y27409D01*
D02*
G37*
G36*
X135499Y27387D02*
X134501D01*
X133538Y27129D01*
X132675Y26631D01*
X131969Y25925D01*
X131471Y25062D01*
X131213Y24099D01*
Y23101D01*
X131471Y22138D01*
X131969Y21274D01*
X132675Y20569D01*
X133538Y20071D01*
X134501Y19813D01*
X135499D01*
X136462Y20071D01*
X137326Y20569D01*
X138031Y21274D01*
X138529Y22138D01*
X138787Y23101D01*
Y24099D01*
X138529Y25062D01*
X138031Y25925D01*
X137326Y26631D01*
X136462Y27129D01*
X135499Y27387D01*
D02*
G37*
G36*
X78803Y23122D02*
X75303D01*
Y19622D01*
X75330D01*
X76347Y19895D01*
X77259Y20421D01*
X78004Y21166D01*
X78531Y22078D01*
X78803Y23095D01*
Y23122D01*
D02*
G37*
G36*
X74303D02*
X70803D01*
Y23095D01*
X71076Y22078D01*
X71602Y21166D01*
X72347Y20421D01*
X73259Y19895D01*
X74277Y19622D01*
X74303D01*
Y23122D01*
D02*
G37*
G36*
X119000Y23100D02*
X115500D01*
Y19600D01*
X115527D01*
X116544Y19873D01*
X117456Y20399D01*
X118201Y21144D01*
X118727Y22056D01*
X119000Y23073D01*
Y23100D01*
D02*
G37*
G36*
X114500D02*
X111000D01*
Y23073D01*
X111273Y22056D01*
X111799Y21144D01*
X112544Y20399D01*
X113456Y19873D01*
X114473Y19600D01*
X114500D01*
Y23100D01*
D02*
G37*
G36*
X314762Y19587D02*
X313238D01*
X311766Y19193D01*
X310447Y18431D01*
X309369Y17354D01*
X308607Y16034D01*
X308213Y14562D01*
Y13038D01*
X308607Y11566D01*
X309369Y10246D01*
X310447Y9169D01*
X311766Y8407D01*
X313238Y8013D01*
X314762D01*
X316234Y8407D01*
X317553Y9169D01*
X318631Y10246D01*
X319393Y11566D01*
X319787Y13038D01*
Y14562D01*
X319393Y16034D01*
X318631Y17354D01*
X317553Y18431D01*
X316234Y19193D01*
X314762Y19587D01*
D02*
G37*
%LPD*%
G36*
X243824Y151794D02*
X240148Y148119D01*
X239800Y147598D01*
X239678Y146984D01*
X239678Y146983D01*
Y136138D01*
X239183Y136061D01*
X238835Y136582D01*
X237087Y138331D01*
Y143540D01*
X230394D01*
Y136060D01*
X234816D01*
X236094Y134781D01*
Y132128D01*
X234905D01*
Y126459D01*
X234905D01*
Y126341D01*
X234905D01*
Y125112D01*
X233095D01*
Y126341D01*
X233095Y126341D01*
Y126459D01*
X233095D01*
X233095Y126841D01*
Y132128D01*
X229959D01*
X229752Y132628D01*
X230133Y133009D01*
X230460Y133800D01*
X228200D01*
Y134800D01*
X230460D01*
X230133Y135591D01*
X229606Y136117D01*
Y143540D01*
X225185D01*
X224994Y144002D01*
X233286Y152294D01*
X243617D01*
X243824Y151794D01*
D02*
G37*
G36*
X215305Y143151D02*
Y139753D01*
X215305D01*
Y139635D01*
X215305D01*
Y133965D01*
X216694D01*
Y133079D01*
X216594Y132930D01*
X216510Y132507D01*
Y125342D01*
X216594Y124919D01*
X216834Y124561D01*
X217192Y124322D01*
X217614Y124238D01*
X218803D01*
X220704Y122336D01*
X220704Y122336D01*
X221225Y121988D01*
X221840Y121866D01*
X221840Y121866D01*
X225160D01*
X225160Y121866D01*
X225775Y121988D01*
X226296Y122336D01*
X227043Y123083D01*
X227505Y122892D01*
Y121468D01*
X226190D01*
X226190Y121468D01*
X225575Y121346D01*
X225054Y120998D01*
X218219Y114162D01*
X217614D01*
X217192Y114078D01*
X216834Y113839D01*
X216594Y113481D01*
X216510Y113058D01*
Y105893D01*
X216290Y105625D01*
X215710D01*
X215490Y105893D01*
Y113058D01*
X215406Y113481D01*
X215166Y113839D01*
X214808Y114078D01*
X214386Y114162D01*
X212614D01*
X212192Y114078D01*
X211834Y113839D01*
X211594Y113481D01*
X211510Y113058D01*
Y111081D01*
X210490D01*
Y113058D01*
X210406Y113481D01*
X210166Y113839D01*
X209808Y114078D01*
X209386Y114162D01*
X207614D01*
X207365Y114113D01*
X206865Y114416D01*
Y117978D01*
X207166Y118290D01*
X207329Y118371D01*
X207420Y118347D01*
X207768Y117509D01*
X208409Y116867D01*
X209200Y116540D01*
Y118800D01*
X209700D01*
Y119300D01*
X211960D01*
X211632Y120091D01*
X210991Y120732D01*
X210153Y121080D01*
X210106D01*
Y124265D01*
X210320Y124408D01*
X210606Y124836D01*
X210706Y125342D01*
Y128424D01*
X208500D01*
Y129424D01*
X210706D01*
Y132507D01*
X210606Y133012D01*
X210320Y133441D01*
X210133Y133565D01*
X210285Y134065D01*
X211325D01*
X211501Y133889D01*
Y129318D01*
X211501Y129318D01*
X211510Y129270D01*
Y125342D01*
X211594Y124919D01*
X211834Y124561D01*
X212192Y124322D01*
X212614Y124238D01*
X214386D01*
X214808Y124322D01*
X215166Y124561D01*
X215406Y124919D01*
X215490Y125342D01*
Y132507D01*
X215406Y132930D01*
X215166Y133288D01*
X214808Y133527D01*
X214712Y133546D01*
Y134554D01*
X214712Y134554D01*
X214590Y135169D01*
X214242Y135690D01*
X213595Y136336D01*
Y139735D01*
X213595D01*
Y139853D01*
X213595D01*
Y144154D01*
X214095Y144361D01*
X215305Y143151D01*
D02*
G37*
G36*
X239116Y111453D02*
X238909Y110953D01*
X237240D01*
Y107000D01*
Y103047D01*
X239268D01*
Y72555D01*
X238962Y72097D01*
X238915Y71861D01*
X230813Y63758D01*
X230208D01*
X229785Y63674D01*
X229574Y63533D01*
X229388Y63811D01*
X228353Y64847D01*
X227989Y65090D01*
X227558Y65176D01*
X223377D01*
X222947Y65090D01*
X222718Y64937D01*
X222218Y65132D01*
Y70358D01*
X225693Y73834D01*
X226979D01*
X227402Y73918D01*
X227760Y74157D01*
X227999Y74515D01*
X228083Y74938D01*
Y82103D01*
X227999Y82526D01*
X227760Y82884D01*
X227402Y83123D01*
X226979Y83207D01*
X225208D01*
X225145Y83195D01*
X224795Y83635D01*
X225045Y84239D01*
Y84692D01*
X225313D01*
Y87700D01*
X226313D01*
Y84692D01*
X228860D01*
Y84905D01*
X229994D01*
Y83783D01*
X229882Y83217D01*
X229785Y83123D01*
X229427Y82884D01*
X229188Y82526D01*
X229104Y82103D01*
Y74938D01*
X229188Y74515D01*
X229427Y74157D01*
X229785Y73918D01*
X230208Y73834D01*
X231979D01*
X232402Y73918D01*
X232760Y74157D01*
X232999Y74515D01*
X233083Y74938D01*
Y78866D01*
X233093Y78914D01*
X233093Y78914D01*
Y82764D01*
X233206Y83330D01*
X233206Y83330D01*
Y84905D01*
X234435D01*
Y90495D01*
X233206D01*
Y92060D01*
X236787D01*
Y99540D01*
X232634D01*
X232356Y99956D01*
X232459Y100204D01*
X230199D01*
Y101204D01*
X232459D01*
X232131Y101995D01*
X231490Y102636D01*
X231192Y102760D01*
X231291Y103260D01*
X232606D01*
Y110740D01*
X232418D01*
Y113405D01*
X233647D01*
X233647Y113405D01*
X233765D01*
Y113405D01*
X234147Y113405D01*
X237164D01*
X239116Y111453D01*
D02*
G37*
G36*
X169460Y112213D02*
X170094D01*
Y109390D01*
X168117D01*
X167695Y109306D01*
X167337Y109066D01*
X167097Y108708D01*
X167013Y108286D01*
Y106514D01*
X167097Y106092D01*
X167337Y105734D01*
X167695Y105494D01*
X168117Y105410D01*
X175283D01*
X175705Y105494D01*
X175925Y105641D01*
X176951D01*
X177305Y105288D01*
X177305Y104259D01*
Y103965D01*
X176951Y103612D01*
X176322D01*
X176303Y103708D01*
X176063Y104066D01*
X175705Y104306D01*
X175283Y104390D01*
X168117D01*
X167695Y104306D01*
X167337Y104066D01*
X167097Y103708D01*
X167013Y103286D01*
Y101514D01*
X167097Y101092D01*
X167337Y100734D01*
X167695Y100494D01*
X168117Y100410D01*
X172045D01*
X172094Y100401D01*
X172094Y100401D01*
X177305D01*
Y98472D01*
X178494D01*
Y94352D01*
X176848Y92706D01*
X176387Y92897D01*
Y93286D01*
X176303Y93708D01*
X176063Y94066D01*
X175705Y94306D01*
X175283Y94390D01*
X173306D01*
Y95410D01*
X175283D01*
X175705Y95494D01*
X176063Y95734D01*
X176303Y96092D01*
X176387Y96514D01*
Y98286D01*
X176303Y98708D01*
X176063Y99066D01*
X175705Y99306D01*
X175283Y99390D01*
X168117D01*
X167695Y99306D01*
X167337Y99066D01*
X167097Y98708D01*
X167013Y98286D01*
Y96514D01*
X167097Y96092D01*
X167337Y95734D01*
X167695Y95494D01*
X168117Y95410D01*
X170094D01*
Y94390D01*
X168117D01*
X167695Y94306D01*
X167337Y94066D01*
X167097Y93708D01*
X167013Y93286D01*
Y91514D01*
X167097Y91092D01*
X167337Y90734D01*
X167695Y90494D01*
X168117Y90410D01*
X173899D01*
X174091Y89948D01*
X172117Y87975D01*
X171411Y88267D01*
X170589D01*
X169829Y87952D01*
X169583Y87706D01*
X167835D01*
Y88895D01*
X162547D01*
X162165Y88895D01*
X161665Y88895D01*
X160818D01*
Y98135D01*
X160818Y98135D01*
X160696Y98750D01*
X160348Y99271D01*
X156938Y102681D01*
Y103286D01*
X156854Y103708D01*
X156614Y104066D01*
X156256Y104306D01*
X155834Y104390D01*
X148669D01*
X148246Y104306D01*
X147888Y104066D01*
X147847Y104006D01*
X147187D01*
Y105501D01*
X147687Y105652D01*
X147735Y105580D01*
X148163Y105294D01*
X148669Y105193D01*
X151751D01*
Y107400D01*
X152251D01*
Y107900D01*
X157155D01*
Y108286D01*
X157054Y108791D01*
X156768Y109220D01*
X156339Y109506D01*
X155834Y109607D01*
X153606D01*
Y110282D01*
X153932Y110609D01*
X154260Y111400D01*
X152000D01*
Y112400D01*
X154260D01*
X154056Y112894D01*
X154383Y113394D01*
X156378D01*
Y112205D01*
X161665D01*
X162047Y112205D01*
X162547Y112205D01*
X167835D01*
Y113394D01*
X169460D01*
Y112213D01*
D02*
G37*
G36*
X116767Y100215D02*
X116702Y100076D01*
X116472Y99802D01*
X115952Y99906D01*
X115952Y99906D01*
X108604D01*
X108563Y99966D01*
X108205Y100206D01*
X107783Y100290D01*
X100617D01*
X100195Y100206D01*
X99837Y99966D01*
X99598Y99608D01*
X99513Y99186D01*
Y97414D01*
X99598Y96992D01*
X99837Y96634D01*
X100195Y96394D01*
X100617Y96310D01*
X107783D01*
X108205Y96394D01*
X108563Y96634D01*
X108604Y96694D01*
X115287D01*
X118962Y93019D01*
Y92414D01*
X119046Y91992D01*
X119286Y91634D01*
X119644Y91394D01*
X120066Y91310D01*
X126065D01*
X126407Y90968D01*
X126215Y90507D01*
X124149D01*
Y88300D01*
Y86093D01*
X124394D01*
Y83818D01*
X123968Y83391D01*
X123640Y82600D01*
X128160D01*
X127832Y83391D01*
X127606Y83618D01*
Y86168D01*
X127737Y86194D01*
X128165Y86480D01*
X128452Y86909D01*
X128552Y87414D01*
Y88169D01*
X129014Y88361D01*
X135152Y82223D01*
X135152Y82223D01*
X135673Y81875D01*
X136288Y81752D01*
X136288Y81752D01*
X142111D01*
X149457Y74407D01*
X149265Y73945D01*
X143663D01*
Y66464D01*
X145994D01*
Y62011D01*
X144542Y60559D01*
X140513D01*
Y58617D01*
X138195D01*
Y59846D01*
X138195D01*
Y59964D01*
X138195D01*
Y65633D01*
X136952D01*
Y67509D01*
X138128D01*
Y73100D01*
X135232D01*
X135169Y73195D01*
X135169Y73195D01*
X132056Y76308D01*
X131535Y76656D01*
X130921Y76778D01*
X130921Y76778D01*
X120799D01*
Y79200D01*
X117240D01*
X113681D01*
Y76778D01*
X113106D01*
Y83440D01*
X108290D01*
X107167Y84564D01*
Y84911D01*
X106852Y85671D01*
X106713Y85810D01*
X106920Y86310D01*
X107783D01*
X108205Y86394D01*
X108563Y86634D01*
X108802Y86992D01*
X108887Y87414D01*
Y89186D01*
X108802Y89608D01*
X108563Y89966D01*
X108205Y90206D01*
X107783Y90290D01*
X100617D01*
X100195Y90206D01*
X99837Y89966D01*
X99598Y89608D01*
X99513Y89186D01*
Y87414D01*
X99598Y86992D01*
X99837Y86634D01*
X100195Y86394D01*
X100617Y86310D01*
X102594D01*
Y85260D01*
X102717Y84645D01*
X103033Y84172D01*
Y84089D01*
X103348Y83329D01*
X103929Y82748D01*
X104689Y82433D01*
X104756D01*
X106413Y80776D01*
Y76778D01*
X96514D01*
X82953Y90339D01*
X83144Y90801D01*
X83900D01*
Y94360D01*
Y97919D01*
X81478D01*
Y98494D01*
X88140D01*
Y100088D01*
X90105D01*
Y98953D01*
X89892D01*
Y96406D01*
X92900D01*
X95908D01*
Y98953D01*
X95695D01*
Y101694D01*
X99796D01*
X99837Y101634D01*
X100195Y101394D01*
X100617Y101310D01*
X107783D01*
X108205Y101394D01*
X108563Y101634D01*
X108802Y101992D01*
X108887Y102414D01*
Y104186D01*
X109104Y104450D01*
X112531D01*
X116767Y100215D01*
D02*
G37*
G36*
X203238Y105149D02*
X203511Y104490D01*
X204093Y103909D01*
X204852Y103594D01*
X205560D01*
X205928Y103226D01*
X206383Y102922D01*
X206921Y102815D01*
X220941D01*
X221479Y102922D01*
X221934Y103226D01*
X223497Y104789D01*
X224386D01*
X224484Y104809D01*
X224731Y104348D01*
X222209Y101826D01*
X222134Y101811D01*
X221613Y101463D01*
X221613Y101463D01*
X220526Y100375D01*
X220178Y99854D01*
X220055Y99240D01*
X220055Y99240D01*
Y96554D01*
X219846Y96140D01*
X215975D01*
X215600Y96640D01*
X215657Y96928D01*
X215535Y97542D01*
X215456Y97660D01*
X215388Y97824D01*
X215159Y98123D01*
X215070Y98283D01*
X214720Y98700D01*
X209940D01*
X210267Y97909D01*
X210594Y97582D01*
Y96353D01*
X209520D01*
Y92400D01*
Y88447D01*
X210946D01*
X211190Y87859D01*
X211424Y87554D01*
X211590Y87331D01*
X211707Y87173D01*
X211717Y87152D01*
X211725Y87134D01*
X211726Y87133D01*
X211732Y87131D01*
X211732Y86692D01*
Y83624D01*
X211270Y83433D01*
X210151Y84552D01*
X209786Y84796D01*
X209356Y84881D01*
X202128D01*
X201697Y84796D01*
X201333Y84552D01*
X200223Y83442D01*
X195513D01*
Y77143D01*
X201813D01*
Y81853D01*
X202593Y82634D01*
X203387D01*
Y77143D01*
X204931D01*
Y71903D01*
X204266Y71238D01*
X198663D01*
Y63757D01*
X204266D01*
X204694Y63329D01*
Y61528D01*
X203505D01*
Y57946D01*
X203394Y57835D01*
X203005Y57611D01*
X202632Y57685D01*
X202632Y57685D01*
X201528D01*
Y60095D01*
X196241D01*
X195859Y60095D01*
X195359Y60095D01*
X192342D01*
X187685Y64753D01*
X187700Y64855D01*
X187727Y64991D01*
Y67825D01*
X187666Y68132D01*
X187492Y68393D01*
X186350Y69535D01*
X186118Y69690D01*
X186090Y69911D01*
Y69991D01*
X186118Y70213D01*
X186350Y70368D01*
X187492Y71509D01*
X187492Y71509D01*
X187666Y71770D01*
X187727Y72077D01*
Y77356D01*
X191991Y81621D01*
X192453D01*
X193291Y81968D01*
X193932Y82609D01*
X194260Y83400D01*
X192000D01*
Y83900D01*
X191500D01*
Y86160D01*
X190709Y85833D01*
X190068Y85191D01*
X189720Y84353D01*
Y83891D01*
X188189Y82360D01*
X187727Y82551D01*
Y82786D01*
X187700Y82921D01*
X187680Y83057D01*
X187670Y83074D01*
X187666Y83093D01*
X187590Y83208D01*
X187519Y83326D01*
X187334Y83529D01*
Y85306D01*
X187272Y85613D01*
X187098Y85873D01*
X186838Y86047D01*
X186531Y86108D01*
X183381D01*
X183074Y86047D01*
X182813Y85873D01*
X182639Y85613D01*
X182578Y85306D01*
Y83746D01*
X181822D01*
Y85306D01*
X181761Y85613D01*
X181587Y85873D01*
X181326Y86047D01*
X181019Y86108D01*
X177869D01*
X177562Y86047D01*
X177302Y85873D01*
X177128Y85613D01*
X177067Y85306D01*
Y83529D01*
X176882Y83326D01*
X176811Y83208D01*
X176734Y83093D01*
X176730Y83074D01*
X176720Y83057D01*
X176700Y82921D01*
X176673Y82786D01*
Y72077D01*
X176673Y72077D01*
X176734Y71770D01*
X176908Y71509D01*
X176908Y71509D01*
X178050Y70368D01*
X178050Y70368D01*
X178282Y70213D01*
X178310Y69991D01*
Y69911D01*
X178282Y69690D01*
X178050Y69535D01*
X176908Y68393D01*
X176734Y68132D01*
X176673Y67825D01*
Y64991D01*
X176700Y64855D01*
X176720Y64719D01*
X176730Y64702D01*
X176734Y64683D01*
X176811Y64569D01*
X176882Y64451D01*
X177067Y64247D01*
Y63150D01*
X176567Y62943D01*
X168295Y71215D01*
X167774Y71563D01*
X167735Y71571D01*
Y74095D01*
X166456D01*
Y75905D01*
X167635D01*
Y77094D01*
X170634D01*
X170634Y77094D01*
X171248Y77217D01*
X171423Y77333D01*
X172011D01*
X172771Y77648D01*
X173352Y78229D01*
X173667Y78989D01*
Y79811D01*
X173352Y80571D01*
X172771Y81152D01*
X172011Y81467D01*
X171189D01*
X170429Y81152D01*
X169848Y80571D01*
X169738Y80306D01*
X167635D01*
Y81495D01*
X161965D01*
X161965Y81495D01*
X161847D01*
Y81495D01*
X161465Y81495D01*
X160718D01*
Y82951D01*
X161072Y83305D01*
X162047Y83305D01*
X162547Y83305D01*
X167835D01*
Y84494D01*
X169783D01*
X169829Y84448D01*
X170589Y84133D01*
X171411D01*
X172171Y84448D01*
X172266Y84543D01*
X172513Y84494D01*
X173128Y84617D01*
X173649Y84965D01*
X181235Y92551D01*
X181583Y93072D01*
X181706Y93687D01*
X181706Y93687D01*
Y98472D01*
X182895D01*
Y103759D01*
X182895Y104141D01*
X182895Y104641D01*
Y105488D01*
X202899D01*
X203238Y105149D01*
D02*
G37*
G36*
X139140Y101161D02*
X139384Y100796D01*
X140579Y99601D01*
X140944Y99357D01*
X140956Y99354D01*
X141097Y99213D01*
X141094Y99200D01*
X141217Y98585D01*
X141565Y98065D01*
X142086Y97717D01*
X142700Y97594D01*
X144639D01*
X145705Y96529D01*
X145742Y95859D01*
X145663Y95780D01*
X145315Y95259D01*
X145193Y94644D01*
X145193Y94644D01*
Y90537D01*
X144693Y90330D01*
X144371Y90652D01*
X143611Y90967D01*
X142789D01*
X142029Y90652D01*
X141883Y90506D01*
X138895D01*
Y93459D01*
X138895Y93841D01*
X138895D01*
Y93959D01*
X138895D01*
Y99628D01*
X137706D01*
Y101260D01*
X139121D01*
X139140Y101161D01*
D02*
G37*
G36*
X251094Y89439D02*
Y83878D01*
X251021Y83828D01*
X250357Y83977D01*
X250044Y84520D01*
X249219Y85344D01*
X248210Y85927D01*
X247083Y86229D01*
X245917D01*
X244790Y85927D01*
X243780Y85344D01*
X242980Y84543D01*
X242829Y84554D01*
X242480Y84647D01*
Y97400D01*
X242942Y97592D01*
X251094Y89439D01*
D02*
G37*
G36*
X186531Y83219D02*
X186924Y82786D01*
Y72077D01*
X185783Y70935D01*
X178617D01*
X177476Y72077D01*
Y82786D01*
X177869Y83219D01*
Y85306D01*
X181019D01*
Y82943D01*
X183381D01*
Y85306D01*
X186531D01*
Y83219D01*
D02*
G37*
G36*
X150645Y89349D02*
X150645Y89349D01*
X150768Y88734D01*
X151116Y88213D01*
X151620Y87709D01*
Y87247D01*
X151968Y86409D01*
X152609Y85768D01*
X153400Y85440D01*
Y87700D01*
X154400D01*
Y85440D01*
X155191Y85768D01*
X155833Y86409D01*
X155878Y86519D01*
X156378Y86419D01*
Y83305D01*
X157507D01*
Y81495D01*
X156178D01*
Y79291D01*
X155678Y79087D01*
X148404Y86361D01*
Y89977D01*
X148669Y90193D01*
X150645D01*
Y89349D01*
D02*
G37*
G36*
X137071Y87765D02*
X137592Y87417D01*
X138206Y87294D01*
X141883D01*
X142029Y87148D01*
X142789Y86833D01*
X143611D01*
X144371Y87148D01*
X144693Y87470D01*
X145193Y87263D01*
Y85696D01*
X145193Y85696D01*
X145315Y85082D01*
X145663Y84561D01*
X153081Y77143D01*
Y75977D01*
X152619Y75786D01*
X143911Y84493D01*
X143391Y84841D01*
X142776Y84964D01*
X142776Y84964D01*
X136953D01*
X134207Y87710D01*
X134398Y88172D01*
X136664D01*
X137071Y87765D01*
D02*
G37*
G36*
X186924Y67825D02*
Y64991D01*
X186531Y64557D01*
Y62471D01*
X183381D01*
Y64833D01*
X181019D01*
Y62471D01*
X177869D01*
Y64557D01*
X177476Y64991D01*
Y67825D01*
X178617Y68967D01*
X185783D01*
X186924Y67825D01*
D02*
G37*
G36*
X120631Y66231D02*
X122717D01*
Y63081D01*
X120355D01*
Y60719D01*
X122717D01*
Y57569D01*
X120631D01*
X120198Y57176D01*
X117363D01*
X116221Y58317D01*
Y65483D01*
X117363Y66624D01*
X120198D01*
X120631Y66231D01*
D02*
G37*
G36*
X114253Y65483D02*
Y58317D01*
X113111Y57176D01*
X102402D01*
X101969Y57569D01*
X99883D01*
Y60719D01*
X102245D01*
Y63081D01*
X99883D01*
Y66231D01*
X101969D01*
X102402Y66624D01*
X113111D01*
X114253Y65483D01*
D02*
G37*
G36*
X239347Y67098D02*
Y65300D01*
X243300D01*
Y64800D01*
X243800D01*
Y61241D01*
X246222D01*
Y60666D01*
X239560D01*
Y58444D01*
X236760D01*
X236330Y58358D01*
X235965Y58114D01*
X233583Y55733D01*
X233083Y55940D01*
Y61488D01*
X238885Y67289D01*
X239347Y67098D01*
D02*
G37*
G36*
X156307Y65553D02*
X156307Y65553D01*
X156828Y65205D01*
X157442Y65082D01*
X162145D01*
X163621Y63607D01*
X163429Y63145D01*
X158873D01*
Y57935D01*
X156805Y55867D01*
X156089D01*
X155329Y55552D01*
X155187Y55410D01*
X154687Y55617D01*
Y60559D01*
X153368D01*
Y65373D01*
X153460Y65464D01*
X153460Y65464D01*
X153808Y65985D01*
X153930Y66600D01*
Y67276D01*
X154392Y67468D01*
X156307Y65553D01*
D02*
G37*
G36*
X210323Y80906D02*
X210324Y74957D01*
X210304Y74937D01*
X210304D01*
X210471Y73668D01*
X210961Y72486D01*
X211740Y71470D01*
X212756Y70691D01*
X213939Y70201D01*
X215208Y70034D01*
Y70054D01*
X216980D01*
Y70034D01*
X218249Y70201D01*
X219432Y70691D01*
X219470Y70720D01*
X219970Y70473D01*
Y63711D01*
X219785Y63674D01*
X219427Y63435D01*
X219188Y63077D01*
X219104Y62654D01*
Y55489D01*
X218705Y55304D01*
X218683Y55314D01*
X218300Y55738D01*
Y58572D01*
X216094D01*
X213887D01*
Y55489D01*
X213904Y55406D01*
X213493Y54906D01*
X209208D01*
X209095Y55406D01*
X209095Y55741D01*
X209095D01*
Y55859D01*
X209095D01*
Y61528D01*
X207906D01*
Y63994D01*
X207783Y64609D01*
X207435Y65130D01*
X207435Y65130D01*
X206537Y66028D01*
Y68967D01*
X207672Y70102D01*
X207672Y70102D01*
X208020Y70623D01*
X208143Y71238D01*
Y77143D01*
X209687D01*
Y80746D01*
X210187Y81003D01*
X210323Y80906D01*
D02*
G37*
%LPC*%
G36*
X211960Y118300D02*
X210200D01*
Y116540D01*
X210991Y116867D01*
X211632Y117509D01*
X211960Y118300D01*
D02*
G37*
G36*
X236240Y110953D02*
X233181D01*
Y107500D01*
X236240D01*
Y110953D01*
D02*
G37*
G36*
Y106500D02*
X233181D01*
Y103047D01*
X236240D01*
Y106500D01*
D02*
G37*
G36*
X157155Y106900D02*
X152751D01*
Y105193D01*
X155834D01*
X156339Y105294D01*
X156768Y105580D01*
X157054Y106009D01*
X157155Y106514D01*
Y106900D01*
D02*
G37*
G36*
X88353Y97919D02*
X84900D01*
Y94860D01*
X88353D01*
Y97919D01*
D02*
G37*
G36*
X107783Y95507D02*
X104700D01*
Y93800D01*
X109103D01*
Y94186D01*
X109003Y94691D01*
X108716Y95120D01*
X108288Y95406D01*
X107783Y95507D01*
D02*
G37*
G36*
X103700D02*
X100617D01*
X100112Y95406D01*
X99683Y95120D01*
X99397Y94691D01*
X99297Y94186D01*
Y93800D01*
X103700D01*
Y95507D01*
D02*
G37*
G36*
X95908Y95406D02*
X93400D01*
Y92859D01*
X95908D01*
Y95406D01*
D02*
G37*
G36*
X92400D02*
X89892D01*
Y92859D01*
X92400D01*
Y95406D01*
D02*
G37*
G36*
X109103Y92800D02*
X104700D01*
Y91093D01*
X107783D01*
X108288Y91194D01*
X108716Y91480D01*
X109003Y91909D01*
X109103Y92414D01*
Y92800D01*
D02*
G37*
G36*
X103700D02*
X99297D01*
Y92414D01*
X99397Y91909D01*
X99683Y91480D01*
X100112Y91194D01*
X100617Y91093D01*
X103700D01*
Y92800D01*
D02*
G37*
G36*
X88353Y93860D02*
X84900D01*
Y90801D01*
X88353D01*
Y93860D01*
D02*
G37*
G36*
X123149Y90507D02*
X120066D01*
X119561Y90406D01*
X119132Y90120D01*
X118846Y89691D01*
X118746Y89186D01*
Y88800D01*
X123149D01*
Y90507D01*
D02*
G37*
G36*
Y87800D02*
X118746D01*
Y87414D01*
X118846Y86909D01*
X119132Y86480D01*
X119561Y86194D01*
X120066Y86093D01*
X123149D01*
Y87800D01*
D02*
G37*
G36*
X120799Y83653D02*
X117740D01*
Y80200D01*
X120799D01*
Y83653D01*
D02*
G37*
G36*
X116740D02*
X113681D01*
Y80200D01*
X116740D01*
Y83653D01*
D02*
G37*
G36*
X128160Y81600D02*
X126400D01*
Y79840D01*
X127191Y80168D01*
X127832Y80809D01*
X128160Y81600D01*
D02*
G37*
G36*
X125400D02*
X123640D01*
X123968Y80809D01*
X124609Y80168D01*
X125400Y79840D01*
Y81600D01*
D02*
G37*
G36*
X212700Y101460D02*
Y99700D01*
X214460D01*
X214132Y100491D01*
X213491Y101133D01*
X212700Y101460D01*
D02*
G37*
G36*
X211700D02*
X210909Y101133D01*
X210267Y100491D01*
X209940Y99700D01*
X211700D01*
Y101460D01*
D02*
G37*
G36*
X208520Y96353D02*
X205461D01*
Y92900D01*
X208520D01*
Y96353D01*
D02*
G37*
G36*
Y91900D02*
X205461D01*
Y88447D01*
X208520D01*
Y91900D01*
D02*
G37*
G36*
X192500Y86160D02*
Y84400D01*
X194260D01*
X193932Y85191D01*
X193291Y85833D01*
X192500Y86160D01*
D02*
G37*
G36*
X242800Y64300D02*
X239347D01*
Y61241D01*
X242800D01*
Y64300D01*
D02*
G37*
G36*
X217000Y69060D02*
Y67300D01*
X218760D01*
X218432Y68091D01*
X217791Y68733D01*
X217000Y69060D01*
D02*
G37*
G36*
X216000D02*
X215209Y68733D01*
X214567Y68091D01*
X214240Y67300D01*
X216000D01*
Y69060D01*
D02*
G37*
G36*
X218760Y66300D02*
X214240D01*
X214488Y65701D01*
Y63731D01*
X214274Y63588D01*
X213988Y63160D01*
X213887Y62654D01*
Y59572D01*
X216094D01*
X218300D01*
Y62654D01*
X218200Y63160D01*
X217913Y63588D01*
X217699Y63731D01*
Y64829D01*
X217791Y64868D01*
X218432Y65509D01*
X218760Y66300D01*
D02*
G37*
%LPD*%
D17*
X251289Y43383D02*
D03*
X274911D02*
D03*
X251289Y28817D02*
D03*
X274911D02*
D03*
X182911Y22716D02*
D03*
X159289D02*
D03*
X182911Y37284D02*
D03*
X159289D02*
D03*
D18*
X151340Y47905D02*
D03*
X143860D02*
D03*
X117240Y79700D02*
D03*
X109760D02*
D03*
X136360Y105000D02*
D03*
X143840D02*
D03*
X169700Y59404D02*
D03*
X162220D02*
D03*
X226260Y139800D02*
D03*
X233740D02*
D03*
X229260Y107000D02*
D03*
X236740D02*
D03*
X225960Y95800D02*
D03*
X233440D02*
D03*
X216500Y92400D02*
D03*
X209020D02*
D03*
D19*
X135400Y57011D02*
D03*
Y62798D02*
D03*
X92900Y101694D02*
D03*
Y95906D02*
D03*
X180100Y101306D02*
D03*
Y107094D02*
D03*
X136100Y91006D02*
D03*
Y96794D02*
D03*
X201200Y121606D02*
D03*
Y115818D02*
D03*
X210800Y136900D02*
D03*
Y142687D02*
D03*
X218100Y142587D02*
D03*
Y136800D02*
D03*
X230300Y129294D02*
D03*
Y123506D02*
D03*
X237700Y129294D02*
D03*
Y123506D02*
D03*
X206300Y52906D02*
D03*
Y58694D02*
D03*
D20*
X129506Y70305D02*
D03*
X135294D02*
D03*
X159006Y122300D02*
D03*
X164794D02*
D03*
X159213Y115000D02*
D03*
X165000D02*
D03*
Y86100D02*
D03*
X159213D02*
D03*
X159013Y78700D02*
D03*
X164800D02*
D03*
X159113Y71300D02*
D03*
X164900D02*
D03*
X161569Y51146D02*
D03*
X167357D02*
D03*
X197506Y145600D02*
D03*
X203294D02*
D03*
Y152800D02*
D03*
X197506D02*
D03*
X230813Y116200D02*
D03*
X236600D02*
D03*
X225813Y87700D02*
D03*
X231600D02*
D03*
X198694Y57300D02*
D03*
X192906D02*
D03*
D21*
X151537Y57409D02*
D03*
X143663D02*
D03*
X198663Y80293D02*
D03*
X206537D02*
D03*
D22*
X147600Y70205D02*
D03*
X202600Y67498D02*
D03*
D23*
X84400Y101840D02*
D03*
Y94360D02*
D03*
X173200Y123040D02*
D03*
Y115560D02*
D03*
X202700Y137400D02*
D03*
Y129920D02*
D03*
X243300Y64800D02*
D03*
Y57320D02*
D03*
D24*
X123649Y88300D02*
D03*
Y93300D02*
D03*
Y98300D02*
D03*
Y103300D02*
D03*
X104200D02*
D03*
Y98300D02*
D03*
Y93300D02*
D03*
Y88300D02*
D03*
X152251Y107400D02*
D03*
Y102400D02*
D03*
Y97400D02*
D03*
Y92400D02*
D03*
X171700D02*
D03*
Y97400D02*
D03*
Y102400D02*
D03*
Y107400D02*
D03*
D25*
X216094Y59072D02*
D03*
X221094D02*
D03*
X226094D02*
D03*
X231094D02*
D03*
Y78521D02*
D03*
X226094D02*
D03*
X221094D02*
D03*
X216094D02*
D03*
X223500Y109476D02*
D03*
X218500D02*
D03*
X213500D02*
D03*
X208500D02*
D03*
Y128924D02*
D03*
X213500D02*
D03*
X218500D02*
D03*
X223500D02*
D03*
D42*
X270900Y261300D02*
D03*
X290900D02*
D03*
X139800Y259400D02*
D03*
X119800D02*
D03*
X74803Y23622D02*
D03*
X94803D02*
D03*
X115000Y23600D02*
D03*
X135000D02*
D03*
X71900Y176600D02*
D03*
X151900D02*
D03*
X71663Y206137D02*
D03*
X151663D02*
D03*
X72300Y236200D02*
D03*
X152300D02*
D03*
X324500Y234400D02*
D03*
X244500D02*
D03*
X326400Y180800D02*
D03*
X246400D02*
D03*
X325400Y207500D02*
D03*
X245400D02*
D03*
D52*
X214051Y96928D02*
G03*
X213842Y97250I-1415J-692D01*
G01*
X213941Y96928D02*
G03*
X212366Y95353I0J-1575D01*
G01*
X219258Y87323D02*
G03*
X218850Y86265I1166J-1058D01*
G01*
X212366Y89447D02*
G03*
X212854Y88307I1575J0D01*
G01*
X216980Y73068D02*
G03*
X218850Y74938I0J1870D01*
G01*
X213338D02*
G03*
X215208Y73068I1870J0D01*
G01*
X213338Y87172D02*
G03*
X212854Y88307I-1575J0D01*
G01*
X223408Y91898D02*
G03*
X223911Y92768I-1747J1590D01*
G01*
X209020Y92400D02*
G03*
X212200Y95580I0J3180D01*
G01*
X208500Y120000D02*
G03*
X209700Y118800I1200J0D01*
G01*
X163735Y48486D02*
X178924Y33296D01*
X182320Y37284D02*
X182911D01*
X181730Y36102D02*
Y36693D01*
X179100Y33121D02*
Y33472D01*
X178924Y33296D02*
X187548Y24672D01*
X181730Y36693D02*
X182320Y37284D01*
X179100Y33472D02*
X181730Y36102D01*
X187548Y24672D02*
X190200D01*
X161569Y51146D02*
X161609D01*
X163735Y49020D01*
Y48486D02*
Y49020D01*
X213941Y96928D02*
X214051D01*
X214051D01*
X212200Y95580D02*
Y99200D01*
X212366Y89447D02*
Y95353D01*
X212200Y99200D02*
X213842Y97250D01*
X108900Y51400D02*
Y51666D01*
X108249Y52318D02*
Y61900D01*
Y52318D02*
X108900Y51666D01*
X185039Y76939D02*
X192000Y83900D01*
X182200Y76939D02*
X185039D01*
X222577Y84504D02*
X222765Y84692D01*
X221094Y78521D02*
Y81217D01*
X222577Y82701D01*
Y84504D01*
X216094Y59072D02*
Y66127D01*
X216500Y66534D01*
Y66800D01*
X152000Y107651D02*
Y111900D01*
Y107651D02*
X152251Y107400D01*
X126000Y82200D02*
Y87906D01*
X125900Y82100D02*
X126000Y82200D01*
X125606Y88300D02*
X126000Y87906D01*
X123649Y88300D02*
X125606D01*
X159152Y71300D02*
X161081Y73229D01*
Y74448D02*
X161269Y74636D01*
X159113Y71300D02*
X159152D01*
X161081Y73229D02*
Y74448D01*
X225990Y134112D02*
X228012D01*
X228200Y134300D01*
X223500Y128924D02*
Y131621D01*
X225990Y134112D01*
X152251Y89349D02*
X153900Y87700D01*
X152251Y89349D02*
Y92400D01*
X240874Y71911D02*
Y111965D01*
X240446Y71121D02*
Y71482D01*
X243300Y64800D02*
Y70300D01*
X231094Y61769D02*
X240446Y71121D01*
Y71482D02*
X240874Y71911D01*
X225960Y95800D02*
Y96194D01*
X230010Y100244D02*
Y100515D01*
X230199Y100704D01*
X225960Y96194D02*
X230010Y100244D01*
X213338Y74938D02*
Y87172D01*
X218850Y74938D02*
Y86265D01*
X215208Y73068D02*
X216980D01*
X219258Y87323D02*
X223408Y91898D01*
X224188Y93635D02*
X225960Y95800D01*
X223911Y92768D02*
X224188Y93635D01*
X208500Y120000D02*
Y128924D01*
X156500Y53800D02*
X156688Y53988D01*
X157197D01*
X162220Y59011D01*
Y59404D01*
X174300Y178743D02*
X179600Y184043D01*
X174300Y153700D02*
Y178743D01*
X164897Y115103D02*
Y122197D01*
Y115103D02*
X165000Y115000D01*
X164794Y122300D02*
X164897Y122197D01*
X175637Y137892D02*
X178475Y140730D01*
Y149525D01*
X175637Y132300D02*
Y137892D01*
X174300Y153700D02*
X178475Y149525D01*
X159006Y122300D02*
Y148349D01*
X155800Y151555D02*
X159006Y148349D01*
X155800Y151555D02*
Y153100D01*
X180100Y107094D02*
X203564D01*
X204997Y105661D01*
X205263D01*
X165000Y86100D02*
X171000D01*
X146798Y85696D02*
X154687Y77808D01*
X146798Y85696D02*
Y94644D01*
X137320Y89746D02*
X137360D01*
X138206Y88900D01*
X136100Y90967D02*
Y91006D01*
Y90967D02*
X137320Y89746D01*
X138206Y88900D02*
X143200D01*
X136288Y83358D02*
X142776D01*
X152324Y66600D02*
Y73810D01*
X142776Y83358D02*
X152324Y73810D01*
X126346Y93300D02*
X136288Y83358D01*
X154687Y69444D02*
Y77808D01*
X105030Y84430D02*
X107595Y81865D01*
X88700Y130552D02*
X113196Y106056D01*
X135254Y70305D02*
X135294D01*
X134034Y71525D02*
Y72059D01*
X130921Y75172D02*
X134034Y72059D01*
X95849Y75172D02*
X130921D01*
X79872Y91149D02*
Y105052D01*
X80877Y106056D01*
X113196D01*
X134034Y71525D02*
X135254Y70305D01*
X113196Y106056D02*
X120952Y98300D01*
X123649D01*
X79872Y91149D02*
X95849Y75172D01*
X124674Y65512D02*
X129467Y70305D01*
X121102Y61900D02*
X124674Y65472D01*
Y65512D01*
X120952Y93300D02*
X123649D01*
X115952Y98300D02*
X120952Y93300D01*
X104200Y98300D02*
X115952D01*
X123649Y93300D02*
X126346D01*
X130090Y96522D02*
Y99556D01*
Y96522D02*
X133440Y93172D01*
X133974D01*
X126346Y103300D02*
X130090Y99556D01*
X123649Y103300D02*
X126346D01*
X133974Y93172D02*
X136100Y91046D01*
X151762Y57635D02*
Y66037D01*
X152324Y66600D01*
X151537Y57409D02*
X151762Y57635D01*
X154687Y69444D02*
X157442Y66688D01*
X143265Y57011D02*
X143663Y57409D01*
X147600Y61346D01*
Y70205D01*
X84400Y101840D02*
X84547Y101694D01*
X92900D01*
Y101733D01*
X94467Y103300D02*
X104200D01*
X92900Y101733D02*
X94467Y103300D01*
X109760Y79700D02*
Y80094D01*
X104200Y85260D02*
Y88300D01*
X107595Y81865D02*
X107988D01*
X109760Y80094D01*
X88700Y130552D02*
Y139900D01*
X136100Y91006D02*
Y91046D01*
X145174Y112279D02*
X147896Y115000D01*
X146798Y94644D02*
X149554Y97400D01*
X142700Y99200D02*
X145305D01*
X136100Y104740D02*
X136360Y105000D01*
X136100Y96794D02*
Y104740D01*
X157442Y66688D02*
X162810D01*
X169700Y59404D02*
Y59798D01*
X162810Y66688D02*
X169700Y59798D01*
X154948Y102400D02*
X159213Y98135D01*
Y86100D02*
Y98135D01*
X159113Y86000D02*
X159213Y86100D01*
X159013Y78700D02*
X159113Y78800D01*
Y86000D01*
X172513Y86100D02*
X180100Y93687D01*
Y101306D01*
X147105Y97400D02*
X149554D01*
X169700Y59011D02*
Y59404D01*
X149554Y97400D02*
X152251D01*
X164800Y78700D02*
X170634D01*
X171334Y79400D01*
X171600D01*
X164800Y78700D02*
X164850Y78650D01*
Y71350D02*
X164900Y71300D01*
X164850Y71350D02*
Y78650D01*
X185039Y51161D02*
X199300Y36900D01*
X166121Y70079D02*
X167159D01*
X199300Y36600D02*
Y36900D01*
X185039Y51161D02*
Y52200D01*
X167159Y70079D02*
X185039Y52200D01*
X164900Y71300D02*
X166121Y70079D01*
X147896Y115000D02*
X159252D01*
X143840Y104606D02*
X146046Y102400D01*
X143840Y104606D02*
Y105000D01*
X146046Y102400D02*
X152251D01*
X145305Y99200D02*
X147105Y97400D01*
X190200Y24672D02*
X211228D01*
X219300Y16600D01*
X152251Y102400D02*
X154948D01*
X171700D02*
X172094Y102006D01*
X179400D01*
X180100Y101306D01*
X171700Y92400D02*
Y97400D01*
Y114060D02*
X172640Y115000D01*
X165000D02*
X172640D01*
X173200Y115560D01*
X171853Y107247D02*
X179947D01*
X180100Y107094D01*
X171700Y107400D02*
X171853Y107247D01*
X171700Y107400D02*
Y114060D01*
X118288Y61900D02*
X121102D01*
X129467Y70305D02*
X129506D01*
X135294D02*
X135347Y70251D01*
Y62851D02*
X135400Y62798D01*
X135347Y62851D02*
Y70251D01*
X135400Y57011D02*
X143265D01*
X167357Y51146D02*
Y56668D01*
X169700Y59011D01*
X151340Y57212D02*
X151537Y57409D01*
X151340Y47905D02*
Y57212D01*
X192867Y57300D02*
X192906D01*
X184797Y65370D02*
X192867Y57300D01*
X184797Y65370D02*
Y67115D01*
X184600Y67312D02*
X184797Y67115D01*
X203640Y55072D02*
X204174D01*
X247828Y54108D02*
Y78023D01*
X247592Y78258D02*
Y80708D01*
X226094Y56375D02*
Y56769D01*
X202632Y56080D02*
X203640Y55072D01*
X226487Y54560D02*
X228846Y52202D01*
X245921D01*
X226094Y59072D02*
X226487Y58678D01*
X225306Y55981D02*
X225700D01*
X199914Y56080D02*
X202632D01*
X225700Y55981D02*
X226094Y56375D01*
X245921Y52202D02*
X247828Y54108D01*
X246500Y81800D02*
X247592Y80708D01*
X226487Y54560D02*
Y58678D01*
X247592Y78258D02*
X247828Y78023D01*
X206694Y53300D02*
X222625D01*
X206300Y52906D02*
X206694Y53300D01*
X222625D02*
X225306Y55981D01*
X206300Y52906D02*
Y52946D01*
X198694Y57300D02*
X199914Y56080D01*
X204174Y55072D02*
X206300Y52946D01*
X196100Y139100D02*
X196366D01*
X198800Y141534D01*
X236561Y116200D02*
X236600D01*
X235340Y117420D02*
X236561Y116200D01*
X233433Y119862D02*
X235340Y117955D01*
X226190Y119862D02*
X233433D01*
X218500Y112172D02*
X226190Y119862D01*
X218500Y109476D02*
Y112172D01*
X235340Y117420D02*
Y117955D01*
X229553Y117420D02*
X230773Y116200D01*
X230813D01*
X227043Y112470D02*
X230773Y116200D01*
X225160Y123472D02*
X226400Y124711D01*
Y125889D01*
X198800Y141534D02*
X205510D01*
X206663Y142687D01*
X210800D01*
X192000Y129000D02*
X193600Y127400D01*
X202306Y129920D02*
X202700D01*
X199787Y127400D02*
X202306Y129920D01*
X193600Y127400D02*
X199787D01*
X192000Y129000D02*
Y140133D01*
X197467Y145600D01*
X252700Y39155D02*
Y39383D01*
X255695Y41228D02*
Y48967D01*
X253623Y40305D02*
X254773D01*
X252700Y39383D02*
X253623Y40305D01*
X254773D02*
X255695Y41228D01*
X252700Y51962D02*
Y90104D01*
Y51962D02*
X255695Y48967D01*
X243236Y99568D02*
X252700Y90104D01*
X250145Y36600D02*
X252700Y39155D01*
X241283Y146984D02*
X248200Y153900D01*
X241283Y114897D02*
Y146984D01*
Y114897D02*
X243236Y112944D01*
Y99568D02*
Y112944D01*
X239300Y36600D02*
X250145D01*
X248609Y27842D02*
X249987D01*
X219300Y16600D02*
X237367D01*
X248609Y27842D01*
X197467Y145600D02*
X197506D01*
X222470Y143749D02*
X232621Y153900D01*
X218100Y142587D02*
X219262Y143749D01*
X222470D01*
X232621Y153900D02*
X248200D01*
X207430Y145600D02*
X208140Y146309D01*
X203294Y145600D02*
X207430D01*
X218100Y142587D02*
Y142627D01*
X214417Y146309D02*
X218100Y142627D01*
X208140Y146309D02*
X214417D01*
X203294Y145600D02*
Y152800D01*
X203200Y136900D02*
X210800D01*
X202700Y137400D02*
X203200Y136900D01*
X213106Y129318D02*
Y134554D01*
Y129318D02*
X213500Y128924D01*
X210800Y136861D02*
X213106Y134554D01*
X210800Y136861D02*
Y136900D01*
X226260Y139406D02*
Y139800D01*
X218100Y136800D02*
X223654D01*
X226260Y139406D01*
X218300Y129124D02*
X218500Y128924D01*
X218300Y129124D02*
Y136600D01*
X218100Y136800D02*
X218300Y136600D01*
X218500Y126227D02*
X218894Y125834D01*
X219477D02*
X221840Y123472D01*
X225160D01*
X226400Y125889D02*
X227640Y127128D01*
X228174D01*
X230300Y129254D01*
Y129294D01*
X218500Y126227D02*
Y128924D01*
X218894Y125834D02*
X219477D01*
X233740Y139406D02*
X237700Y135447D01*
X233740Y139406D02*
Y139800D01*
X237700Y129294D02*
Y135447D01*
X230300Y123506D02*
X237700D01*
X237150Y122956D02*
X237700Y123506D01*
X237150Y116750D02*
Y122956D01*
X236600Y116200D02*
X237150Y116750D01*
X202600Y121794D02*
Y129820D01*
X223500Y109476D02*
Y112076D01*
X223894Y112470D01*
X227043D01*
X230813Y108553D02*
Y116200D01*
X229260Y107000D02*
X230813Y108553D01*
X221661Y99240D02*
X222748Y100328D01*
X222981D02*
X229260Y106606D01*
Y107000D01*
X216500Y92400D02*
X220573D01*
X221661Y93488D01*
Y99240D01*
X222748Y100328D02*
X222981D01*
X202600Y67498D02*
X202797D01*
X206537Y71238D02*
Y80293D01*
X202797Y67498D02*
X206537Y71238D01*
X216094Y78521D02*
Y91994D01*
X216500Y92400D01*
X231600Y87700D02*
Y93566D01*
X233440Y95406D01*
Y95800D01*
X231487Y83217D02*
X231600Y83330D01*
Y87700D01*
X231094Y78521D02*
X231487Y78914D01*
Y83217D01*
X236600Y116200D02*
X236639D01*
X240874Y111965D01*
X231094Y59072D02*
Y61769D01*
X206300Y58694D02*
Y63994D01*
X202797Y67498D02*
X206300Y63994D01*
X208500Y109476D02*
X213500D01*
D53*
X220869Y73540D02*
G03*
X220329Y73222I7J-630D01*
G01*
X211448Y74937D02*
G03*
X215208Y71178I3760J1D01*
G01*
X211447Y81406D02*
G03*
X211266Y81848I-630J-0D01*
G01*
X216980Y71178D02*
G03*
X220247Y73078I0J3760D01*
G01*
X220869Y73540D02*
X220873Y73540D01*
X220247Y73078D02*
X220329Y73222D01*
X215208Y71178D02*
X216980D01*
X211447Y81406D02*
X211448Y74937D01*
X220873Y73540D02*
X223810D01*
X209356Y83758D02*
X211263Y81850D01*
X211266Y81848D01*
X140179Y101591D02*
Y108409D01*
X144048Y112279D01*
X140179Y101591D02*
X141374Y100395D01*
X141505D02*
X142700Y99200D01*
X141374Y100395D02*
X141505D01*
X144048Y112279D02*
X145174D01*
X197245Y119813D02*
X201200Y115858D01*
X197245Y119813D02*
Y121099D01*
X233531Y54091D02*
X236760Y57320D01*
X228594Y55127D02*
X229629Y54091D01*
X228594Y55127D02*
Y63017D01*
X229629Y54091D02*
X233531D01*
X195800Y122544D02*
X197245Y121099D01*
X195800Y122544D02*
Y122800D01*
X201200Y115818D02*
Y115858D01*
X196206Y131300D02*
X202306Y137400D01*
X196000Y131100D02*
X196200Y131300D01*
X202306Y137400D02*
X202700D01*
X196200Y131300D02*
X196206D01*
X221094Y70824D02*
X223810Y73540D01*
X226094Y75824D02*
Y76473D01*
X223810Y73540D02*
X226094Y75824D01*
X198663Y80293D02*
X202128Y83758D01*
X209356D01*
X221094Y61769D02*
Y70824D01*
Y59072D02*
Y61769D01*
X223377Y64052D01*
X227558D01*
X228594Y63017D01*
X236760Y57320D02*
X243300D01*
D54*
X108249Y61900D02*
D03*
X118288D02*
D03*
D55*
X182200Y76939D02*
D03*
Y66900D02*
D03*
D56*
X204357Y119243D02*
X205460Y118140D01*
Y105680D02*
Y118140D01*
X203523Y119243D02*
X204357D01*
X201200Y121566D02*
Y121606D01*
Y121566D02*
X203523Y119243D01*
X205460Y105680D02*
X206921Y104220D01*
X220941D02*
X223500Y106779D01*
X206921Y104220D02*
X220941D01*
X223500Y106779D02*
Y109476D01*
D57*
X26000Y72500D02*
D03*
X46000D02*
D03*
X26200Y157600D02*
D03*
X46200D02*
D03*
X26000Y30400D02*
D03*
X46000D02*
D03*
X26000Y115500D02*
D03*
X46000D02*
D03*
X371600Y31300D02*
D03*
X351600D02*
D03*
X371600Y74000D02*
D03*
X351600D02*
D03*
X371600Y116100D02*
D03*
X351600D02*
D03*
X371600Y159100D02*
D03*
X351600D02*
D03*
X88700Y139900D02*
D03*
X128700D02*
D03*
X281800Y58600D02*
D03*
Y98600D02*
D03*
X145800Y153100D02*
D03*
X155800D02*
D03*
X88600Y152200D02*
D03*
X128600D02*
D03*
X285300Y112800D02*
D03*
Y122800D02*
D03*
X248200Y153900D02*
D03*
X258200D02*
D03*
X246500Y121800D02*
D03*
Y81800D02*
D03*
X267600Y121800D02*
D03*
Y81800D02*
D03*
D58*
X180400Y6900D02*
D03*
X256200D02*
D03*
X385600Y325900D02*
D03*
X13600Y324200D02*
D03*
D59*
X216400Y226957D02*
D03*
Y205500D02*
D03*
X179600D02*
D03*
Y226957D02*
D03*
D60*
X216400Y184043D02*
D03*
X179600D02*
D03*
D61*
X175637Y132300D02*
D03*
X256800Y119937D02*
D03*
D62*
X145963Y132300D02*
D03*
D63*
X174300Y143700D02*
D03*
X166800Y148700D02*
D03*
X174300Y153700D02*
D03*
X255500Y127800D02*
D03*
X263000Y132800D02*
D03*
X255500Y137800D02*
D03*
D64*
X293600Y98994D02*
D03*
D65*
Y58206D02*
D03*
D66*
X262700Y71500D02*
D03*
D67*
Y61500D02*
D03*
D68*
X219300Y16600D02*
D03*
X199300Y36600D02*
D03*
X229300D02*
D03*
X239300D02*
D03*
D69*
X314000Y13800D02*
D03*
Y153800D02*
D03*
D70*
X256800Y90263D02*
D03*
D71*
X160206Y172894D02*
D03*
X197900Y203700D02*
D03*
Y185000D02*
D03*
Y226200D02*
D03*
X283465Y153543D02*
D03*
X84346Y40661D02*
D03*
X216600Y166500D02*
D03*
X180000Y169500D02*
D03*
X199300Y171800D02*
D03*
X292000Y153800D02*
D03*
D72*
X212200Y99200D02*
D03*
X108900Y51400D02*
D03*
X192000Y83900D02*
D03*
X222765Y84692D02*
D03*
X216500Y66800D02*
D03*
X152000Y111900D02*
D03*
X125900Y82100D02*
D03*
X161269Y74636D02*
D03*
X228200Y134300D02*
D03*
X153900Y87700D02*
D03*
X243300Y70300D02*
D03*
X230199Y100704D02*
D03*
X209700Y118800D02*
D03*
X156500Y53800D02*
D03*
X205263Y105661D02*
D03*
X171000Y86200D02*
D03*
X143200Y88900D02*
D03*
X105100Y84500D02*
D03*
X171600Y79400D02*
D03*
X192000Y140133D02*
D03*
X196100Y139100D02*
D03*
X195800Y122800D02*
D03*
X196200Y131300D02*
D03*
M02*
