M48
;Layer_Color=9474304
;FILE_FORMAT=2:4
INCH,TZ
;TYPE=PLATED
T01F00S00C0.0177
T02F00S00C0.0280
T03F00S00C0.0287
T04F00S00C0.0300
T05F00S00C0.0320
T06F00S00C0.0335
T07F00S00C0.0394
T08F00S00C0.0417
T09F00S00C0.0453
T10F00S00C0.0600
T11F00S00C0.0693
T12F00S00C0.0700
%
T01
X21650Y6680
X22277Y8469
X23020Y10070
X21220Y9920
X20526Y10566
X20970Y11880
X22820Y13430
X24330Y7030
X19200Y8390
X17100Y8620
X17160Y7940
X16127Y7464
X15390Y8770
X14320Y8890
X12590Y8210
X10510Y8450
X10890Y5140
X15650Y5380
X15200Y11190
X19580Y12280
X19620Y13130
X19610Y13910
X19200Y14013
T02
X21660Y16650
X28346Y15354
X29200Y15380
X19930Y17180
X18000Y16950
X16021Y17289
X8435Y4066
X19790Y18500
Y20370
Y22620
T03
X25680Y9026
Y11994
X17564Y13230
X14596
T04
X7480Y2362
X9480
X11500Y2360
X13500
X15190Y17660
X15166Y20614
X15230Y23620
X13980Y25940
X11980
X7230Y23620
X7166Y20614
X7190Y17660
X24640Y18080
X24540Y20750
X24450Y23440
X27090Y26130
X29090
X32450Y23440
X32540Y20750
X32640Y18080
T05
X25550Y12780
Y13780
X26300Y13280
X17430Y14370
Y15370
X16680Y14870
T06
X37160Y3130
Y7400
Y11610
Y15910
X35160
Y11610
Y7400
Y3130
X28180Y5860
X26760Y8180
X24650
Y12180
X26760
X28530Y12280
Y11280
X28180Y9860
X25820Y15390
X24820
X15580Y15310
X14580
X12860Y15220
X12870Y13990
X8870
X8860Y15220
X4620Y15760
X2620
X2600Y11550
X4600
Y7250
X2600
Y3040
X4600
T07
X26270Y6150
Y7150
T08
X29360Y5821
Y9899
T09
X21930Y1660
X22930Y3660
X23930
X19930
T10
X31400Y1380
Y15380
T11
X17960Y18404
Y20550
Y22696
X21640
Y20550
Y18404
T12
X18040Y690
X25620
X1360Y32420
X38560Y32590
M30
