G04*
G04 #@! TF.GenerationSoftware,Altium Limited,Altium Designer,24.0.1 (36)*
G04*
G04 Layer_Color=8421504*
%FSLAX44Y44*%
%MOMM*%
G71*
G04*
G04 #@! TF.SameCoordinates,8FF7991A-89D8-4168-8CAE-93076DC636D7*
G04*
G04*
G04 #@! TF.FilePolarity,Positive*
G04*
G01*
G75*
%ADD17R,2.1000X1.4000*%
%ADD18R,1.3000X1.5000*%
%ADD19R,1.0200X1.0400*%
%ADD20R,1.0400X1.0200*%
%ADD21R,1.2000X1.2000*%
%ADD22R,1.6000X1.5000*%
%ADD23R,1.5000X1.3000*%
G04:AMPARAMS|DCode=24|XSize=1.97mm|YSize=0.6mm|CornerRadius=0.075mm|HoleSize=0mm|Usage=FLASHONLY|Rotation=180.000|XOffset=0mm|YOffset=0mm|HoleType=Round|Shape=RoundedRectangle|*
%AMROUNDEDRECTD24*
21,1,1.9700,0.4500,0,0,180.0*
21,1,1.8200,0.6000,0,0,180.0*
1,1,0.1500,-0.9100,0.2250*
1,1,0.1500,0.9100,0.2250*
1,1,0.1500,0.9100,-0.2250*
1,1,0.1500,-0.9100,-0.2250*
%
%ADD24ROUNDEDRECTD24*%
G04:AMPARAMS|DCode=25|XSize=1.97mm|YSize=0.6mm|CornerRadius=0.075mm|HoleSize=0mm|Usage=FLASHONLY|Rotation=90.000|XOffset=0mm|YOffset=0mm|HoleType=Round|Shape=RoundedRectangle|*
%AMROUNDEDRECTD25*
21,1,1.9700,0.4500,0,0,90.0*
21,1,1.8200,0.6000,0,0,90.0*
1,1,0.1500,0.2250,0.9100*
1,1,0.1500,0.2250,-0.9100*
1,1,0.1500,-0.2250,-0.9100*
1,1,0.1500,-0.2250,0.9100*
%
%ADD25ROUNDEDRECTD25*%
G36*
X290202Y166326D02*
Y148126D01*
X287302Y145226D01*
X260102D01*
X259002Y146226D01*
X253702D01*
Y154226D01*
X259702D01*
Y160226D01*
X253702D01*
Y168226D01*
X259002D01*
X260102Y169226D01*
X287302D01*
X290202Y166326D01*
D02*
G37*
G36*
X306402Y168226D02*
X311702D01*
Y160226D01*
X305702D01*
Y154226D01*
X311702D01*
Y146226D01*
X306402D01*
X305302Y145226D01*
X298102D01*
X295202Y148126D01*
Y166326D01*
X298102Y169226D01*
X305302D01*
X306402Y168226D01*
D02*
G37*
G36*
X473788Y163976D02*
Y158676D01*
X465788D01*
Y164676D01*
X459788D01*
Y158676D01*
X451788D01*
Y163976D01*
X450788Y165076D01*
Y172276D01*
X453688Y175176D01*
X471888D01*
X474788Y172276D01*
Y165076D01*
X473788Y163976D01*
D02*
G37*
G36*
X471888Y180176D02*
X453688D01*
X450788Y183076D01*
Y210276D01*
X451788Y211376D01*
Y216676D01*
X459788D01*
Y210676D01*
X465788D01*
Y216676D01*
X473788D01*
Y211376D01*
X474788Y210276D01*
Y183076D01*
X471888Y180176D01*
D02*
G37*
D17*
X386554Y51668D02*
D03*
Y96668D02*
D03*
X477554D02*
D03*
Y51668D02*
D03*
X634966Y115718D02*
D03*
Y70718D02*
D03*
X725966D02*
D03*
Y115718D02*
D03*
D18*
X384404Y121678D02*
D03*
X365404D02*
D03*
X297790Y202438D02*
D03*
X278790D02*
D03*
X346354Y266700D02*
D03*
X365354D02*
D03*
X431038Y150887D02*
D03*
X412038D02*
D03*
X574700Y355092D02*
D03*
X593700D02*
D03*
X582320Y271780D02*
D03*
X601320D02*
D03*
X573938Y243332D02*
D03*
X592938D02*
D03*
X549910Y234696D02*
D03*
X530910D02*
D03*
D19*
X343916Y144808D02*
D03*
Y159508D02*
D03*
X235966Y258302D02*
D03*
Y243602D02*
D03*
X457454Y257318D02*
D03*
Y272018D02*
D03*
X345694Y231156D02*
D03*
Y245856D02*
D03*
X511048Y308878D02*
D03*
Y294178D02*
D03*
X535432Y347726D02*
D03*
Y362426D02*
D03*
X553974Y362172D02*
D03*
Y347472D02*
D03*
X584962Y328406D02*
D03*
Y313706D02*
D03*
X603758Y328406D02*
D03*
Y313706D02*
D03*
X524002Y134382D02*
D03*
Y149082D02*
D03*
D20*
X328946Y178573D02*
D03*
X343646D02*
D03*
X403876Y310642D02*
D03*
X418576D02*
D03*
X404400Y292100D02*
D03*
X419100D02*
D03*
Y218694D02*
D03*
X404400D02*
D03*
X403892Y199898D02*
D03*
X418592D02*
D03*
X404146Y181102D02*
D03*
X418846D02*
D03*
X410386Y129911D02*
D03*
X425086D02*
D03*
X501666Y369824D02*
D03*
X516366D02*
D03*
Y388112D02*
D03*
X501666D02*
D03*
X586264Y295148D02*
D03*
X600964D02*
D03*
X573564Y222758D02*
D03*
X588264D02*
D03*
X504682Y145542D02*
D03*
X489982D02*
D03*
D21*
X384904Y145820D02*
D03*
X364904D02*
D03*
X504604Y203944D02*
D03*
X524604D02*
D03*
D22*
X374904Y178319D02*
D03*
X514604Y171444D02*
D03*
D23*
X214376Y258674D02*
D03*
Y239674D02*
D03*
X439928Y312522D02*
D03*
Y293522D02*
D03*
X514858Y348996D02*
D03*
Y329996D02*
D03*
X617982Y164592D02*
D03*
Y145592D02*
D03*
D24*
X314068Y224282D02*
D03*
Y236982D02*
D03*
Y249682D02*
D03*
Y262382D02*
D03*
X264668D02*
D03*
Y249682D02*
D03*
Y236982D02*
D03*
Y224282D02*
D03*
X386718Y272796D02*
D03*
Y260096D02*
D03*
Y247396D02*
D03*
Y234696D02*
D03*
X436118D02*
D03*
Y247396D02*
D03*
Y260096D02*
D03*
Y272796D02*
D03*
D25*
X548878Y150042D02*
D03*
X561578D02*
D03*
X574278D02*
D03*
X586978D02*
D03*
Y199442D02*
D03*
X574278D02*
D03*
X561578D02*
D03*
X548878D02*
D03*
X567690Y278068D02*
D03*
X554990D02*
D03*
X542290D02*
D03*
X529590D02*
D03*
Y327468D02*
D03*
X542290D02*
D03*
X554990D02*
D03*
X567690D02*
D03*
M02*
