G04*
G04 #@! TF.GenerationSoftware,Altium Limited,Altium Designer,24.0.1 (36)*
G04*
G04 Layer_Physical_Order=2*
G04 Layer_Color=16711680*
%FSLAX44Y44*%
%MOMM*%
G71*
G04*
G04 #@! TF.SameCoordinates,8FF7991A-89D8-4168-8CAE-93076DC636D7*
G04*
G04*
G04 #@! TF.FilePolarity,Positive*
G04*
G01*
G75*
%ADD43C,1.5240*%
%ADD53C,0.4000*%
%ADD54C,0.1600*%
%ADD57C,0.3000*%
%ADD58C,1.8500*%
%ADD59C,2.6400*%
%ADD60R,2.6400X2.6400*%
%ADD61C,2.0320*%
%ADD62C,1.2380*%
%ADD63R,1.2380X1.2380*%
%ADD64C,1.8500*%
%ADD65R,1.8500X1.8500*%
%ADD66C,1.3208*%
%ADD67R,1.5900X1.5900*%
%ADD68C,1.5900*%
%ADD69C,1.5080*%
%ADD70R,1.5080X1.5080*%
%ADD71C,2.1500*%
%ADD72C,2.5400*%
%ADD73R,1.2380X1.2380*%
%ADD74C,0.6500*%
%ADD75C,1.0000*%
%ADD76C,3.0000*%
%ADD77C,6.0000*%
%ADD78C,0.6000*%
%ADD79C,0.7500*%
G36*
X988547Y842948D02*
X990119Y842297D01*
X991533Y841352D01*
X992736Y840149D01*
X993681Y838735D01*
X994332Y837163D01*
X994664Y835495D01*
Y834644D01*
Y17018D01*
Y16142D01*
X994322Y14425D01*
X993652Y12807D01*
X992679Y11351D01*
X991441Y10113D01*
X989985Y9140D01*
X988367Y8470D01*
X986650Y8128D01*
X985774D01*
X6858Y9398D01*
X6798Y9458D01*
X6703Y9600D01*
X6637Y9758D01*
X6604Y9926D01*
Y10011D01*
Y834898D01*
Y835724D01*
X6926Y837343D01*
X7558Y838868D01*
X8475Y840241D01*
X9643Y841409D01*
X11016Y842326D01*
X12541Y842958D01*
X14160Y843280D01*
X986879D01*
X988547Y842948D01*
D02*
G37*
%LPC*%
G36*
X737065Y733118D02*
X734103D01*
X731242Y732351D01*
X728676Y730870D01*
X726582Y728776D01*
X725101Y726210D01*
X724334Y723349D01*
Y720387D01*
X725101Y717526D01*
X726582Y714960D01*
X728676Y712866D01*
X729660Y712298D01*
Y697618D01*
X729900Y695791D01*
X730605Y694088D01*
X731728Y692626D01*
X865934Y558419D01*
X865134Y555783D01*
X864806Y552450D01*
Y394716D01*
Y236474D01*
Y95314D01*
X840740D01*
X837407Y94986D01*
X834203Y94014D01*
X831250Y92435D01*
X828661Y90311D01*
X786674Y48324D01*
X780542D01*
X777209Y47996D01*
X774005Y47024D01*
X771052Y45445D01*
X768463Y43321D01*
X766339Y40732D01*
X765040Y38302D01*
X738886D01*
X737059Y38062D01*
X735356Y37357D01*
X733894Y36234D01*
X727072Y29412D01*
X562976D01*
X562635Y30682D01*
X564851Y31962D01*
X567225Y34335D01*
X568903Y37243D01*
X569772Y40485D01*
Y43843D01*
X568903Y47085D01*
X567225Y49993D01*
X564851Y52366D01*
X561943Y54045D01*
X558701Y54914D01*
X555343D01*
X552101Y54045D01*
X551345Y53609D01*
X533180Y71773D01*
Y247793D01*
X534450Y248317D01*
X535708Y247059D01*
X537718Y246227D01*
Y251968D01*
Y257709D01*
X535708Y256877D01*
X534450Y255619D01*
X533180Y256143D01*
Y293399D01*
X533153Y293538D01*
X533001Y294692D01*
X533790Y295962D01*
X535918Y296843D01*
X537547Y298472D01*
X538379Y300482D01*
X532638D01*
Y303022D01*
X538379D01*
X537547Y305032D01*
X535918Y306660D01*
X533790Y307542D01*
X533001Y308812D01*
X533153Y309966D01*
X533180Y310105D01*
X533180D01*
X533180Y310105D01*
X533180Y310105D01*
X533180Y311343D01*
Y322306D01*
X533180Y322306D01*
X532870Y323867D01*
X531986Y325190D01*
X531986Y325190D01*
X503344Y353832D01*
Y354358D01*
X502985Y355225D01*
X503833Y356495D01*
X547150D01*
X655724Y247921D01*
X656882Y247147D01*
X658248Y246875D01*
X705081D01*
X705289Y246102D01*
X706770Y243536D01*
X708864Y241442D01*
X711430Y239961D01*
X714291Y239194D01*
X717253D01*
X720114Y239961D01*
X722680Y241442D01*
X724774Y243536D01*
X726108Y245846D01*
X735794D01*
Y241494D01*
X755694D01*
Y261394D01*
X735794D01*
Y256042D01*
X725530D01*
X724774Y257352D01*
X722680Y259446D01*
X720870Y260491D01*
Y272128D01*
X724004Y275262D01*
X726143D01*
X729004Y276029D01*
X731570Y277510D01*
X733664Y279604D01*
X735145Y282170D01*
X735912Y285031D01*
Y287777D01*
X802552Y354418D01*
X803674Y355880D01*
X804380Y357583D01*
X804620Y359410D01*
Y377754D01*
X806586Y378889D01*
X809323Y381626D01*
X811258Y384978D01*
X812260Y388717D01*
Y392587D01*
X811258Y396326D01*
X809323Y399678D01*
X806586Y402415D01*
X803234Y404350D01*
X799495Y405352D01*
X795625D01*
X791886Y404350D01*
X788534Y402415D01*
X785797Y399678D01*
X783862Y396326D01*
X782860Y392587D01*
Y388717D01*
X783862Y384978D01*
X785797Y381626D01*
X788534Y378889D01*
X790500Y377754D01*
Y362335D01*
X737428Y309263D01*
X736328Y309898D01*
X736452Y310360D01*
Y310642D01*
X725932D01*
Y300122D01*
X726214D01*
X726676Y300246D01*
X727311Y299146D01*
X725927Y297762D01*
X723181D01*
X720320Y296995D01*
X717754Y295514D01*
X715660Y293420D01*
X714179Y290854D01*
X713412Y287993D01*
Y285031D01*
X714179Y282170D01*
X715026Y280703D01*
X712167Y277844D01*
X711062Y276190D01*
X710674Y274240D01*
Y260491D01*
X708864Y259446D01*
X706770Y257352D01*
X705289Y254786D01*
X705081Y254013D01*
X659726D01*
X579677Y334062D01*
X580203Y335332D01*
X580780D01*
X582908Y336213D01*
X584537Y337842D01*
X585369Y339852D01*
X579628D01*
Y341122D01*
X578358D01*
Y346863D01*
X576348Y346031D01*
X574720Y344402D01*
X573838Y342274D01*
Y341697D01*
X572568Y341171D01*
X551151Y362587D01*
X549994Y363361D01*
X548628Y363633D01*
X492753D01*
X491387Y363361D01*
X490230Y362587D01*
X488799Y361157D01*
X488724Y361188D01*
X486636D01*
X484706Y360389D01*
X483229Y358912D01*
X482430Y356982D01*
Y354894D01*
X483229Y352964D01*
X484706Y351487D01*
X486636Y350688D01*
X488724D01*
X490654Y351487D01*
X491574Y352407D01*
X492044Y352356D01*
X492958Y351995D01*
X493643Y350340D01*
X495120Y348863D01*
X497050Y348064D01*
X497576D01*
X525024Y320617D01*
Y310210D01*
X525011Y310205D01*
X525005Y310202D01*
X525001Y310194D01*
X524614Y309776D01*
X524151Y309172D01*
X522811Y307425D01*
X521678Y304689D01*
X521291Y301752D01*
X521678Y298815D01*
X522811Y296078D01*
X524151Y294332D01*
X524614Y293728D01*
X525001Y293310D01*
X525005Y293302D01*
X525011Y293299D01*
X525024Y293294D01*
Y273808D01*
X523754Y273074D01*
X522413Y273629D01*
X520325D01*
X518395Y272830D01*
X516918Y271353D01*
X516119Y269423D01*
Y267335D01*
X516812Y265661D01*
Y261722D01*
X397510Y142420D01*
X331114Y208815D01*
Y211537D01*
X331114Y211537D01*
X330804Y213098D01*
X329920Y214421D01*
X329920Y214421D01*
X325673Y218668D01*
X324350Y219552D01*
X322789Y219862D01*
X322789Y219862D01*
X316783D01*
X316783Y219862D01*
X315222Y219552D01*
X313960Y218708D01*
X270300D01*
X269928Y219081D01*
X267998Y219880D01*
X265910D01*
X263980Y219081D01*
X262503Y217604D01*
X261704Y215674D01*
Y213586D01*
X262503Y211656D01*
X263980Y210179D01*
X265910Y209380D01*
X267998D01*
X269928Y210179D01*
X270300Y210552D01*
X313417D01*
X313917Y209804D01*
X319786D01*
Y208534D01*
X321056D01*
Y202793D01*
X323066Y203626D01*
X323725Y204284D01*
X324152Y204242D01*
X392260Y136134D01*
Y135608D01*
X393059Y133678D01*
X394536Y132201D01*
X396466Y131402D01*
X398554D01*
X400484Y132201D01*
X401961Y133678D01*
X402760Y135608D01*
Y136134D01*
X480620Y213994D01*
X481890Y213468D01*
Y211954D01*
X482771Y209826D01*
X484400Y208197D01*
X486410Y207365D01*
Y213106D01*
X487680D01*
Y214376D01*
X493421D01*
X492589Y216386D01*
X490960Y218015D01*
X488832Y218896D01*
X487318D01*
X486792Y220166D01*
X523754Y257128D01*
X523843Y257126D01*
X525024Y256732D01*
Y70084D01*
X525024Y70084D01*
X525334Y68523D01*
X526218Y67200D01*
X545577Y47841D01*
X545141Y47085D01*
X544272Y43843D01*
Y40485D01*
X545141Y37243D01*
X546819Y34335D01*
X549193Y31962D01*
X551409Y30682D01*
X551068Y29412D01*
X435629D01*
X415599Y49442D01*
X414136Y50564D01*
X412434Y51270D01*
X410606Y51510D01*
X348742D01*
X346915Y51270D01*
X345212Y50564D01*
X343750Y49442D01*
X339598Y45291D01*
X339175Y45466D01*
X312928D01*
Y45064D01*
X313794Y41834D01*
X315466Y38938D01*
X316609Y37794D01*
X316083Y36524D01*
X218825D01*
X210667Y44682D01*
X210788Y45135D01*
Y48337D01*
X209959Y51430D01*
X208358Y54202D01*
X206094Y56466D01*
X203322Y58067D01*
X200229Y58896D01*
X197027D01*
X193934Y58067D01*
X191162Y56466D01*
X188898Y54202D01*
X188663Y53796D01*
X156848D01*
X144158Y66487D01*
X145694Y68993D01*
X147622Y73647D01*
X148798Y78545D01*
X149193Y83566D01*
Y244094D01*
Y403860D01*
Y563372D01*
X148798Y568393D01*
X147622Y573291D01*
X145694Y577945D01*
X144158Y580451D01*
X271046Y707339D01*
X275733D01*
X276048Y707024D01*
X278614Y705543D01*
X281475Y704776D01*
X284437D01*
X287298Y705543D01*
X289864Y707024D01*
X291958Y709118D01*
X293439Y711684D01*
X294206Y714545D01*
Y717507D01*
X293439Y720368D01*
X291958Y722934D01*
X289864Y725028D01*
X287298Y726509D01*
X284437Y727276D01*
X281475D01*
X278614Y726509D01*
X276048Y725028D01*
X273954Y722934D01*
X273103Y721460D01*
X268122D01*
X266294Y721219D01*
X264591Y720514D01*
X263129Y719392D01*
X134173Y590436D01*
X131667Y591972D01*
X127013Y593900D01*
X122115Y595076D01*
X117094Y595471D01*
X112073Y595076D01*
X107175Y593900D01*
X102521Y591972D01*
X98227Y589341D01*
X94397Y586069D01*
X91125Y582239D01*
X88494Y577945D01*
X86566Y573291D01*
X85390Y568393D01*
X84995Y563372D01*
Y403860D01*
Y244094D01*
Y83566D01*
X85390Y78545D01*
X86566Y73647D01*
X88494Y68993D01*
X91125Y64699D01*
X94397Y60869D01*
X98227Y57597D01*
X102521Y54966D01*
X107175Y53038D01*
X112073Y51862D01*
X117094Y51467D01*
X122115Y51862D01*
X127013Y53038D01*
X131667Y54966D01*
X134173Y56502D01*
X148932Y41744D01*
X150394Y40622D01*
X152097Y39916D01*
X153924Y39676D01*
X188663D01*
X188898Y39270D01*
X191162Y37006D01*
X193934Y35405D01*
X197027Y34576D01*
X200229D01*
X200682Y34697D01*
X210908Y24472D01*
X212370Y23349D01*
X214073Y22644D01*
X215900Y22404D01*
X333756D01*
X335583Y22644D01*
X337286Y23349D01*
X338748Y24472D01*
X351666Y37390D01*
X407682D01*
X427712Y17360D01*
X429174Y16237D01*
X430877Y15532D01*
X432704Y15292D01*
X729996D01*
X731823Y15532D01*
X733526Y16237D01*
X734988Y17360D01*
X741811Y24182D01*
X765040D01*
X766339Y21752D01*
X768463Y19163D01*
X771052Y17039D01*
X774005Y15460D01*
X777209Y14488D01*
X780542Y14160D01*
X793750D01*
X797083Y14488D01*
X800287Y15460D01*
X803240Y17039D01*
X805829Y19163D01*
X809639Y22973D01*
X847816Y61150D01*
X881888D01*
X885221Y61478D01*
X888425Y62450D01*
X891378Y64029D01*
X893967Y66153D01*
X896091Y68742D01*
X897670Y71695D01*
X898642Y74899D01*
X898970Y78232D01*
Y236474D01*
Y394716D01*
Y552450D01*
X898642Y555783D01*
X897670Y558987D01*
X896091Y561940D01*
X893967Y564529D01*
X891378Y566653D01*
X888425Y568232D01*
X885221Y569204D01*
X881888Y569532D01*
X878555Y569204D01*
X875919Y568404D01*
X743780Y700543D01*
Y714155D01*
X744586Y714960D01*
X746067Y717526D01*
X746834Y720387D01*
Y723349D01*
X746067Y726210D01*
X744586Y728776D01*
X742492Y730870D01*
X739926Y732351D01*
X737065Y733118D01*
D02*
G37*
G36*
X183202Y590296D02*
X183134D01*
Y581406D01*
X192024D01*
Y581474D01*
X191332Y584058D01*
X189994Y586374D01*
X188102Y588266D01*
X185786Y589604D01*
X183202Y590296D01*
D02*
G37*
G36*
X180594D02*
X180526D01*
X177942Y589604D01*
X175626Y588266D01*
X173734Y586374D01*
X172396Y584058D01*
X171704Y581474D01*
Y581406D01*
X180594D01*
Y590296D01*
D02*
G37*
G36*
X551206Y592210D02*
X550926D01*
Y577740D01*
X565396D01*
Y578020D01*
X564791Y581061D01*
X563605Y583926D01*
X561882Y586504D01*
X559690Y588696D01*
X557112Y590419D01*
X554247Y591605D01*
X551206Y592210D01*
D02*
G37*
G36*
X457734D02*
X457454D01*
Y577740D01*
X471924D01*
Y578020D01*
X471319Y581061D01*
X470133Y583926D01*
X468410Y586504D01*
X466218Y588696D01*
X463640Y590419D01*
X460775Y591605D01*
X457734Y592210D01*
D02*
G37*
G36*
X548386D02*
X548106D01*
X545065Y591605D01*
X542200Y590419D01*
X539622Y588696D01*
X537430Y586504D01*
X535707Y583926D01*
X534521Y581061D01*
X533916Y578020D01*
Y577740D01*
X548386D01*
Y592210D01*
D02*
G37*
G36*
X454914D02*
X454634D01*
X451593Y591605D01*
X448728Y590419D01*
X446150Y588696D01*
X443958Y586504D01*
X442235Y583926D01*
X441049Y581061D01*
X440444Y578020D01*
Y577740D01*
X454914D01*
Y592210D01*
D02*
G37*
G36*
X823536Y581660D02*
X823468D01*
Y572770D01*
X832358D01*
Y572838D01*
X831666Y575422D01*
X830328Y577738D01*
X828436Y579630D01*
X826120Y580968D01*
X823536Y581660D01*
D02*
G37*
G36*
X820928D02*
X820860D01*
X818276Y580968D01*
X815960Y579630D01*
X814068Y577738D01*
X812730Y575422D01*
X812038Y572838D01*
Y572770D01*
X820928D01*
Y581660D01*
D02*
G37*
G36*
X192024Y578866D02*
X183134D01*
Y569976D01*
X183202D01*
X185786Y570668D01*
X188102Y572006D01*
X189994Y573898D01*
X191332Y576214D01*
X192024Y578798D01*
Y578866D01*
D02*
G37*
G36*
X180594D02*
X171704D01*
Y578798D01*
X172396Y576214D01*
X173734Y573898D01*
X175626Y572006D01*
X177942Y570668D01*
X180526Y569976D01*
X180594D01*
Y578866D01*
D02*
G37*
G36*
X42446Y575162D02*
X42164D01*
Y564642D01*
X52684D01*
Y564924D01*
X51881Y567923D01*
X50328Y570611D01*
X48133Y572806D01*
X45445Y574359D01*
X42446Y575162D01*
D02*
G37*
G36*
X39624D02*
X39342D01*
X36343Y574359D01*
X33655Y572806D01*
X31460Y570611D01*
X29907Y567923D01*
X29104Y564924D01*
Y564642D01*
X39624D01*
Y575162D01*
D02*
G37*
G36*
X832358Y570230D02*
X823468D01*
Y561340D01*
X823536D01*
X826120Y562032D01*
X828436Y563370D01*
X830328Y565262D01*
X831666Y567578D01*
X832358Y570162D01*
Y570230D01*
D02*
G37*
G36*
X820928D02*
X812038D01*
Y570162D01*
X812730Y567578D01*
X814068Y565262D01*
X815960Y563370D01*
X818276Y562032D01*
X820860Y561340D01*
X820928D01*
Y570230D01*
D02*
G37*
G36*
X565396Y575200D02*
X550926D01*
Y560730D01*
X551206D01*
X554247Y561335D01*
X557112Y562521D01*
X559690Y564244D01*
X561882Y566436D01*
X563605Y569014D01*
X564791Y571879D01*
X565396Y574920D01*
Y575200D01*
D02*
G37*
G36*
X548386D02*
X533916D01*
Y574920D01*
X534521Y571879D01*
X535707Y569014D01*
X537430Y566436D01*
X539622Y564244D01*
X542200Y562521D01*
X545065Y561335D01*
X548106Y560730D01*
X548386D01*
Y575200D01*
D02*
G37*
G36*
X471924D02*
X457454D01*
Y560730D01*
X457734D01*
X460775Y561335D01*
X463640Y562521D01*
X466218Y564244D01*
X468410Y566436D01*
X470133Y569014D01*
X471319Y571879D01*
X471924Y574920D01*
Y575200D01*
D02*
G37*
G36*
X454914D02*
X440444D01*
Y574920D01*
X441049Y571879D01*
X442235Y569014D01*
X443958Y566436D01*
X446150Y564244D01*
X448728Y562521D01*
X451593Y561335D01*
X454634Y560730D01*
X454914D01*
Y575200D01*
D02*
G37*
G36*
X959640Y564240D02*
X959358D01*
Y553720D01*
X969878D01*
Y554002D01*
X969075Y557001D01*
X967522Y559689D01*
X965327Y561884D01*
X962639Y563437D01*
X959640Y564240D01*
D02*
G37*
G36*
X956818D02*
X956536D01*
X953537Y563437D01*
X950849Y561884D01*
X948654Y559689D01*
X947101Y557001D01*
X946298Y554002D01*
Y553720D01*
X956818D01*
Y564240D01*
D02*
G37*
G36*
X52684Y562102D02*
X42164D01*
Y551582D01*
X42446D01*
X45445Y552385D01*
X48133Y553938D01*
X50328Y556133D01*
X51881Y558821D01*
X52684Y561820D01*
Y562102D01*
D02*
G37*
G36*
X39624D02*
X29104D01*
Y561820D01*
X29907Y558821D01*
X31460Y556133D01*
X33655Y553938D01*
X36343Y552385D01*
X39342Y551582D01*
X39624D01*
Y562102D01*
D02*
G37*
G36*
X969878Y551180D02*
X959358D01*
Y540660D01*
X959640D01*
X962639Y541463D01*
X965327Y543016D01*
X967522Y545211D01*
X969075Y547899D01*
X969878Y550898D01*
Y551180D01*
D02*
G37*
G36*
X956818D02*
X946298D01*
Y550898D01*
X947101Y547899D01*
X948654Y545211D01*
X950849Y543016D01*
X953537Y541463D01*
X956536Y540660D01*
X956818D01*
Y551180D01*
D02*
G37*
G36*
X183362Y533748D02*
X183294D01*
Y524858D01*
X192184D01*
Y524926D01*
X191492Y527510D01*
X190154Y529826D01*
X188262Y531718D01*
X185946Y533056D01*
X183362Y533748D01*
D02*
G37*
G36*
X180754D02*
X180686D01*
X178102Y533056D01*
X175786Y531718D01*
X173894Y529826D01*
X172556Y527510D01*
X171864Y524926D01*
Y524858D01*
X180754D01*
Y533748D01*
D02*
G37*
G36*
X823282Y525526D02*
X823214D01*
Y516636D01*
X832104D01*
Y516704D01*
X831412Y519288D01*
X830074Y521604D01*
X828182Y523496D01*
X825866Y524834D01*
X823282Y525526D01*
D02*
G37*
G36*
X820674D02*
X820606D01*
X818022Y524834D01*
X815706Y523496D01*
X813814Y521604D01*
X812476Y519288D01*
X811784Y516704D01*
Y516636D01*
X820674D01*
Y525526D01*
D02*
G37*
G36*
X192184Y522318D02*
X183294D01*
Y513428D01*
X183362D01*
X185946Y514120D01*
X188262Y515458D01*
X190154Y517350D01*
X191492Y519666D01*
X192184Y522250D01*
Y522318D01*
D02*
G37*
G36*
X180754D02*
X171864D01*
Y522250D01*
X172556Y519666D01*
X173894Y517350D01*
X175786Y515458D01*
X178102Y514120D01*
X180686Y513428D01*
X180754D01*
Y522318D01*
D02*
G37*
G36*
X832104Y514096D02*
X823214D01*
Y505206D01*
X823282D01*
X825866Y505898D01*
X828182Y507236D01*
X830074Y509128D01*
X831412Y511444D01*
X832104Y514028D01*
Y514096D01*
D02*
G37*
G36*
X820674D02*
X811784D01*
Y514028D01*
X812476Y511444D01*
X813814Y509128D01*
X815706Y507236D01*
X818022Y505898D01*
X820606Y505206D01*
X820674D01*
Y514096D01*
D02*
G37*
G36*
X319606Y727276D02*
X297106D01*
Y704776D01*
X309621D01*
X378004Y636394D01*
Y595638D01*
X375574Y594339D01*
X372985Y592215D01*
X370861Y589626D01*
X369282Y586673D01*
X368310Y583469D01*
X367982Y580136D01*
X368142Y578512D01*
Y523588D01*
X368470Y520255D01*
X368744Y519353D01*
Y466598D01*
X369072Y463265D01*
X370044Y460061D01*
X371623Y457108D01*
X373747Y454519D01*
X376336Y452395D01*
X379289Y450816D01*
X382493Y449844D01*
X385826Y449516D01*
X389159Y449844D01*
X392363Y450816D01*
X395316Y452395D01*
X397905Y454519D01*
X400029Y457108D01*
X401608Y460061D01*
X402580Y463265D01*
X402908Y466598D01*
Y506506D01*
X449053D01*
X449647Y506188D01*
X452851Y505216D01*
X456184Y504888D01*
X459517Y505216D01*
X462721Y506188D01*
X465674Y507767D01*
X468263Y509891D01*
X470387Y512480D01*
X471966Y515433D01*
X472938Y518637D01*
X473266Y521970D01*
X472938Y525303D01*
X471966Y528507D01*
X470387Y531460D01*
X468263Y534049D01*
X466645Y535667D01*
X464056Y537791D01*
X461103Y539370D01*
X457899Y540342D01*
X454566Y540670D01*
X402306D01*
Y579976D01*
X401978Y583309D01*
X401006Y586513D01*
X399427Y589466D01*
X397303Y592055D01*
X397143Y592215D01*
X394554Y594339D01*
X392124Y595638D01*
Y639318D01*
X391884Y641145D01*
X391179Y642848D01*
X390056Y644310D01*
X319606Y714761D01*
Y727276D01*
D02*
G37*
G36*
X183964Y476758D02*
X183896D01*
Y467868D01*
X192786D01*
Y467936D01*
X192094Y470520D01*
X190756Y472836D01*
X188864Y474728D01*
X186548Y476066D01*
X183964Y476758D01*
D02*
G37*
G36*
X181356D02*
X181288D01*
X178704Y476066D01*
X176388Y474728D01*
X174496Y472836D01*
X173158Y470520D01*
X172466Y467936D01*
Y467868D01*
X181356D01*
Y476758D01*
D02*
G37*
G36*
X823282Y469138D02*
X823214D01*
Y460248D01*
X832104D01*
Y460316D01*
X831412Y462900D01*
X830074Y465216D01*
X828182Y467108D01*
X825866Y468446D01*
X823282Y469138D01*
D02*
G37*
G36*
X820674D02*
X820606D01*
X818022Y468446D01*
X815706Y467108D01*
X813814Y465216D01*
X812476Y462900D01*
X811784Y460316D01*
Y460248D01*
X820674D01*
Y469138D01*
D02*
G37*
G36*
X192786Y465328D02*
X183896D01*
Y456438D01*
X183964D01*
X186548Y457130D01*
X188864Y458468D01*
X190756Y460360D01*
X192094Y462676D01*
X192786Y465260D01*
Y465328D01*
D02*
G37*
G36*
X181356D02*
X172466D01*
Y465260D01*
X173158Y462676D01*
X174496Y460360D01*
X176388Y458468D01*
X178704Y457130D01*
X181288Y456438D01*
X181356D01*
Y465328D01*
D02*
G37*
G36*
X721434Y733118D02*
X698934D01*
Y720603D01*
X614006Y635674D01*
X612883Y634212D01*
X612178Y632509D01*
X611938Y630682D01*
Y587002D01*
X609508Y585703D01*
X606919Y583579D01*
X606665Y583325D01*
X604541Y580736D01*
X602962Y577783D01*
X601990Y574579D01*
X601662Y571246D01*
Y539052D01*
X549656D01*
X546323Y538724D01*
X544531Y538180D01*
X538734D01*
X535401Y537852D01*
X532197Y536880D01*
X529244Y535301D01*
X526655Y533177D01*
X524531Y530588D01*
X522952Y527635D01*
X521980Y524431D01*
X521652Y521098D01*
X521980Y517765D01*
X522952Y514561D01*
X524531Y511608D01*
X526655Y509019D01*
X529244Y506895D01*
X532197Y505316D01*
X535401Y504344D01*
X538734Y504016D01*
X549656D01*
X552989Y504344D01*
X554781Y504888D01*
X601662D01*
Y458978D01*
X601908Y456483D01*
X600688Y455906D01*
X584132Y472463D01*
X582669Y473585D01*
X580967Y474290D01*
X579139Y474530D01*
X564856D01*
Y482670D01*
X534456D01*
Y452270D01*
X564856D01*
Y460410D01*
X576215D01*
X609063Y427561D01*
X610526Y426439D01*
X612229Y425734D01*
X614056Y425493D01*
X634237D01*
X655861Y403869D01*
X655375Y402696D01*
X654276D01*
X651277Y401893D01*
X648589Y400340D01*
X646394Y398145D01*
X644842Y395457D01*
X644038Y392458D01*
Y392176D01*
X655828D01*
Y390906D01*
X657098D01*
Y379116D01*
X657380D01*
X660379Y379920D01*
X663067Y381472D01*
X665262Y383667D01*
X666814Y386355D01*
X667618Y389354D01*
Y390453D01*
X668791Y390939D01*
X674564Y385166D01*
Y344596D01*
X673390Y344110D01*
X673303Y344197D01*
X671341Y345330D01*
X669153Y345916D01*
X666887D01*
X664699Y345330D01*
X662737Y344197D01*
X661135Y342595D01*
X660440Y341390D01*
X654865D01*
X654525Y342660D01*
X654585Y342695D01*
X656287Y344398D01*
X657491Y346483D01*
X658096Y348742D01*
X648970D01*
X639844D01*
X640449Y346483D01*
X641653Y344398D01*
X643355Y342695D01*
X644369Y342110D01*
X644531Y341408D01*
X644418Y340615D01*
X643790Y340196D01*
X643790Y340196D01*
X633847Y330253D01*
X632963Y328930D01*
X632653Y327369D01*
X632653Y327369D01*
Y322007D01*
X630483Y319837D01*
X630452Y319855D01*
X627591Y320622D01*
X624629D01*
X621768Y319855D01*
X619202Y318374D01*
X617108Y316280D01*
X615627Y313714D01*
X614860Y310853D01*
Y307891D01*
X615627Y305030D01*
X617108Y302464D01*
X619202Y300370D01*
X621768Y298889D01*
X624629Y298122D01*
X627591D01*
X630452Y298889D01*
X633018Y300370D01*
X635112Y302464D01*
X636593Y305030D01*
X637360Y307891D01*
Y310853D01*
X636593Y313714D01*
X636338Y314157D01*
X639615Y317434D01*
X639615Y317434D01*
X640499Y318757D01*
X640614Y319336D01*
X641953Y319558D01*
X642085Y319329D01*
X643687Y317727D01*
X644200Y317431D01*
Y308169D01*
X644429Y307014D01*
X644082Y305717D01*
Y303561D01*
X644640Y301478D01*
X645718Y299610D01*
X647243Y298085D01*
X649111Y297007D01*
X651194Y296449D01*
X653350D01*
X655433Y297007D01*
X657301Y298085D01*
X657992Y298776D01*
X671994D01*
X674238Y299223D01*
X674491Y299391D01*
X675362Y298889D01*
X678223Y298122D01*
X681185D01*
X684046Y298889D01*
X686612Y300370D01*
X688706Y302464D01*
X690187Y305030D01*
X690954Y307891D01*
Y310853D01*
X690187Y313714D01*
X688706Y316280D01*
X686612Y318374D01*
X684046Y319855D01*
X682104Y320376D01*
X681724Y321792D01*
X686617Y326685D01*
X687738Y328147D01*
X688444Y329850D01*
X688684Y331677D01*
Y388091D01*
X688444Y389918D01*
X687738Y391621D01*
X686617Y393083D01*
X642154Y437546D01*
X640692Y438668D01*
X638989Y439373D01*
X637161Y439614D01*
X616980D01*
X615672Y440922D01*
X616249Y442141D01*
X618744Y441896D01*
X622077Y442224D01*
X625281Y443196D01*
X628234Y444775D01*
X630823Y446899D01*
X632947Y449488D01*
X634526Y452441D01*
X635498Y455645D01*
X635826Y458978D01*
Y515366D01*
X635826Y515366D01*
X635826Y515366D01*
Y568921D01*
X636080Y571500D01*
X635752Y574833D01*
X634780Y578037D01*
X633201Y580990D01*
X631077Y583579D01*
X628488Y585703D01*
X626058Y587002D01*
Y627757D01*
X708919Y710618D01*
X721434D01*
Y733118D01*
D02*
G37*
G36*
X832104Y457708D02*
X823214D01*
Y448818D01*
X823282D01*
X825866Y449510D01*
X828182Y450848D01*
X830074Y452740D01*
X831412Y455056D01*
X832104Y457640D01*
Y457708D01*
D02*
G37*
G36*
X820674D02*
X811784D01*
Y457640D01*
X812476Y455056D01*
X813814Y452740D01*
X815706Y450848D01*
X818022Y449510D01*
X820606Y448818D01*
X820674D01*
Y457708D01*
D02*
G37*
G36*
X42446Y415650D02*
X42164D01*
Y405130D01*
X52684D01*
Y405412D01*
X51881Y408411D01*
X50328Y411099D01*
X48133Y413294D01*
X45445Y414847D01*
X42446Y415650D01*
D02*
G37*
G36*
X39624D02*
X39342D01*
X36343Y414847D01*
X33655Y413294D01*
X31460Y411099D01*
X29907Y408411D01*
X29104Y405412D01*
Y405130D01*
X39624D01*
Y415650D01*
D02*
G37*
G36*
X471384Y482670D02*
X440984D01*
Y458038D01*
X439838Y456892D01*
X438954Y455569D01*
X438644Y454008D01*
X438644Y454008D01*
Y401903D01*
X437470Y401417D01*
X433880Y405008D01*
X432557Y405892D01*
X430996Y406202D01*
X430996Y406202D01*
X364844D01*
X364844Y406202D01*
X363283Y405892D01*
X361960Y405008D01*
X347618Y390666D01*
X337198D01*
X337127Y390930D01*
X335646Y393496D01*
X333552Y395590D01*
X330986Y397071D01*
X328125Y397838D01*
X325163D01*
X322302Y397071D01*
X319736Y395590D01*
X317642Y393496D01*
X316161Y390930D01*
X315394Y388069D01*
Y385107D01*
X316161Y382246D01*
X317642Y379680D01*
X319736Y377586D01*
X322302Y376105D01*
X325163Y375338D01*
X328125D01*
X330986Y376105D01*
X333552Y377586D01*
X335646Y379680D01*
X337127Y382246D01*
X337198Y382510D01*
X349308D01*
X349308Y382510D01*
X350868Y382820D01*
X352192Y383704D01*
X357369Y388881D01*
X358542Y388395D01*
Y387322D01*
X359346Y384323D01*
X360898Y381635D01*
X363093Y379440D01*
X365781Y377887D01*
X368780Y377084D01*
X369062D01*
Y388874D01*
X370332D01*
Y390144D01*
X382122D01*
Y390426D01*
X381319Y393425D01*
X379766Y396113D01*
X379007Y396872D01*
X379493Y398046D01*
X387198D01*
X387724Y396776D01*
X386730Y395782D01*
X385249Y393216D01*
X384482Y390355D01*
Y387393D01*
X385249Y384532D01*
X386730Y381966D01*
X388824Y379872D01*
X391390Y378391D01*
X394251Y377624D01*
X397213D01*
X400074Y378391D01*
X402640Y379872D01*
X404734Y381966D01*
X406215Y384532D01*
X406286Y384796D01*
X416806D01*
X417332Y383526D01*
X416787Y382981D01*
X415654Y381019D01*
X415068Y378831D01*
Y376565D01*
X415428Y375222D01*
X399631Y359424D01*
X337452D01*
X337381Y359688D01*
X335900Y362254D01*
X333806Y364348D01*
X331240Y365829D01*
X328379Y366596D01*
X325417D01*
X322556Y365829D01*
X319990Y364348D01*
X317896Y362254D01*
X316415Y359688D01*
X315648Y356827D01*
Y353865D01*
X316415Y351004D01*
X317896Y348438D01*
X319990Y346344D01*
X322556Y344863D01*
X325417Y344096D01*
X328379D01*
X331240Y344863D01*
X333806Y346344D01*
X335900Y348438D01*
X337381Y351004D01*
X337452Y351268D01*
X401320D01*
X401320Y351268D01*
X402881Y351578D01*
X404204Y352462D01*
X421196Y369454D01*
X422539Y369094D01*
X424805D01*
X426796Y369628D01*
X426979Y369593D01*
X427347Y369388D01*
X428040Y368818D01*
Y352488D01*
X428040Y352488D01*
X428350Y350927D01*
X429234Y349604D01*
X431786Y347053D01*
Y285207D01*
X431786Y285207D01*
X432096Y283646D01*
X432980Y282323D01*
X437512Y277791D01*
Y224692D01*
X436242Y223843D01*
X435384Y224198D01*
X434858D01*
X430366Y228690D01*
X429043Y229574D01*
X427482Y229884D01*
X427482Y229884D01*
X399800D01*
X396793Y232892D01*
X395470Y233776D01*
X393909Y234086D01*
X393909Y234086D01*
X387903D01*
X387903Y234086D01*
X386342Y233776D01*
X385019Y232892D01*
X385019Y232892D01*
X382012Y229884D01*
X367074D01*
X366702Y230257D01*
X364772Y231056D01*
X362684D01*
X360754Y230257D01*
X359277Y228780D01*
X358478Y226850D01*
Y224762D01*
X359277Y222832D01*
X360754Y221355D01*
X362684Y220556D01*
X364772D01*
X366702Y221355D01*
X367074Y221728D01*
X383701D01*
X383701Y221728D01*
X383846Y221756D01*
X385116Y221606D01*
X385998Y219478D01*
X387626Y217850D01*
X389636Y217017D01*
Y222758D01*
X392176D01*
Y217017D01*
X394186Y217850D01*
X395815Y219478D01*
X396696Y221606D01*
X397091Y221931D01*
X398111Y221728D01*
X398111Y221728D01*
X425793D01*
X429090Y218430D01*
Y217904D01*
X429889Y215974D01*
X431366Y214497D01*
X432288Y214115D01*
X432765Y212543D01*
X432574Y212258D01*
X432264Y210697D01*
X432264Y210697D01*
Y205501D01*
X431413Y204650D01*
X430614Y202720D01*
Y200632D01*
X431413Y198702D01*
X432890Y197225D01*
X434820Y196426D01*
X436908D01*
X438838Y197225D01*
X440315Y198702D01*
X441114Y200632D01*
Y202720D01*
X440421Y204394D01*
Y209008D01*
X444474Y213061D01*
X445358Y214384D01*
X445668Y215945D01*
X445668Y215945D01*
Y279480D01*
X445358Y281041D01*
X444474Y282364D01*
X444474Y282364D01*
X439942Y286896D01*
Y329014D01*
X440257Y329144D01*
X441212Y329417D01*
X442956Y328410D01*
X445039Y327852D01*
X447195D01*
X449278Y328410D01*
X451146Y329488D01*
X452671Y331013D01*
X453749Y332881D01*
X454307Y334964D01*
Y337120D01*
X453749Y339203D01*
X452671Y341071D01*
X451146Y342596D01*
X449278Y343674D01*
X447195Y344232D01*
X445039D01*
X442956Y343674D01*
X441212Y342667D01*
X440257Y342940D01*
X439942Y343070D01*
Y348742D01*
X439632Y350303D01*
X438748Y351626D01*
X438748Y351626D01*
X436196Y354177D01*
Y356941D01*
X437466Y357474D01*
X439193Y356477D01*
X441452Y355872D01*
Y364998D01*
Y374124D01*
X439624Y373634D01*
X438354Y374355D01*
Y381518D01*
X439047Y382088D01*
X439415Y382293D01*
X439598Y382328D01*
X441589Y381794D01*
X443855D01*
X446043Y382380D01*
X448005Y383513D01*
X449607Y385115D01*
X450740Y387077D01*
X451326Y389265D01*
Y391531D01*
X450740Y393719D01*
X449607Y395681D01*
X448005Y397283D01*
X446800Y397978D01*
Y452270D01*
X471384D01*
Y482670D01*
D02*
G37*
G36*
X959640Y406506D02*
X959358D01*
Y395986D01*
X969878D01*
Y396268D01*
X969075Y399267D01*
X967522Y401955D01*
X965327Y404150D01*
X962639Y405703D01*
X959640Y406506D01*
D02*
G37*
G36*
X956818D02*
X956536D01*
X953537Y405703D01*
X950849Y404150D01*
X948654Y401955D01*
X947101Y399267D01*
X946298Y396268D01*
Y395986D01*
X956818D01*
Y406506D01*
D02*
G37*
G36*
X52684Y402590D02*
X42164D01*
Y392070D01*
X42446D01*
X45445Y392873D01*
X48133Y394426D01*
X50328Y396621D01*
X51881Y399309D01*
X52684Y402308D01*
Y402590D01*
D02*
G37*
G36*
X39624D02*
X29104D01*
Y402308D01*
X29907Y399309D01*
X31460Y396621D01*
X33655Y394426D01*
X36343Y392873D01*
X39342Y392070D01*
X39624D01*
Y402590D01*
D02*
G37*
G36*
X969878Y393446D02*
X959358D01*
Y382926D01*
X959640D01*
X962639Y383729D01*
X965327Y385282D01*
X967522Y387477D01*
X969075Y390165D01*
X969878Y393164D01*
Y393446D01*
D02*
G37*
G36*
X956818D02*
X946298D01*
Y393164D01*
X947101Y390165D01*
X948654Y387477D01*
X950849Y385282D01*
X953537Y383729D01*
X956536Y382926D01*
X956818D01*
Y393446D01*
D02*
G37*
G36*
X631909Y402156D02*
X628947D01*
X626086Y401389D01*
X623520Y399908D01*
X621426Y397814D01*
X619945Y395248D01*
X619178Y392387D01*
Y389425D01*
X619945Y386564D01*
X621426Y383998D01*
X623520Y381904D01*
X626086Y380423D01*
X628947Y379656D01*
X631909D01*
X634770Y380423D01*
X637336Y381904D01*
X639430Y383998D01*
X640911Y386564D01*
X641678Y389425D01*
Y392387D01*
X640911Y395248D01*
X639430Y397814D01*
X637336Y399908D01*
X634770Y401389D01*
X631909Y402156D01*
D02*
G37*
G36*
X654558Y389636D02*
X644038D01*
Y389354D01*
X644842Y386355D01*
X646394Y383667D01*
X648589Y381472D01*
X651277Y379920D01*
X654276Y379116D01*
X654558D01*
Y389636D01*
D02*
G37*
G36*
X382122Y387604D02*
X371602D01*
Y377084D01*
X371884D01*
X374883Y377887D01*
X377571Y379440D01*
X379766Y381635D01*
X381319Y384323D01*
X382122Y387322D01*
Y387604D01*
D02*
G37*
G36*
X443992Y374124D02*
Y366268D01*
X451848D01*
X451243Y368527D01*
X450039Y370612D01*
X448336Y372315D01*
X446251Y373519D01*
X443992Y374124D01*
D02*
G37*
G36*
X451848Y363728D02*
X443992D01*
Y355872D01*
X446251Y356477D01*
X448336Y357681D01*
X450039Y359384D01*
X451243Y361469D01*
X451848Y363728D01*
D02*
G37*
G36*
X650240Y359138D02*
Y351282D01*
X658096D01*
X657491Y353541D01*
X656287Y355626D01*
X654585Y357329D01*
X652499Y358533D01*
X650240Y359138D01*
D02*
G37*
G36*
X647700D02*
X645441Y358533D01*
X643355Y357329D01*
X641653Y355626D01*
X640449Y353541D01*
X639844Y351282D01*
X647700D01*
Y359138D01*
D02*
G37*
G36*
X226525Y397838D02*
X223563D01*
X220702Y397071D01*
X218136Y395590D01*
X216042Y393496D01*
X214561Y390930D01*
X213794Y388069D01*
Y385107D01*
X214561Y382246D01*
X216042Y379680D01*
X218136Y377586D01*
X220702Y376105D01*
X221093Y376000D01*
Y365866D01*
X220956Y365829D01*
X218390Y364348D01*
X216296Y362254D01*
X214815Y359688D01*
X214048Y356827D01*
Y353865D01*
X214815Y351004D01*
X216296Y348438D01*
X218390Y346344D01*
X220956Y344863D01*
X223817Y344096D01*
X226779D01*
X229640Y344863D01*
X232206Y346344D01*
X234300Y348438D01*
X235781Y351004D01*
X236548Y353865D01*
Y356827D01*
X235781Y359688D01*
X234300Y362254D01*
X232206Y364348D01*
X229640Y365829D01*
X229249Y365934D01*
Y376068D01*
X229386Y376105D01*
X231952Y377586D01*
X234046Y379680D01*
X235527Y382246D01*
X236294Y385107D01*
Y388069D01*
X235527Y390930D01*
X234046Y393496D01*
X231952Y395590D01*
X229386Y397071D01*
X226525Y397838D01*
D02*
G37*
G36*
X580898Y346863D02*
Y342392D01*
X585369D01*
X584537Y344402D01*
X582908Y346031D01*
X580898Y346863D01*
D02*
G37*
G36*
X379477Y344772D02*
X372017D01*
Y337312D01*
X379477D01*
Y344772D01*
D02*
G37*
G36*
X369477D02*
X362017D01*
Y337312D01*
X369477D01*
Y344772D01*
D02*
G37*
G36*
X379477Y334772D02*
X372017D01*
Y327312D01*
X379477D01*
Y334772D01*
D02*
G37*
G36*
X369477D02*
X362017D01*
Y327312D01*
X369477D01*
Y334772D01*
D02*
G37*
G36*
X726214Y323702D02*
X725932D01*
Y313182D01*
X736452D01*
Y313464D01*
X735648Y316463D01*
X734096Y319151D01*
X731901Y321346D01*
X729213Y322898D01*
X726214Y323702D01*
D02*
G37*
G36*
X723392D02*
X723110D01*
X720111Y322898D01*
X717423Y321346D01*
X715228Y319151D01*
X713676Y316463D01*
X712872Y313464D01*
Y313182D01*
X723392D01*
Y323702D01*
D02*
G37*
G36*
X499392Y338752D02*
X497304D01*
X495374Y337953D01*
X493897Y336476D01*
X493098Y334546D01*
Y332458D01*
X493897Y330528D01*
X494985Y329440D01*
Y316623D01*
X494358Y316363D01*
X492881Y314886D01*
X492082Y312956D01*
Y310868D01*
X492881Y308938D01*
X494358Y307461D01*
X496288Y306662D01*
X498376D01*
X500306Y307461D01*
X501783Y308938D01*
X502582Y310868D01*
Y312956D01*
X501783Y314886D01*
X500695Y315974D01*
Y328792D01*
X501322Y329051D01*
X502799Y330528D01*
X503598Y332458D01*
Y334546D01*
X502799Y336476D01*
X501322Y337953D01*
X499392Y338752D01*
D02*
G37*
G36*
X723392Y310642D02*
X712872D01*
Y310360D01*
X713676Y307361D01*
X715228Y304673D01*
X717423Y302478D01*
X720111Y300926D01*
X723110Y300122D01*
X723392D01*
Y310642D01*
D02*
G37*
G36*
X387350Y289967D02*
Y285496D01*
X391821D01*
X390989Y287506D01*
X389360Y289135D01*
X387350Y289967D01*
D02*
G37*
G36*
X384810D02*
X382800Y289135D01*
X381171Y287506D01*
X380339Y285496D01*
X384810D01*
Y289967D01*
D02*
G37*
G36*
X391821Y282956D02*
X387350D01*
Y278485D01*
X389360Y279317D01*
X390989Y280946D01*
X391821Y282956D01*
D02*
G37*
G36*
X384810D02*
X380339D01*
X381171Y280946D01*
X382800Y279317D01*
X384810Y278485D01*
Y282956D01*
D02*
G37*
G36*
X585975Y261529D02*
Y257058D01*
X590446D01*
X589613Y259067D01*
X587984Y260696D01*
X585975Y261529D01*
D02*
G37*
G36*
X583435D02*
X581425Y260696D01*
X579796Y259067D01*
X578964Y257058D01*
X583435D01*
Y261529D01*
D02*
G37*
G36*
X540258Y257709D02*
Y253238D01*
X544729D01*
X543896Y255248D01*
X542268Y256877D01*
X540258Y257709D01*
D02*
G37*
G36*
X590446Y254518D02*
X585975D01*
Y250047D01*
X587984Y250879D01*
X589613Y252508D01*
X590446Y254518D01*
D02*
G37*
G36*
X583435D02*
X578964D01*
X579796Y252508D01*
X581425Y250879D01*
X583435Y250047D01*
Y254518D01*
D02*
G37*
G36*
X544729Y250698D02*
X540258D01*
Y246227D01*
X542268Y247059D01*
X543896Y248688D01*
X544729Y250698D01*
D02*
G37*
G36*
X42446Y255884D02*
X42164D01*
Y245364D01*
X52684D01*
Y245646D01*
X51881Y248645D01*
X50328Y251333D01*
X48133Y253528D01*
X45445Y255081D01*
X42446Y255884D01*
D02*
G37*
G36*
X39624D02*
X39342D01*
X36343Y255081D01*
X33655Y253528D01*
X31460Y251333D01*
X29907Y248645D01*
X29104Y245646D01*
Y245364D01*
X39624D01*
Y255884D01*
D02*
G37*
G36*
X959640Y248264D02*
X959358D01*
Y237744D01*
X969878D01*
Y238026D01*
X969075Y241025D01*
X967522Y243713D01*
X965327Y245908D01*
X962639Y247461D01*
X959640Y248264D01*
D02*
G37*
G36*
X956818D02*
X956536D01*
X953537Y247461D01*
X950849Y245908D01*
X948654Y243713D01*
X947101Y241025D01*
X946298Y238026D01*
Y237744D01*
X956818D01*
Y248264D01*
D02*
G37*
G36*
X52684Y242824D02*
X42164D01*
Y232304D01*
X42446D01*
X45445Y233107D01*
X48133Y234660D01*
X50328Y236855D01*
X51881Y239543D01*
X52684Y242542D01*
Y242824D01*
D02*
G37*
G36*
X39624D02*
X29104D01*
Y242542D01*
X29907Y239543D01*
X31460Y236855D01*
X33655Y234660D01*
X36343Y233107D01*
X39342Y232304D01*
X39624D01*
Y242824D01*
D02*
G37*
G36*
X661002Y237999D02*
X653542D01*
Y230539D01*
X661002D01*
Y237999D01*
D02*
G37*
G36*
X651002D02*
X643542D01*
Y230539D01*
X651002D01*
Y237999D01*
D02*
G37*
G36*
X969878Y235204D02*
X959358D01*
Y224684D01*
X959640D01*
X962639Y225487D01*
X965327Y227040D01*
X967522Y229235D01*
X969075Y231923D01*
X969878Y234922D01*
Y235204D01*
D02*
G37*
G36*
X956818D02*
X946298D01*
Y234922D01*
X947101Y231923D01*
X948654Y229235D01*
X950849Y227040D01*
X953537Y225487D01*
X956536Y224684D01*
X956818D01*
Y235204D01*
D02*
G37*
G36*
X661002Y227999D02*
X653542D01*
Y220539D01*
X661002D01*
Y227999D01*
D02*
G37*
G36*
X651002D02*
X643542D01*
Y220539D01*
X651002D01*
Y227999D01*
D02*
G37*
G36*
X567094Y220859D02*
Y216388D01*
X571565D01*
X570732Y218398D01*
X569104Y220026D01*
X567094Y220859D01*
D02*
G37*
G36*
X564554D02*
X562544Y220026D01*
X560915Y218398D01*
X560083Y216388D01*
X564554D01*
Y220859D01*
D02*
G37*
G36*
X681185Y219022D02*
X678223D01*
X675362Y218255D01*
X672796Y216774D01*
X670702Y214680D01*
X669221Y212114D01*
X669150Y211850D01*
X636664D01*
X636593Y212114D01*
X635112Y214680D01*
X633018Y216774D01*
X630452Y218255D01*
X627591Y219022D01*
X624629D01*
X621768Y218255D01*
X619202Y216774D01*
X617108Y214680D01*
X615627Y212114D01*
X614860Y209253D01*
Y206291D01*
X615627Y203430D01*
X617108Y200864D01*
X619202Y198770D01*
X621768Y197289D01*
X624629Y196522D01*
X627591D01*
X630452Y197289D01*
X633018Y198770D01*
X635112Y200864D01*
X636593Y203430D01*
X636664Y203694D01*
X669150D01*
X669221Y203430D01*
X670702Y200864D01*
X672796Y198770D01*
X675362Y197289D01*
X678223Y196522D01*
X681185D01*
X684046Y197289D01*
X686612Y198770D01*
X688706Y200864D01*
X690187Y203430D01*
X690954Y206291D01*
Y209253D01*
X690187Y212114D01*
X688706Y214680D01*
X686612Y216774D01*
X684046Y218255D01*
X681185Y219022D01*
D02*
G37*
G36*
X571565Y213848D02*
X567094D01*
Y209377D01*
X569104Y210210D01*
X570732Y211838D01*
X571565Y213848D01*
D02*
G37*
G36*
X564554D02*
X560083D01*
X560915Y211838D01*
X562544Y210210D01*
X564554Y209377D01*
Y213848D01*
D02*
G37*
G36*
X493421Y211836D02*
X488950D01*
Y207365D01*
X490960Y208197D01*
X492589Y209826D01*
X493421Y211836D01*
D02*
G37*
G36*
X318516Y207264D02*
X314045D01*
X314877Y205254D01*
X316506Y203626D01*
X318516Y202793D01*
Y207264D01*
D02*
G37*
G36*
X410893Y195316D02*
Y190845D01*
X415364D01*
X414531Y192855D01*
X412902Y194483D01*
X410893Y195316D01*
D02*
G37*
G36*
X408353D02*
X406343Y194483D01*
X404714Y192855D01*
X403882Y190845D01*
X408353D01*
Y195316D01*
D02*
G37*
G36*
X415364Y188305D02*
X410893D01*
Y183834D01*
X412902Y184666D01*
X414531Y186295D01*
X415364Y188305D01*
D02*
G37*
G36*
X408353D02*
X403882D01*
X404714Y186295D01*
X406343Y184666D01*
X408353Y183834D01*
Y188305D01*
D02*
G37*
G36*
X619252Y184303D02*
Y179832D01*
X623723D01*
X622891Y181842D01*
X621262Y183470D01*
X619252Y184303D01*
D02*
G37*
G36*
X616712D02*
X614702Y183470D01*
X613074Y181842D01*
X612241Y179832D01*
X616712D01*
Y184303D01*
D02*
G37*
G36*
X623723Y177292D02*
X619252D01*
Y172821D01*
X621262Y173654D01*
X622891Y175282D01*
X623723Y177292D01*
D02*
G37*
G36*
X616712D02*
X612241D01*
X613074Y175282D01*
X614702Y173654D01*
X616712Y172821D01*
Y177292D01*
D02*
G37*
G36*
X551180Y175413D02*
Y170942D01*
X555651D01*
X554818Y172952D01*
X553190Y174580D01*
X551180Y175413D01*
D02*
G37*
G36*
X548640D02*
X546630Y174580D01*
X545001Y172952D01*
X544169Y170942D01*
X548640D01*
Y175413D01*
D02*
G37*
G36*
X555651Y168402D02*
X551180D01*
Y163931D01*
X553190Y164764D01*
X554818Y166392D01*
X555651Y168402D01*
D02*
G37*
G36*
X548640D02*
X544169D01*
X545001Y166392D01*
X546630Y164764D01*
X548640Y163931D01*
Y168402D01*
D02*
G37*
G36*
X677338Y166290D02*
X668528D01*
Y157480D01*
X677338D01*
Y166290D01*
D02*
G37*
G36*
X665988D02*
X657178D01*
Y157480D01*
X665988D01*
Y166290D01*
D02*
G37*
G36*
X747125Y158334D02*
X747014D01*
Y149114D01*
X756234D01*
Y149225D01*
X755519Y151893D01*
X754138Y154285D01*
X752185Y156238D01*
X749793Y157619D01*
X747125Y158334D01*
D02*
G37*
G36*
X744474D02*
X744363D01*
X741695Y157619D01*
X739303Y156238D01*
X737350Y154285D01*
X735969Y151893D01*
X735254Y149225D01*
Y149114D01*
X744474D01*
Y158334D01*
D02*
G37*
G36*
X677338Y154940D02*
X668528D01*
Y146130D01*
X677338D01*
Y154940D01*
D02*
G37*
G36*
X665988D02*
X657178D01*
Y146130D01*
X665988D01*
Y154940D01*
D02*
G37*
G36*
X756234Y146574D02*
X747014D01*
Y137354D01*
X747125D01*
X749793Y138069D01*
X752185Y139450D01*
X754138Y141403D01*
X755519Y143795D01*
X756234Y146463D01*
Y146574D01*
D02*
G37*
G36*
X744474D02*
X735254D01*
Y146463D01*
X735969Y143795D01*
X737350Y141403D01*
X739303Y139450D01*
X741695Y138069D01*
X744363Y137354D01*
X744474D01*
Y146574D01*
D02*
G37*
G36*
X668514Y191150D02*
X666002D01*
X663576Y190500D01*
X661400Y189244D01*
X659624Y187468D01*
X658368Y185292D01*
X657718Y182866D01*
Y180354D01*
X658368Y177928D01*
X659624Y175752D01*
X661400Y173976D01*
X663576Y172720D01*
X666002Y172070D01*
X668514D01*
X670940Y172720D01*
X672426Y173578D01*
X681053D01*
X704522Y150109D01*
Y147363D01*
X705289Y144502D01*
X706348Y142668D01*
X706412Y142177D01*
X707117Y140474D01*
X708240Y139011D01*
X709702Y137889D01*
X711405Y137184D01*
X713232Y136944D01*
X715059Y137184D01*
X716049Y137594D01*
X717253D01*
X720114Y138361D01*
X722680Y139842D01*
X724774Y141936D01*
X726255Y144502D01*
X727022Y147363D01*
Y150325D01*
X726255Y153186D01*
X724774Y155752D01*
X722680Y157846D01*
X720114Y159327D01*
X717253Y160094D01*
X714507D01*
X688970Y185630D01*
X687508Y186752D01*
X685805Y187458D01*
X683978Y187698D01*
X674661D01*
X673116Y189244D01*
X670940Y190500D01*
X668514Y191150D01*
D02*
G37*
G36*
X277876Y136297D02*
Y131826D01*
X282347D01*
X281514Y133836D01*
X279886Y135464D01*
X277876Y136297D01*
D02*
G37*
G36*
X275336D02*
X273326Y135464D01*
X271698Y133836D01*
X270865Y131826D01*
X275336D01*
Y136297D01*
D02*
G37*
G36*
X282347Y129286D02*
X277876D01*
Y124815D01*
X279886Y125647D01*
X281514Y127276D01*
X282347Y129286D01*
D02*
G37*
G36*
X275336D02*
X270865D01*
X271698Y127276D01*
X273326Y125647D01*
X275336Y124815D01*
Y129286D01*
D02*
G37*
G36*
X609501Y105714D02*
X606143D01*
X602901Y104845D01*
X599993Y103167D01*
X597620Y100793D01*
X595941Y97885D01*
X595757Y97199D01*
X594487D01*
X594303Y97885D01*
X592625Y100793D01*
X590251Y103167D01*
X587343Y104845D01*
X584101Y105714D01*
X580743D01*
X577501Y104845D01*
X574593Y103167D01*
X572220Y100793D01*
X570541Y97885D01*
X569672Y94643D01*
Y91285D01*
X570541Y88043D01*
X572220Y85135D01*
X574593Y82761D01*
X577501Y81083D01*
X580743Y80214D01*
X584101D01*
X587343Y81083D01*
X590251Y82761D01*
X592625Y85135D01*
X594303Y88043D01*
X594487Y88729D01*
X595757D01*
X595941Y88043D01*
X597620Y85135D01*
X599993Y82761D01*
X602901Y81083D01*
X606143Y80214D01*
X609501D01*
X612743Y81083D01*
X615651Y82761D01*
X618024Y85135D01*
X619703Y88043D01*
X620572Y91285D01*
Y94643D01*
X619703Y97885D01*
X618024Y100793D01*
X615651Y103167D01*
X612743Y104845D01*
X609501Y105714D01*
D02*
G37*
G36*
X42446Y95356D02*
X42164D01*
Y84836D01*
X52684D01*
Y85118D01*
X51881Y88117D01*
X50328Y90805D01*
X48133Y93000D01*
X45445Y94553D01*
X42446Y95356D01*
D02*
G37*
G36*
X39624D02*
X39342D01*
X36343Y94553D01*
X33655Y93000D01*
X31460Y90805D01*
X29907Y88117D01*
X29104Y85118D01*
Y84836D01*
X39624D01*
Y95356D01*
D02*
G37*
G36*
X507901Y105714D02*
X504543D01*
X501301Y104845D01*
X498393Y103167D01*
X496020Y100793D01*
X494341Y97885D01*
X493472Y94643D01*
Y91285D01*
X494341Y88043D01*
X496020Y85135D01*
X498393Y82761D01*
X501301Y81083D01*
X504543Y80214D01*
X507901D01*
X511143Y81083D01*
X514051Y82761D01*
X516424Y85135D01*
X518103Y88043D01*
X518972Y91285D01*
Y94643D01*
X518103Y97885D01*
X516424Y100793D01*
X514051Y103167D01*
X511143Y104845D01*
X507901Y105714D01*
D02*
G37*
G36*
X959640Y90022D02*
X959358D01*
Y79502D01*
X969878D01*
Y79784D01*
X969075Y82783D01*
X967522Y85471D01*
X965327Y87666D01*
X962639Y89219D01*
X959640Y90022D01*
D02*
G37*
G36*
X956818D02*
X956536D01*
X953537Y89219D01*
X950849Y87666D01*
X948654Y85471D01*
X947101Y82783D01*
X946298Y79784D01*
Y79502D01*
X956818D01*
Y90022D01*
D02*
G37*
G36*
X52684Y82296D02*
X42164D01*
Y71776D01*
X42446D01*
X45445Y72579D01*
X48133Y74132D01*
X50328Y76327D01*
X51881Y79015D01*
X52684Y82014D01*
Y82296D01*
D02*
G37*
G36*
X39624D02*
X29104D01*
Y82014D01*
X29907Y79015D01*
X31460Y76327D01*
X33655Y74132D01*
X36343Y72579D01*
X39342Y71776D01*
X39624D01*
Y82296D01*
D02*
G37*
G36*
X969878Y76962D02*
X959358D01*
Y66442D01*
X959640D01*
X962639Y67245D01*
X965327Y68798D01*
X967522Y70993D01*
X969075Y73681D01*
X969878Y76680D01*
Y76962D01*
D02*
G37*
G36*
X956818D02*
X946298D01*
Y76680D01*
X947101Y73681D01*
X948654Y70993D01*
X950849Y68798D01*
X953537Y67245D01*
X956536Y66442D01*
X956818D01*
Y76962D01*
D02*
G37*
G36*
X327300Y59436D02*
X326898D01*
Y48006D01*
X338328D01*
Y48408D01*
X337463Y51638D01*
X335790Y54534D01*
X333426Y56898D01*
X330530Y58570D01*
X327300Y59436D01*
D02*
G37*
G36*
X324358D02*
X323956D01*
X320726Y58570D01*
X317830Y56898D01*
X315466Y54534D01*
X313794Y51638D01*
X312928Y48408D01*
Y48006D01*
X324358D01*
Y59436D01*
D02*
G37*
%LPD*%
D43*
X182626Y466598D02*
D03*
X385826D02*
D03*
X182024Y523588D02*
D03*
X385224D02*
D03*
X181864Y580136D02*
D03*
X385064D02*
D03*
X822198Y571500D02*
D03*
X618998D02*
D03*
X821944Y458978D02*
D03*
X618744D02*
D03*
X821944Y515366D02*
D03*
X618744D02*
D03*
D53*
X529102Y293399D02*
G03*
X527785Y296366I-4000J-0D01*
G01*
X527788Y307141D02*
G03*
X529102Y310105I-2686J2964D01*
G01*
X527788Y307141D02*
G03*
X527785Y296366I4850J-5389D01*
G01*
X529102Y70084D02*
Y293399D01*
Y70084D02*
X557022Y42164D01*
X322789Y215784D02*
X327036Y211537D01*
X266954Y214630D02*
X315629D01*
X327036Y207126D02*
X397510Y136652D01*
X316783Y215784D02*
X322789D01*
X327036Y207126D02*
Y211537D01*
X315629Y214630D02*
X316783Y215784D01*
X398111Y225806D02*
X427482D01*
X387903Y230008D02*
X393909D01*
X398111Y225806D01*
X363728D02*
X383701D01*
X387903Y230008D01*
X427482Y225806D02*
X434340Y218948D01*
X529102Y310105D02*
Y322306D01*
X442722Y390398D02*
Y454008D01*
X456184Y467470D01*
X349308Y386588D02*
X364844Y402124D01*
X430996D01*
X442722Y390398D01*
X326644Y386588D02*
X349308D01*
X401320Y355346D02*
X423672Y377698D01*
X326898Y355346D02*
X401320D01*
X432118Y352488D02*
X435864Y348742D01*
X434276Y371548D02*
Y382090D01*
X395732Y388874D02*
X427492D01*
X434276Y382090D01*
X432118Y352488D02*
Y369390D01*
X435864Y285207D02*
Y348742D01*
X432118Y369390D02*
X434276Y371548D01*
X225171Y355473D02*
X225298Y355346D01*
X225171Y355473D02*
Y386461D01*
X225044Y386588D02*
X225171Y386461D01*
X520891Y267901D02*
X521369Y268379D01*
X397510Y136652D02*
X520891Y260033D01*
Y267901D01*
X436342Y202154D02*
Y210697D01*
X435864Y285207D02*
X441590Y279480D01*
X435864Y201676D02*
X436342Y202154D01*
Y210697D02*
X441590Y215945D01*
Y279480D01*
X498094Y353314D02*
X529102Y322306D01*
X626110Y207772D02*
X679704D01*
X636731Y320318D02*
Y327369D01*
X646674Y337312D01*
X668020D01*
X626110Y309372D02*
Y309697D01*
X636731Y320318D01*
D54*
X497332Y311912D02*
Y313182D01*
X497840Y313690D01*
Y332994D01*
X498348Y333502D01*
D57*
X548628Y360064D02*
X658248Y250444D01*
X492753Y360064D02*
X548628D01*
X488627Y355938D02*
X492753Y360064D01*
X487680Y355938D02*
X488627D01*
X658248Y250444D02*
X715772D01*
D58*
X225298Y355346D02*
D03*
X326898D02*
D03*
X715772Y148844D02*
D03*
Y250444D02*
D03*
X370332Y388874D02*
D03*
X395732D02*
D03*
X225044Y386588D02*
D03*
X326644D02*
D03*
X282956Y716026D02*
D03*
X724662Y286512D02*
D03*
Y311912D02*
D03*
X630428Y390906D02*
D03*
X655828D02*
D03*
X626110Y309372D02*
D03*
Y207772D02*
D03*
X679704Y309372D02*
D03*
Y207772D02*
D03*
X735584Y721868D02*
D03*
D59*
X549656Y576470D02*
D03*
Y521970D02*
D03*
X456184D02*
D03*
Y576470D02*
D03*
D60*
X549656Y467470D02*
D03*
X456184D02*
D03*
D61*
X325628Y46736D02*
D03*
X198628D02*
D03*
D62*
X446117Y336042D02*
D03*
X652272Y304639D02*
D03*
D63*
X370747Y336042D02*
D03*
D64*
X40894Y244094D02*
D03*
X117094D02*
D03*
X40894Y563372D02*
D03*
X117094D02*
D03*
X40894Y83566D02*
D03*
X117094D02*
D03*
X40894Y403860D02*
D03*
X117094D02*
D03*
X958088Y78232D02*
D03*
X881888D02*
D03*
X958088Y552450D02*
D03*
X881888D02*
D03*
X958088Y394716D02*
D03*
X881888D02*
D03*
X958088Y236474D02*
D03*
X881888D02*
D03*
D65*
X308356Y716026D02*
D03*
X710184Y721868D02*
D03*
D66*
X442722Y364998D02*
D03*
X423672Y377698D02*
D03*
X442722Y390398D02*
D03*
X648970Y324612D02*
D03*
X668020Y337312D02*
D03*
X648970Y350012D02*
D03*
D67*
X745744Y251444D02*
D03*
D68*
Y147844D02*
D03*
D69*
X667258Y181610D02*
D03*
D70*
Y156210D02*
D03*
D71*
X557022Y42164D02*
D03*
X506222Y92964D02*
D03*
X582422D02*
D03*
X607822D02*
D03*
D72*
X797560Y35052D02*
D03*
Y390652D02*
D03*
D73*
X652272Y229269D02*
D03*
D74*
X538988Y251968D02*
D03*
X276606Y130556D02*
D03*
X487680Y213106D02*
D03*
X565824Y215118D02*
D03*
X549910Y169672D02*
D03*
X386080Y284226D02*
D03*
X319786Y208534D02*
D03*
X409623Y189575D02*
D03*
X579628Y341122D02*
D03*
X390906Y222758D02*
D03*
X617982Y178562D02*
D03*
X584705Y255788D02*
D03*
X532638Y301752D02*
D03*
X397510Y136652D02*
D03*
X521369Y268379D02*
D03*
X434340Y218948D02*
D03*
X363728Y225806D02*
D03*
X266954Y214630D02*
D03*
X435864Y201676D02*
D03*
X487680Y355938D02*
D03*
X498094Y353314D02*
D03*
X497332Y311912D02*
D03*
X498348Y333502D02*
D03*
D75*
X715772Y146544D02*
Y148844D01*
X713232Y144004D02*
X715772Y146544D01*
X153924Y46736D02*
X201421D01*
X198628D02*
X215900Y29464D01*
X198628Y46736D02*
X198628D01*
X215900Y29464D02*
X333756D01*
X410606Y44450D02*
X432704Y22352D01*
X729996D02*
X738886Y31242D01*
X432704Y22352D02*
X729996D01*
X117094Y83566D02*
X153924Y46736D01*
X333756Y29464D02*
X348742Y44450D01*
X410606D01*
X738886Y31242D02*
X780542D01*
X648970Y324612D02*
X649838D01*
X650742Y323708D01*
X673655D01*
X681624Y331677D02*
Y388091D01*
X637161Y432553D02*
X681624Y388091D01*
X614056Y432553D02*
X637161D01*
X579139Y467470D02*
X614056Y432553D01*
X549656Y467470D02*
X579139D01*
X673655Y323708D02*
X681624Y331677D01*
X385064Y580136D02*
Y639318D01*
X308356Y716026D02*
X385064Y639318D01*
X736720Y697618D02*
X881888Y552450D01*
X736720Y697618D02*
Y720732D01*
X735584Y721868D02*
X736720Y720732D01*
X618998Y630682D02*
X710184Y721868D01*
X618998Y571500D02*
Y630682D01*
X268122Y714400D02*
X281330D01*
X282956Y716026D01*
X117094Y563372D02*
X268122Y714400D01*
X683978Y180638D02*
X715772Y148844D01*
X668230Y180638D02*
X683978D01*
X667258Y181610D02*
X668230Y180638D01*
X797560Y359410D02*
Y390652D01*
X724662Y286512D02*
X797560Y359410D01*
D76*
X538734Y521098D02*
X549656D01*
X612140Y521970D02*
X618744Y515366D01*
X549656Y521970D02*
X612140D01*
X618744Y458978D02*
Y515366D01*
Y571246D02*
X618998Y571500D01*
X618744Y515366D02*
Y571246D01*
X385224Y523588D02*
X454566D01*
X456184Y521970D01*
X385224Y523588D02*
Y579976D01*
X385064Y580136D02*
X385224Y579976D01*
Y523588D02*
X385826Y522986D01*
Y466598D02*
Y522986D01*
X881888Y236474D02*
Y394716D01*
X797560Y35052D02*
X840740Y78232D01*
X793750Y31242D02*
X797560Y35052D01*
X840740Y78232D02*
X881888D01*
X780542Y31242D02*
X793750D01*
X881888Y394716D02*
Y552450D01*
Y78232D02*
Y236474D01*
D77*
X117094Y403860D02*
Y563372D01*
Y244094D02*
Y403860D01*
Y83566D02*
Y244094D01*
D78*
X716272Y250944D02*
X745244D01*
X745744Y251444D01*
X715772Y250444D02*
X716272Y250944D01*
X715772Y274240D02*
X724662Y283130D01*
Y286512D01*
X715772Y250444D02*
Y274240D01*
D79*
X671994Y304639D02*
X676727Y309372D01*
X652272Y304639D02*
X671994D01*
X676727Y309372D02*
X679704D01*
X650062Y308169D02*
Y323520D01*
X652272Y304639D02*
Y305959D01*
X650062Y308169D02*
X652272Y305959D01*
M02*
