G04*
G04 #@! TF.GenerationSoftware,Altium Limited,Altium Designer,24.0.1 (36)*
G04*
G04 Layer_Color=8421504*
%FSLAX25Y25*%
%MOIN*%
G70*
G04*
G04 #@! TF.SameCoordinates,92507F75-474C-4227-9718-4D99FAF4D6AC*
G04*
G04*
G04 #@! TF.FilePolarity,Positive*
G04*
G01*
G75*
%ADD17R,0.03937X0.02756*%
%ADD18R,0.05118X0.05906*%
%ADD19R,0.04016X0.04095*%
%ADD20R,0.04095X0.04016*%
%ADD21R,0.04724X0.04724*%
%ADD22R,0.06299X0.05906*%
%ADD23R,0.05906X0.05118*%
G04:AMPARAMS|DCode=24|XSize=77.56mil|YSize=23.62mil|CornerRadius=2.95mil|HoleSize=0mil|Usage=FLASHONLY|Rotation=180.000|XOffset=0mil|YOffset=0mil|HoleType=Round|Shape=RoundedRectangle|*
%AMROUNDEDRECTD24*
21,1,0.07756,0.01772,0,0,180.0*
21,1,0.07165,0.02362,0,0,180.0*
1,1,0.00591,-0.03583,0.00886*
1,1,0.00591,0.03583,0.00886*
1,1,0.00591,0.03583,-0.00886*
1,1,0.00591,-0.03583,-0.00886*
%
%ADD24ROUNDEDRECTD24*%
G04:AMPARAMS|DCode=25|XSize=77.56mil|YSize=23.62mil|CornerRadius=2.95mil|HoleSize=0mil|Usage=FLASHONLY|Rotation=90.000|XOffset=0mil|YOffset=0mil|HoleType=Round|Shape=RoundedRectangle|*
%AMROUNDEDRECTD25*
21,1,0.07756,0.01772,0,0,90.0*
21,1,0.07165,0.02362,0,0,90.0*
1,1,0.00591,0.00886,0.03583*
1,1,0.00591,0.00886,-0.03583*
1,1,0.00591,-0.00886,-0.03583*
1,1,0.00591,-0.00886,0.03583*
%
%ADD25ROUNDEDRECTD25*%
G36*
X114253Y65483D02*
Y58317D01*
X113111Y57176D01*
X102402D01*
X101969Y57569D01*
X99883D01*
Y60719D01*
X102245D01*
Y63081D01*
X99883D01*
Y66231D01*
X101969D01*
X102402Y66624D01*
X113111D01*
X114253Y65483D01*
D02*
G37*
G36*
X120631Y66231D02*
X122717D01*
Y63081D01*
X120355D01*
Y60719D01*
X122717D01*
Y57569D01*
X120631D01*
X120198Y57176D01*
X117363D01*
X116221Y58317D01*
Y65483D01*
X117363Y66624D01*
X120198D01*
X120631Y66231D01*
D02*
G37*
G36*
X186531Y64557D02*
Y62471D01*
X183381D01*
Y64833D01*
X181019D01*
Y62471D01*
X177869D01*
Y64557D01*
X177476Y64991D01*
Y67825D01*
X178617Y68967D01*
X185783D01*
X186924Y67825D01*
Y64991D01*
X186531Y64557D01*
D02*
G37*
G36*
X185783Y70935D02*
X178617D01*
X177476Y72077D01*
Y82786D01*
X177869Y83219D01*
Y85306D01*
X181019D01*
Y82943D01*
X183381D01*
Y85306D01*
X186531D01*
Y83219D01*
X186924Y82786D01*
Y72077D01*
X185783Y70935D01*
D02*
G37*
D17*
X251289Y43383D02*
D03*
X274911D02*
D03*
X251289Y28817D02*
D03*
X274911D02*
D03*
X182911Y22716D02*
D03*
X159289D02*
D03*
X182911Y37284D02*
D03*
X159289D02*
D03*
D18*
X151340Y47905D02*
D03*
X143860D02*
D03*
X117240Y79700D02*
D03*
X109760D02*
D03*
X136360Y105000D02*
D03*
X143840D02*
D03*
X169700Y59404D02*
D03*
X162220D02*
D03*
X226260Y139800D02*
D03*
X233740D02*
D03*
X229260Y107000D02*
D03*
X236740D02*
D03*
X225960Y95800D02*
D03*
X233440D02*
D03*
X216500Y92400D02*
D03*
X209020D02*
D03*
D19*
X135400Y57011D02*
D03*
Y62798D02*
D03*
X92900Y101694D02*
D03*
Y95906D02*
D03*
X180100Y101306D02*
D03*
Y107094D02*
D03*
X136100Y91006D02*
D03*
Y96794D02*
D03*
X201200Y121606D02*
D03*
Y115818D02*
D03*
X210800Y136900D02*
D03*
Y142687D02*
D03*
X218100Y142587D02*
D03*
Y136800D02*
D03*
X230300Y129294D02*
D03*
Y123506D02*
D03*
X237700Y129294D02*
D03*
Y123506D02*
D03*
X206300Y52906D02*
D03*
Y58694D02*
D03*
D20*
X129506Y70305D02*
D03*
X135294D02*
D03*
X159006Y122300D02*
D03*
X164794D02*
D03*
X159213Y115000D02*
D03*
X165000D02*
D03*
Y86100D02*
D03*
X159213D02*
D03*
X159013Y78700D02*
D03*
X164800D02*
D03*
X159113Y71300D02*
D03*
X164900D02*
D03*
X161569Y51146D02*
D03*
X167357D02*
D03*
X197506Y145600D02*
D03*
X203294D02*
D03*
Y152800D02*
D03*
X197506D02*
D03*
X230813Y116200D02*
D03*
X236600D02*
D03*
X225813Y87700D02*
D03*
X231600D02*
D03*
X198694Y57300D02*
D03*
X192906D02*
D03*
D21*
X151537Y57409D02*
D03*
X143663D02*
D03*
X198663Y80293D02*
D03*
X206537D02*
D03*
D22*
X147600Y70205D02*
D03*
X202600Y67498D02*
D03*
D23*
X84400Y101840D02*
D03*
Y94360D02*
D03*
X173200Y123040D02*
D03*
Y115560D02*
D03*
X202700Y137400D02*
D03*
Y129920D02*
D03*
X243300Y64800D02*
D03*
Y57320D02*
D03*
D24*
X123649Y88300D02*
D03*
Y93300D02*
D03*
Y98300D02*
D03*
Y103300D02*
D03*
X104200D02*
D03*
Y98300D02*
D03*
Y93300D02*
D03*
Y88300D02*
D03*
X152251Y107400D02*
D03*
Y102400D02*
D03*
Y97400D02*
D03*
Y92400D02*
D03*
X171700D02*
D03*
Y97400D02*
D03*
Y102400D02*
D03*
Y107400D02*
D03*
D25*
X216094Y59072D02*
D03*
X221094D02*
D03*
X226094D02*
D03*
X231094D02*
D03*
Y78521D02*
D03*
X226094D02*
D03*
X221094D02*
D03*
X216094D02*
D03*
X223500Y109476D02*
D03*
X218500D02*
D03*
X213500D02*
D03*
X208500D02*
D03*
Y128924D02*
D03*
X213500D02*
D03*
X218500D02*
D03*
X223500D02*
D03*
M02*
