G04*
G04 #@! TF.GenerationSoftware,Altium Limited,Altium Designer,24.0.1 (36)*
G04*
G04 Layer_Color=16711935*
%FSLAX25Y25*%
%MOIN*%
G70*
G04*
G04 #@! TF.SameCoordinates,92507F75-474C-4227-9718-4D99FAF4D6AC*
G04*
G04*
G04 #@! TF.FilePolarity,Negative*
G04*
G01*
G75*
%ADD35C,0.08083*%
%ADD36C,0.08800*%
%ADD37C,0.06800*%
%ADD38C,0.11194*%
%ADD39R,0.11194X0.11194*%
%ADD40C,0.05674*%
%ADD41R,0.05674X0.05674*%
%ADD42C,0.06000*%
%ADD43R,0.07060X0.07060*%
%ADD44C,0.07060*%
%ADD45C,0.06737*%
%ADD46R,0.06737X0.06737*%
%ADD47C,0.09265*%
%ADD48C,0.10800*%
%ADD49R,0.05674X0.05674*%
%ADD50C,0.05800*%
%ADD51C,0.03359*%
D35*
X26000Y72500D02*
D03*
X46000D02*
D03*
X26200Y157600D02*
D03*
X46200D02*
D03*
X26000Y30400D02*
D03*
X46000D02*
D03*
X26000Y115500D02*
D03*
X46000D02*
D03*
X371600Y31300D02*
D03*
X351600D02*
D03*
X371600Y74000D02*
D03*
X351600D02*
D03*
X371600Y116100D02*
D03*
X351600D02*
D03*
X371600Y159100D02*
D03*
X351600D02*
D03*
X88700Y139900D02*
D03*
X128700D02*
D03*
X281800Y58600D02*
D03*
Y98600D02*
D03*
X145800Y153100D02*
D03*
X155800D02*
D03*
X88600Y152200D02*
D03*
X128600D02*
D03*
X285300Y112800D02*
D03*
Y122800D02*
D03*
X248200Y153900D02*
D03*
X258200D02*
D03*
X246500Y121800D02*
D03*
Y81800D02*
D03*
X267600Y121800D02*
D03*
Y81800D02*
D03*
D36*
X180400Y6900D02*
D03*
X256200D02*
D03*
X385600Y325900D02*
D03*
X13600Y324200D02*
D03*
D37*
X270900Y261300D02*
D03*
X290900D02*
D03*
X139800Y259400D02*
D03*
X119800D02*
D03*
X74803Y23622D02*
D03*
X94803D02*
D03*
X115000Y23600D02*
D03*
X135000D02*
D03*
X71900Y176600D02*
D03*
X151900D02*
D03*
X71663Y206137D02*
D03*
X151663D02*
D03*
X72300Y236200D02*
D03*
X152300D02*
D03*
X324500Y234400D02*
D03*
X244500D02*
D03*
X326400Y180800D02*
D03*
X246400D02*
D03*
X325400Y207500D02*
D03*
X245400D02*
D03*
D38*
X216400Y226957D02*
D03*
Y205500D02*
D03*
X179600D02*
D03*
Y226957D02*
D03*
D39*
X216400Y184043D02*
D03*
X179600D02*
D03*
D40*
X175637Y132300D02*
D03*
X256800Y119937D02*
D03*
D41*
X145963Y132300D02*
D03*
D42*
X174300Y143700D02*
D03*
X166800Y148700D02*
D03*
X174300Y153700D02*
D03*
X255500Y127800D02*
D03*
X263000Y132800D02*
D03*
X255500Y137800D02*
D03*
D43*
X293600Y98994D02*
D03*
D44*
Y58206D02*
D03*
D45*
X262700Y71500D02*
D03*
D46*
Y61500D02*
D03*
D47*
X219300Y16600D02*
D03*
X199300Y36600D02*
D03*
X229300D02*
D03*
X239300D02*
D03*
D48*
X314000Y13800D02*
D03*
Y153800D02*
D03*
D49*
X256800Y90263D02*
D03*
D50*
X160206Y172894D02*
D03*
X197900Y203700D02*
D03*
Y185000D02*
D03*
Y226200D02*
D03*
X283465Y153543D02*
D03*
X84346Y40661D02*
D03*
X216600Y166500D02*
D03*
X180000Y169500D02*
D03*
X199300Y171800D02*
D03*
X292000Y153800D02*
D03*
D51*
X212200Y99200D02*
D03*
X108900Y51400D02*
D03*
X192000Y83900D02*
D03*
X222765Y84692D02*
D03*
X216500Y66800D02*
D03*
X152000Y111900D02*
D03*
X125900Y82100D02*
D03*
X161269Y74636D02*
D03*
X228200Y134300D02*
D03*
X153900Y87700D02*
D03*
X243300Y70300D02*
D03*
X230199Y100704D02*
D03*
X209700Y118800D02*
D03*
X156500Y53800D02*
D03*
X205263Y105661D02*
D03*
X171000Y86200D02*
D03*
X143200Y88900D02*
D03*
X105100Y84500D02*
D03*
X171600Y79400D02*
D03*
X192000Y140133D02*
D03*
X196100Y139100D02*
D03*
X195800Y122800D02*
D03*
X196200Y131300D02*
D03*
M02*
