G04*
G04 #@! TF.GenerationSoftware,Altium Limited,Altium Designer,24.0.1 (36)*
G04*
G04 Layer_Color=16711935*
%FSLAX44Y44*%
%MOMM*%
G71*
G04*
G04 #@! TF.SameCoordinates,8FF7991A-89D8-4168-8CAE-93076DC636D7*
G04*
G04*
G04 #@! TF.FilePolarity,Negative*
G04*
G01*
G75*
%ADD35C,2.0532*%
%ADD36C,2.8432*%
%ADD37R,2.8432X2.8432*%
%ADD38C,2.2352*%
%ADD39C,1.4412*%
%ADD40R,1.4412X1.4412*%
%ADD41C,2.0532*%
%ADD42R,2.0532X2.0532*%
%ADD43C,1.5240*%
%ADD44C,1.7272*%
%ADD45R,1.7932X1.7932*%
%ADD46C,1.7932*%
%ADD47C,1.7112*%
%ADD48R,1.7112X1.7112*%
%ADD49C,2.3532*%
%ADD50C,2.7432*%
%ADD51R,1.4412X1.4412*%
%ADD52C,0.8532*%
D35*
X225298Y355346D02*
D03*
X326898D02*
D03*
X715772Y148844D02*
D03*
Y250444D02*
D03*
X370332Y388874D02*
D03*
X395732D02*
D03*
X225044Y386588D02*
D03*
X326644D02*
D03*
X282956Y716026D02*
D03*
X724662Y286512D02*
D03*
Y311912D02*
D03*
X630428Y390906D02*
D03*
X655828D02*
D03*
X626110Y309372D02*
D03*
Y207772D02*
D03*
X679704Y309372D02*
D03*
Y207772D02*
D03*
X735584Y721868D02*
D03*
D36*
X549656Y576470D02*
D03*
Y521970D02*
D03*
X456184D02*
D03*
Y576470D02*
D03*
D37*
X549656Y467470D02*
D03*
X456184D02*
D03*
D38*
X325628Y46736D02*
D03*
X198628D02*
D03*
D39*
X446117Y336042D02*
D03*
X652272Y304639D02*
D03*
D40*
X370747Y336042D02*
D03*
D41*
X40894Y244094D02*
D03*
X117094D02*
D03*
X40894Y563372D02*
D03*
X117094D02*
D03*
X40894Y83566D02*
D03*
X117094D02*
D03*
X40894Y403860D02*
D03*
X117094D02*
D03*
X958088Y78232D02*
D03*
X881888D02*
D03*
X958088Y552450D02*
D03*
X881888D02*
D03*
X958088Y394716D02*
D03*
X881888D02*
D03*
X958088Y236474D02*
D03*
X881888D02*
D03*
D42*
X308356Y716026D02*
D03*
X710184Y721868D02*
D03*
D43*
X442722Y364998D02*
D03*
X423672Y377698D02*
D03*
X442722Y390398D02*
D03*
X648970Y324612D02*
D03*
X668020Y337312D02*
D03*
X648970Y350012D02*
D03*
D44*
X182626Y466598D02*
D03*
X385826D02*
D03*
X182024Y523588D02*
D03*
X385224D02*
D03*
X181864Y580136D02*
D03*
X385064D02*
D03*
X822198Y571500D02*
D03*
X618998D02*
D03*
X821944Y458978D02*
D03*
X618744D02*
D03*
X821944Y515366D02*
D03*
X618744D02*
D03*
D45*
X745744Y251444D02*
D03*
D46*
Y147844D02*
D03*
D47*
X667258Y181610D02*
D03*
D48*
Y156210D02*
D03*
D49*
X557022Y42164D02*
D03*
X506222Y92964D02*
D03*
X582422D02*
D03*
X607822D02*
D03*
D50*
X797560Y35052D02*
D03*
Y390652D02*
D03*
D51*
X652272Y229269D02*
D03*
D52*
X538988Y251968D02*
D03*
X276606Y130556D02*
D03*
X487680Y213106D02*
D03*
X565824Y215118D02*
D03*
X549910Y169672D02*
D03*
X386080Y284226D02*
D03*
X319786Y208534D02*
D03*
X409623Y189575D02*
D03*
X579628Y341122D02*
D03*
X390906Y222758D02*
D03*
X617982Y178562D02*
D03*
X584705Y255788D02*
D03*
X532638Y301752D02*
D03*
X397510Y136652D02*
D03*
X521369Y268379D02*
D03*
X434340Y218948D02*
D03*
X363728Y225806D02*
D03*
X266954Y214630D02*
D03*
X435864Y201676D02*
D03*
X487680Y355938D02*
D03*
X498094Y353314D02*
D03*
X497332Y311912D02*
D03*
X498348Y333502D02*
D03*
M02*
